{"glyphs":{"0":{"ha":757,"x_min":61,"x_max":746,"o":"m 454 950 q 214 504 268 831 q 207 158 181 293 q 350 50 243 82 q 503 224 442 107 q 594 523 564 340 q 597 842 624 706 q 454 950 561 919 m 332 -6 q 147 106 228 -6 q 99 490 61 224 q 243 865 139 718 q 469 1010 347 1013 q 669 877 592 1008 q 707 510 746 746 q 562 131 664 268 q 332 -6 460 -6 z "},"1":{"ha":443,"x_min":111,"x_max":442,"o":"m 357 733 l 249 244 l 231 -1 q 111 25 171 -11 l 289 811 l 317 897 l 299 903 l 203 757 q 138 769 149 739 l 256 1018 q 367 1017 326 1031 q 442 960 407 1003 l 357 733 z "},"2":{"ha":664,"x_min":-1,"x_max":654,"o":"m 383 943 q 229 843 301 943 l 285 733 q 228 700 269 707 q 121 817 165 751 q 247 973 168 913 q 416 1033 326 1033 q 580 921 506 1033 q 654 688 654 808 q 433 381 654 567 l 96 97 l 104 89 l 563 107 q 563 49 574 83 q 528 -8 551 14 l 156 18 l 64 -4 q 1 115 -1 31 l 353 428 q 558 681 483 544 q 493 871 539 799 q 383 943 447 943 z "},"3":{"ha":711,"x_min":18,"x_max":678,"o":"m 93 817 q 220 974 140 914 q 398 1033 300 1033 q 587 945 496 1033 q 676 746 678 857 q 645 674 675 704 q 542 606 615 643 l 382 525 q 526 474 465 503 q 631 395 588 446 q 669 281 675 344 q 491 98 658 169 q 60 -3 324 26 q 31 64 18 28 q 369 145 247 103 q 582 263 490 188 q 279 482 554 385 l 297 542 l 575 726 q 504 872 568 811 q 379 933 440 933 q 201 843 278 933 l 257 733 q 200 700 242 707 q 93 817 138 751 z "},"4":{"ha":729,"x_min":42,"x_max":740,"o":"m 607 1025 q 729 960 678 1025 l 644 733 l 564 365 l 729 372 q 733 317 740 347 q 704 264 725 286 l 543 271 l 538 244 l 519 -1 q 399 25 460 -11 l 456 275 l 408 278 l 90 269 q 42 349 53 292 l 549 1018 q 607 1025 575 1025 m 281 354 l 476 363 l 526 583 l 625 940 l 607 946 l 431 714 l 146 351 l 281 354 z "},"5":{"ha":750,"x_min":57,"x_max":743,"o":"m 649 397 q 537 133 649 267 q 300 0 425 0 q 61 57 175 0 q 110 172 57 156 l 342 67 q 568 396 535 185 q 513 467 550 442 q 407 501 476 492 l 238 526 q 173 558 189 533 q 171 639 157 583 l 232 894 q 307 1011 256 992 l 374 989 l 694 1028 q 735 967 726 1001 q 725 911 743 932 l 368 921 l 231 600 l 383 593 q 583 538 518 585 q 649 397 649 492 z "},"6":{"ha":793,"x_min":94,"x_max":785,"o":"m 218 218 q 395 544 296 428 q 587 661 494 661 q 718 605 679 661 q 733 421 757 549 q 663 235 718 333 q 532 67 607 138 q 392 -4 457 -3 q 218 50 297 -7 q 107 267 131 114 q 113 454 94 346 q 242 788 143 651 q 474 981 342 924 q 757 1025 607 1038 q 749 918 785 990 q 410 865 536 931 q 317 737 346 782 q 255 610 288 692 q 203 419 222 528 q 218 218 189 300 m 542 571 q 370 388 453 508 q 250 151 288 267 q 390 81 300 76 q 528 193 449 85 q 626 388 608 301 q 633 517 650 464 q 542 571 615 571 z "},"7":{"ha":631,"x_min":74,"x_max":719,"o":"m 626 1017 q 668 878 719 975 l 176 3 q 90 14 139 -19 l 481 750 l 583 915 l 579 922 l 106 911 q 135 1028 74 949 l 561 994 l 626 1017 z "},"8":{"ha":738,"x_min":75,"x_max":739,"o":"m 739 799 q 719 732 739 758 q 687 692 700 706 q 646 658 674 679 q 599 624 618 638 q 540 585 581 611 q 476 542 500 558 q 609 425 563 482 q 653 298 656 368 q 613 168 650 228 q 522 70 575 108 q 406 11 468 32 q 292 -6 344 -10 q 134 57 193 -3 q 81 199 75 117 q 132 333 86 281 q 332 506 178 385 q 208 619 251 565 q 168 742 164 672 q 232 884 172 813 q 369 994 292 956 q 668 953 544 1083 q 739 799 739 878 m 574 256 q 540 333 571 293 q 477 397 508 372 q 385 467 446 422 q 167 246 242 344 q 224 108 165 150 q 418 79 283 67 q 574 256 518 144 m 421 579 q 639 763 532 660 q 468 967 626 932 q 343 882 407 938 q 249 768 279 826 q 296 676 253 718 q 421 579 339 633 z "},"9":{"ha":794,"x_min":89,"x_max":757,"o":"m 248 895 q 305 963 248 895 q 482 1031 361 1031 q 680 903 603 1031 q 728 552 757 775 q 578 197 699 329 q 210 -17 457 64 q 172 21 188 -4 q 156 72 157 46 q 532 239 390 126 q 633 565 613 386 q 615 783 646 692 q 442 472 539 583 q 261 360 344 360 q 133 424 178 360 q 108 600 89 488 q 248 895 135 760 m 300 450 q 466 625 386 511 q 585 851 546 739 q 469 942 542 924 q 316 815 403 925 q 211 604 229 706 q 205 530 207 564 q 226 473 203 496 q 300 450 250 450 z "},"\u0000":{"ha":0,"x_min":0,"x_max":0,"o":""},"\r":{"ha":600,"x_min":0,"x_max":0,"o":""}," ":{"ha":600,"x_min":0,"x_max":0,"o":""},"!":{"ha":396,"x_min":32,"x_max":418,"o":"m 222 72 q 160 18 199 40 q 94 -4 121 -4 q 50 12 67 -4 q 32 54 33 28 q 75 128 39 92 q 146 168 111 164 q 195 137 171 168 q 222 72 219 106 m 319 876 l 193 275 q 133 281 167 257 l 189 540 l 269 1194 q 353 1197 319 1204 q 418 1156 386 1189 l 319 876 z "},"\"":{"ha":421,"x_min":174,"x_max":496,"o":"m 354 935 l 415 1239 q 460 1252 438 1253 q 496 1239 483 1251 l 481 1133 l 408 919 q 354 935 369 915 m 174 935 l 236 1239 q 280 1252 257 1253 q 317 1239 303 1251 l 300 1133 l 228 919 q 174 935 192 915 z "},"#":{"ha":938,"x_min":50,"x_max":972,"o":"m 924 800 l 744 797 l 661 404 l 865 419 q 851 335 903 397 l 650 332 l 603 -29 q 483 -1 543 -49 l 560 331 l 333 328 l 288 -29 q 168 -1 228 -49 l 243 326 l 81 324 q 89 406 50 353 l 260 399 l 311 619 l 342 792 l 153 789 q 158 869 122 815 l 354 863 l 413 1199 q 549 1171 494 1213 l 446 858 l 538 856 l 668 865 l 728 1199 q 864 1171 810 1213 l 765 872 l 936 885 q 924 800 972 863 m 625 619 l 657 796 l 428 793 l 343 396 l 467 390 l 575 399 l 625 619 z "},"$":{"ha":785,"x_min":29,"x_max":749,"o":"m 533 933 l 513 876 l 460 560 q 633 442 565 497 q 731 322 701 388 q 622 126 714 208 q 365 7 531 43 l 335 -179 q 231 -128 264 -196 l 281 22 q 115 140 188 65 q 29 281 42 215 q 81 328 57 319 q 146 322 106 336 q 206 192 174 238 q 307 100 239 146 l 329 169 l 389 496 q 203 623 274 561 q 121 761 133 685 q 269 940 163 865 q 488 1031 376 1015 l 518 1196 q 617 1154 586 1218 l 561 1007 q 749 810 686 938 q 717 767 744 783 q 650 754 690 750 q 533 933 607 869 m 443 465 l 379 82 q 556 179 488 115 q 624 318 624 243 q 578 383 622 350 q 443 465 533 417 m 407 590 l 474 954 q 306 865 385 928 q 229 760 228 803 q 275 679 231 717 q 407 590 319 642 z "},"%":{"ha":913,"x_min":81,"x_max":874,"o":"m 451 524 l 767 1154 q 872 1124 847 1164 l 175 -111 q 81 -86 108 -124 l 451 524 m 714 508 q 604 279 635 451 q 593 99 585 172 q 649 42 604 60 q 757 274 725 101 q 769 453 775 383 q 714 508 757 494 m 851 280 q 839 213 851 280 q 770 69 828 146 q 645 -7 713 -7 q 533 63 578 -7 q 510 271 488 133 q 592 481 533 399 q 718 563 650 564 q 830 488 786 561 q 851 280 874 414 m 308 957 q 200 728 231 900 q 188 547 181 624 q 243 490 199 510 q 353 721 321 550 q 364 901 372 835 q 308 957 351 944 m 446 728 q 434 661 446 728 q 365 518 422 594 q 240 442 308 442 q 128 511 172 442 q 106 713 83 581 q 187 929 128 846 q 314 1011 246 1013 q 426 936 382 1010 q 446 728 469 863 z "},"&":{"ha":838,"x_min":128,"x_max":778,"o":"m 386 19 q 444 15 425 29 l 446 -189 q 385 -211 407 -210 q 333 -193 363 -212 l 386 19 m 574 979 q 514 983 533 969 l 513 1188 q 575 1211 553 1210 q 625 1193 597 1213 l 574 979 m 571 903 q 684 873 633 903 q 764 799 735 843 q 674 729 764 744 l 589 843 q 410 796 482 840 q 278 678 338 751 q 343 610 306 635 q 446 567 381 586 q 558 596 488 575 q 586 506 607 568 q 380 453 458 489 q 246 333 301 417 q 308 240 261 279 q 417 185 354 201 q 693 349 606 242 q 756 336 735 360 q 767 276 778 313 q 414 113 625 164 q 224 194 299 135 q 128 318 150 254 q 227 451 172 410 q 374 522 282 493 q 228 584 288 540 q 158 678 169 628 q 345 846 238 789 q 571 903 453 903 z "},"'":{"ha":242,"x_min":174,"x_max":317,"o":"m 174 935 l 236 1239 q 280 1252 257 1253 q 317 1239 303 1251 l 300 1133 l 228 919 q 174 935 192 915 z "},"(":{"ha":692,"x_min":243,"x_max":746,"o":"m 556 992 q 431 749 483 897 q 368 447 379 600 q 386 188 357 293 q 507 -39 415 83 q 431 -69 472 -76 q 290 175 338 44 q 256 476 243 306 q 388 881 272 693 q 683 1178 504 1068 q 746 1136 728 1178 l 556 992 z "},")":{"ha":692,"x_min":8,"x_max":522,"o":"m 71 -71 q 8 -29 28 -71 l 200 115 q 324 360 272 211 q 383 631 375 508 q 369 919 399 815 q 247 1146 340 1024 q 324 1178 282 1182 q 500 631 522 939 q 366 226 482 414 q 71 -71 250 39 z "},"*":{"ha":490,"x_min":164,"x_max":576,"o":"m 408 1096 l 567 1114 q 558 1047 576 1081 l 408 1065 l 518 968 q 464 919 501 933 l 381 1044 l 379 889 q 313 889 346 876 l 349 1042 l 239 921 q 196 969 210 935 l 328 1065 l 172 1047 q 182 1114 164 1082 l 336 1096 l 222 1194 q 276 1242 244 1229 l 358 1121 l 360 1272 q 428 1272 394 1283 l 390 1119 l 501 1240 q 543 1193 532 1228 l 408 1096 z "},"+":{"ha":931,"x_min":96,"x_max":847,"o":"m 531 492 l 831 510 q 842 472 847 500 q 810 414 836 443 l 514 410 l 451 90 q 411 88 435 79 q 367 124 388 97 l 432 408 l 128 404 q 143 494 96 436 l 449 489 l 493 800 q 533 803 506 815 q 583 758 560 792 l 531 492 z "},",":{"ha":285,"x_min":-74,"x_max":186,"o":"m 186 58 q 101 -74 164 -10 q -26 -179 39 -139 q -74 -147 -61 -171 l 36 -36 l 36 143 q 134 144 92 171 q 186 58 176 117 z "},"-":{"ha":690,"x_min":51,"x_max":653,"o":"m 636 510 q 647 472 653 500 q 615 414 642 443 l 82 404 q 97 494 51 435 l 354 489 l 636 510 z "},".":{"ha":307,"x_min":-3,"x_max":186,"o":"m 186 76 q 128 23 165 46 q 65 0 92 0 q 19 17 38 0 q -3 58 1 33 q 32 132 0 96 q 99 172 64 168 q 151 141 124 172 q 186 76 179 110 z "},"/":{"ha":635,"x_min":-36,"x_max":756,"o":"m 335 524 l 650 1154 q 756 1124 731 1164 l 58 -111 q -36 -86 -8 -124 l 335 524 z "},":":{"ha":335,"x_min":25,"x_max":289,"o":"m 289 579 q 233 526 269 549 q 169 503 196 503 q 124 519 142 503 q 100 561 106 535 q 136 635 104 599 q 203 675 168 671 q 255 644 228 675 q 289 579 282 613 m 214 76 q 158 23 194 46 q 94 0 121 0 q 49 16 67 0 q 25 58 31 32 q 61 132 29 96 q 128 172 93 168 q 180 141 153 172 q 214 76 207 110 z "},";":{"ha":324,"x_min":-58,"x_max":289,"o":"m 201 58 q 117 -74 179 -10 q -12 -179 54 -139 q -58 -147 -47 -171 l 51 -36 l 51 143 q 149 144 107 171 q 201 58 192 117 m 289 579 q 233 526 269 549 q 169 503 196 503 q 124 519 142 503 q 100 561 106 535 q 136 635 104 599 q 203 675 168 671 q 255 644 228 675 q 289 579 282 613 z "},"<":{"ha":824,"x_min":85,"x_max":771,"o":"m 468 613 l 190 486 l 704 208 q 685 163 701 183 q 643 136 668 143 l 375 299 l 97 442 q 114 538 85 490 l 735 818 q 765 772 758 801 q 757 717 771 742 l 468 613 z "},"=":{"ha":875,"x_min":50,"x_max":844,"o":"m 785 393 q 796 355 801 383 q 764 297 790 326 l 81 286 q 96 378 50 317 l 443 372 l 785 393 m 828 660 q 839 622 844 650 q 807 564 833 593 l 125 554 q 139 644 93 586 l 486 639 l 828 660 z "},">":{"ha":824,"x_min":88,"x_max":775,"o":"m 156 746 q 175 790 158 769 q 217 818 192 811 l 763 513 q 746 417 775 464 l 419 275 l 125 136 q 94 182 101 151 q 101 238 88 213 l 671 468 l 399 629 l 156 746 z "},"?":{"ha":900,"x_min":161,"x_max":908,"o":"m 351 72 q 289 18 328 40 q 223 -4 250 -4 q 180 12 196 -4 q 161 54 164 28 q 204 128 168 92 q 275 168 240 164 q 324 137 300 168 q 351 72 349 106 m 342 821 q 299 808 314 808 q 268 833 285 808 q 241 901 251 857 q 239 989 231 946 q 480 1128 356 1079 q 713 1178 604 1178 q 865 1097 821 1178 q 865 894 908 1017 q 694 694 822 771 q 357 568 565 618 l 299 231 q 257 228 267 222 q 247 258 247 235 l 250 556 q 331 650 268 613 q 788 933 713 725 q 746 1103 819 1035 q 324 946 526 1094 l 342 821 z "},"@":{"ha":1250,"x_min":32,"x_max":1226,"o":"m 746 226 l 564 18 q 400 81 457 19 q 342 251 343 142 q 392 478 340 360 q 529 674 443 597 q 704 750 615 750 q 842 615 786 714 l 843 621 q 865 758 847 713 q 948 751 921 760 q 997 714 975 742 l 892 507 q 828 110 874 396 q 1039 268 951 174 q 1156 474 1126 363 q 1060 781 1139 671 q 789 964 981 890 q 324 753 513 942 q 136 324 136 564 q 172 139 136 222 q 272 -3 208 56 q 558 -158 394 -114 q 786 -15 700 -106 q 836 -28 824 -14 q 849 -76 849 -43 q 564 -225 772 -164 q 182 -31 332 -179 q 32 338 32 118 q 140 677 32 517 q 416 931 249 838 q 758 1024 583 1024 q 999 948 890 1024 q 1167 753 1108 872 q 1226 495 1226 635 q 1101 226 1226 356 q 804 44 975 97 q 753 125 763 86 q 761 214 744 164 l 746 226 m 447 251 q 525 100 447 146 q 769 336 651 225 l 817 540 q 769 617 794 588 q 699 676 744 646 q 514 513 581 628 q 447 251 447 399 z "},"A":{"ha":788,"x_min":-15,"x_max":782,"o":"m 624 471 l 765 500 q 780 460 782 489 q 756 401 778 432 l 629 394 l 658 0 q 539 35 574 -10 l 538 389 l 351 379 l 268 367 l 100 0 q -15 33 10 -8 l 154 350 l 44 333 q 54 431 8 381 l 200 438 l 292 608 l 450 986 q 622 1006 526 1035 l 601 764 l 624 471 m 303 443 l 538 454 l 522 897 l 510 894 l 303 443 z "},"B":{"ha":813,"x_min":90,"x_max":772,"o":"m 751 331 q 640 57 751 179 q 204 0 446 -12 q 123 38 150 15 q 90 97 96 61 q 207 604 167 383 l 256 919 l 206 908 q 172 956 176 928 q 182 1000 167 983 q 394 1021 281 1021 q 671 945 569 1021 q 772 769 772 869 q 733 618 771 669 q 597 511 694 567 l 596 501 q 729 431 667 481 q 751 331 751 385 m 218 76 q 558 119 428 74 q 639 324 638 211 q 629 392 639 361 q 492 465 567 447 q 282 468 417 482 l 218 76 m 657 758 q 578 894 657 842 q 357 935 500 947 l 288 538 q 568 583 460 535 q 590 602 574 589 q 610 619 607 615 q 624 633 613 622 q 637 649 635 643 q 645 667 639 656 q 652 691 651 679 q 655 720 653 703 q 657 758 657 738 z "},"C":{"ha":806,"x_min":58,"x_max":783,"o":"m 557 942 q 278 753 396 901 q 161 452 161 604 q 221 217 161 300 q 411 86 281 135 q 555 167 483 117 q 664 263 626 217 q 715 250 696 271 q 731 204 733 229 q 603 96 692 154 q 426 0 515 38 q 146 162 231 51 q 58 442 61 272 q 150 743 58 575 q 599 1033 349 992 q 728 928 679 1003 q 783 774 778 853 q 650 744 715 721 q 578 943 638 876 l 557 942 z "},"D":{"ha":858,"x_min":69,"x_max":840,"o":"m 396 1021 q 717 896 600 1021 q 838 574 833 771 q 763 277 840 411 q 529 57 685 143 q 186 0 364 1 q 69 86 93 25 q 221 693 175 436 l 224 919 l 174 908 q 140 956 144 928 q 150 1000 135 983 q 396 1021 249 1021 m 263 493 l 208 99 q 496 128 379 99 q 672 319 618 215 q 724 558 726 424 q 623 834 719 729 q 357 925 526 939 q 263 493 278 571 z "},"E":{"ha":690,"x_min":57,"x_max":758,"o":"m 286 540 q 586 567 569 564 q 594 515 599 549 q 571 451 590 482 q 274 461 371 465 l 176 93 q 563 157 350 115 q 590 108 592 143 q 568 40 589 74 l 164 0 q 57 92 58 29 q 225 683 175 401 l 251 907 q 188 922 232 919 q 188 993 163 968 q 731 1011 413 1015 q 746 938 758 990 q 696 854 733 885 l 608 911 q 367 918 483 931 l 326 767 l 286 540 z "},"F":{"ha":694,"x_min":94,"x_max":758,"o":"m 367 919 l 326 768 l 293 517 q 440 528 332 521 q 594 543 547 536 q 601 492 606 526 q 576 428 596 457 q 278 436 375 442 q 225 4 247 222 q 157 4 199 -6 q 94 39 115 14 q 240 719 161 290 l 251 908 q 188 924 232 921 q 188 994 163 969 q 731 1013 413 1017 q 746 939 758 992 q 696 856 733 886 l 608 913 q 367 919 483 932 z "},"G":{"ha":856,"x_min":75,"x_max":801,"o":"m 286 164 q 429 86 336 128 q 692 431 604 239 l 686 438 l 456 399 q 429 458 431 429 q 453 508 428 488 q 768 508 601 482 q 793 419 789 467 q 779 294 797 372 q 747 168 761 215 q 692 0 732 121 q 599 36 621 -6 q 721 343 699 240 l 710 346 q 444 0 622 124 q 162 158 244 60 q 76 424 79 257 q 168 725 75 556 q 617 1031 326 982 q 747 925 697 1000 q 801 771 796 850 q 668 742 733 718 q 596 940 656 871 l 575 939 q 296 748 413 899 q 179 420 179 597 q 286 164 179 243 z "},"H":{"ha":929,"x_min":61,"x_max":899,"o":"m 242 986 q 330 1021 299 1021 q 388 1008 361 1021 l 283 557 l 281 533 l 519 542 l 690 569 q 711 690 703 638 l 732 986 q 820 1021 789 1021 q 878 1008 851 1021 l 779 583 l 882 600 q 896 560 899 589 q 869 503 893 532 l 767 494 q 738 265 760 432 q 706 0 715 97 q 574 43 604 -10 q 676 488 657 390 l 288 458 l 272 456 q 214 0 217 22 q 82 43 115 -10 q 175 442 154 339 l 94 429 q 108 526 61 476 l 193 529 q 221 690 206 594 l 242 986 z "},"I":{"ha":313,"x_min":32,"x_max":336,"o":"m 190 986 q 278 1021 247 1021 q 336 1008 308 1021 l 232 557 q 200 297 225 486 q 164 0 175 107 q 32 43 63 -10 q 169 690 133 460 l 190 986 z "},"J":{"ha":739,"x_min":39,"x_max":853,"o":"m 428 933 l 185 913 q 172 993 143 954 q 838 1001 544 1013 q 847 965 853 990 q 817 917 842 940 l 560 933 l 467 540 q 440 324 460 476 q 410 83 419 172 q 344 22 392 43 q 244 0 296 0 q 105 122 160 49 q 39 263 50 196 q 92 313 63 300 q 150 311 122 326 q 269 83 163 182 l 289 93 q 415 701 386 531 l 428 933 z "},"K":{"ha":817,"x_min":51,"x_max":822,"o":"m 210 986 q 297 1021 267 1021 q 356 1008 328 1021 l 251 557 l 250 544 l 436 672 l 744 1021 q 797 1000 781 1015 q 822 954 814 985 q 601 737 749 867 q 328 528 453 607 q 715 106 451 214 q 653 0 742 33 q 440 198 539 63 q 271 500 340 333 l 243 478 q 215 268 238 435 q 183 0 193 101 q 51 43 82 -10 q 189 690 153 460 l 210 986 z "},"L":{"ha":619,"x_min":17,"x_max":565,"o":"m 190 986 q 268 1021 238 1015 q 336 1008 299 1026 l 228 519 l 136 89 q 538 154 308 110 q 564 106 565 139 q 543 43 563 74 l 124 0 q 17 88 18 26 q 172 690 99 304 l 190 986 z "},"M":{"ha":950,"x_min":18,"x_max":989,"o":"m 858 1004 q 937 1021 906 1021 q 989 1008 968 1021 l 885 557 q 853 301 878 490 q 817 0 828 113 q 683 43 717 -10 q 822 690 771 394 l 824 774 l 540 286 q 471 283 494 278 q 413 313 447 288 q 261 771 307 503 l 219 557 q 187 301 213 490 q 150 0 161 113 q 18 43 49 -10 q 156 690 119 460 l 176 1000 q 256 1019 214 1019 q 314 999 297 1019 q 351 718 324 869 q 414 472 379 567 l 492 364 l 696 686 l 858 1004 z "},"N":{"ha":869,"x_min":8,"x_max":915,"o":"m 769 986 q 858 1021 826 1021 q 915 1008 889 1021 l 807 557 q 773 303 800 493 q 733 0 746 114 q 603 33 647 -7 q 276 849 432 363 l 214 557 q 181 298 207 488 q 142 0 154 108 q 8 43 42 -10 q 106 442 81 324 q 153 690 131 561 l 176 986 q 265 1021 236 1021 q 322 1008 294 1021 q 557 326 421 658 l 643 175 q 668 288 651 214 q 694 408 685 363 q 746 690 724 549 l 769 986 z "},"O":{"ha":843,"x_min":72,"x_max":815,"o":"m 715 499 q 658 763 697 653 q 540 950 618 874 q 279 736 378 874 q 181 436 181 599 q 233 220 182 322 q 378 72 283 118 q 589 251 513 150 q 715 499 665 353 m 549 1021 q 672 943 610 1021 q 773 744 733 865 q 814 504 813 624 q 740 296 815 417 q 561 88 665 175 q 381 0 457 0 q 231 69 304 0 q 116 234 157 139 q 74 413 75 329 q 144 703 72 560 q 327 933 215 846 q 549 1021 439 1021 z "},"P":{"ha":739,"x_min":86,"x_max":758,"o":"m 392 1021 q 659 943 567 1021 q 753 758 751 865 q 558 433 758 542 q 265 375 410 382 q 218 4 251 238 q 149 3 192 -6 q 86 35 107 13 q 207 624 136 218 l 243 926 l 176 919 q 165 969 161 946 q 185 1000 168 993 q 392 1021 275 1021 m 360 935 l 281 565 q 271 439 275 483 q 521 506 428 461 q 617 606 582 542 q 651 743 653 669 q 577 893 649 840 q 360 935 506 946 z "},"Q":{"ha":875,"x_min":72,"x_max":815,"o":"m 382 0 q 231 69 304 0 q 116 234 157 139 q 74 413 75 329 q 144 703 72 560 q 327 933 215 846 q 549 1021 439 1021 q 672 943 610 1021 q 773 744 733 865 q 814 507 813 624 q 697 233 815 390 q 457 19 578 75 l 503 -58 l 632 -137 q 533 -224 643 -204 l 393 0 l 382 0 m 378 72 q 589 251 513 150 q 715 499 665 353 q 658 763 697 653 q 540 950 618 874 q 279 736 378 874 q 181 436 181 599 q 233 220 182 322 q 378 72 283 118 z "},"R":{"ha":789,"x_min":76,"x_max":738,"o":"m 389 1024 q 649 952 561 1024 q 738 778 738 881 q 685 606 738 676 q 517 472 633 536 q 335 456 407 458 q 456 241 382 319 q 669 101 529 163 q 662 42 683 71 q 593 0 640 14 q 388 201 464 82 q 289 454 313 321 l 268 453 q 208 4 251 265 q 140 3 182 -6 q 76 35 99 13 q 138 280 119 190 q 164 406 156 369 q 204 632 181 489 l 244 925 l 174 921 q 161 971 158 947 q 182 1001 164 994 q 389 1024 278 1024 m 278 574 q 274 513 278 546 q 492 544 388 517 q 594 642 565 593 q 624 772 624 692 q 558 901 624 851 q 361 940 493 950 l 278 574 z "},"S":{"ha":785,"x_min":29,"x_max":749,"o":"m 731 322 q 614 118 713 203 q 335 0 515 33 q 136 119 228 33 q 29 281 44 206 q 81 328 57 319 q 146 322 106 336 q 216 178 176 226 q 349 74 256 131 q 546 170 468 103 q 624 318 624 238 q 456 461 621 369 q 313 541 385 499 q 185 642 240 583 q 121 761 131 700 q 279 947 165 871 q 508 1033 393 1024 q 749 810 674 964 q 717 767 744 783 q 650 754 690 750 q 585 879 619 835 q 499 961 550 924 q 317 874 406 940 q 230 760 228 807 q 299 661 232 713 q 449 566 365 610 q 617 456 532 522 q 731 322 701 389 z "},"T":{"ha":746,"x_min":113,"x_max":853,"o":"m 404 931 l 154 913 q 143 993 113 954 q 838 1007 446 1013 q 847 970 853 996 q 817 921 842 944 l 538 938 l 447 540 q 415 272 438 456 q 382 0 392 89 q 250 42 283 -10 q 394 701 343 400 l 404 931 z "},"U":{"ha":792,"x_min":64,"x_max":838,"o":"m 344 0 q 151 75 224 0 q 64 231 78 150 q 91 387 69 265 q 119 549 113 508 q 139 678 125 589 q 175 986 160 810 q 263 1021 232 1021 q 321 1008 294 1021 q 175 242 175 521 q 218 140 175 186 q 330 79 261 93 q 483 106 399 65 q 611 324 569 190 q 692 690 653 457 l 692 986 q 780 1021 749 1021 q 838 1008 811 1021 q 791 770 819 929 q 742 513 763 611 q 703 343 722 414 q 651 201 683 272 q 581 90 619 131 q 344 0 492 0 z "},"V":{"ha":744,"x_min":150,"x_max":821,"o":"m 672 767 l 654 981 q 811 981 756 1024 q 758 739 821 874 q 617 488 714 657 q 468 224 519 319 l 389 4 q 246 31 300 -18 l 150 979 q 214 1002 178 997 q 274 990 250 1007 l 300 343 l 336 93 l 672 767 z "},"W":{"ha":1099,"x_min":151,"x_max":1185,"o":"m 1036 771 l 1018 989 q 1176 989 1121 1029 q 1124 744 1185 872 l 878 228 l 813 6 q 738 1 782 -6 q 667 31 693 7 l 618 479 l 483 224 l 397 4 q 256 31 310 -18 l 151 988 q 214 1010 178 1006 q 275 997 250 1014 l 306 343 l 340 118 l 603 607 l 574 889 q 694 914 635 939 l 713 378 l 756 96 l 1036 771 z "},"X":{"ha":826,"x_min":13,"x_max":878,"o":"m 454 560 l 781 1019 q 842 1003 819 1022 q 878 939 865 985 q 474 510 749 817 q 746 96 628 197 q 721 35 749 61 q 643 0 693 8 q 519 203 586 65 q 428 447 453 342 l 106 0 q 33 31 54 8 q 13 89 13 53 q 415 510 114 175 q 129 914 290 772 q 219 1018 121 1000 q 361 818 299 942 q 454 560 424 694 z "},"Y":{"ha":788,"x_min":161,"x_max":839,"o":"m 161 990 q 220 1019 185 1011 q 281 1011 256 1026 l 331 775 l 450 469 l 454 469 l 483 524 l 711 831 l 664 996 q 769 1020 733 1022 q 839 992 804 1018 q 776 803 839 881 q 504 454 624 604 q 443 0 460 315 q 381 -3 422 -10 q 311 26 340 4 q 394 421 364 175 q 161 990 338 583 z "},"Z":{"ha":793,"x_min":4,"x_max":813,"o":"m 125 57 l 118 50 l 129 26 q 24 0 106 -7 q 5 67 4 33 q 58 163 6 101 q 194 309 111 225 q 365 486 276 393 q 538 692 453 579 q 669 901 624 804 l 660 913 q 264 931 361 910 q 219 792 224 876 q 101 824 126 775 q 239 1021 135 975 q 451 985 311 999 q 686 975 590 972 l 713 1033 q 779 1022 760 1032 q 813 990 799 1013 q 662 715 788 890 q 397 388 536 540 q 147 133 258 235 l 154 121 q 594 106 504 121 q 632 211 621 156 q 751 175 728 232 q 614 0 726 81 q 387 45 543 29 q 125 57 231 61 z "},"[":{"ha":701,"x_min":150,"x_max":742,"o":"m 579 1093 l 489 1088 l 424 868 l 322 338 l 274 7 l 518 43 q 499 -26 536 14 l 218 -82 q 150 -14 164 -54 l 292 578 l 388 1167 l 736 1175 q 736 1136 742 1153 q 711 1085 731 1119 l 579 1093 z "},"\\":{"ha":635,"x_min":89,"x_max":567,"o":"m 89 1165 q 123 1209 96 1194 q 171 1214 150 1224 l 353 503 l 567 -153 q 476 -164 532 -190 l 89 1165 z "},"]":{"ha":738,"x_min":21,"x_max":649,"o":"m 472 329 l 451 -25 l 57 -86 q 49 21 21 -29 l 340 26 l 438 578 l 539 1093 l 276 1086 q 252 1135 257 1110 q 260 1175 247 1161 l 606 1156 q 649 1061 643 1122 l 472 329 z "},"^":{"ha":615,"x_min":74,"x_max":613,"o":"m 74 576 l 364 1036 q 463 1025 429 1051 l 613 568 q 560 547 590 549 q 517 558 529 546 l 386 974 l 119 547 q 74 576 82 543 z "},"_":{"ha":869,"x_min":-19,"x_max":715,"o":"m 699 -71 q 710 -108 715 -79 q 678 -167 704 -137 l -4 -176 q -15 -137 -19 -162 q 11 -86 -11 -112 l 357 -92 l 699 -71 z "},"`":{"ha":315,"x_min":143,"x_max":381,"o":"m 268 1093 l 381 833 q 333 814 374 810 l 263 915 l 143 1038 q 188 1088 153 1074 q 268 1093 222 1103 z "},"a":{"ha":696,"x_min":40,"x_max":697,"o":"m 446 226 l 264 18 q 100 81 157 19 q 42 251 43 142 q 92 478 40 360 q 229 674 143 597 q 404 750 315 750 q 542 615 486 714 l 543 619 q 565 758 547 711 q 697 714 664 758 l 593 510 q 540 0 568 349 q 399 40 446 -11 l 461 214 l 446 226 m 147 251 q 225 100 147 146 q 469 336 351 225 l 517 540 q 469 617 494 588 q 399 676 444 646 q 214 513 281 628 q 147 251 147 399 z "},"b":{"ha":682,"x_min":51,"x_max":657,"o":"m 201 546 l 218 528 q 419 750 307 644 q 581 642 532 710 q 657 453 629 575 q 487 157 614 276 q 165 0 360 38 q 51 107 58 38 q 183 750 121 396 l 208 1093 q 287 1128 257 1122 q 354 1117 317 1133 l 275 800 l 242 621 l 201 546 m 153 82 q 428 219 322 115 q 558 456 533 322 q 515 578 546 533 q 419 651 483 624 q 217 429 299 536 q 153 82 179 194 z "},"c":{"ha":671,"x_min":46,"x_max":614,"o":"m 425 750 q 556 675 503 738 q 614 539 608 613 q 553 511 588 517 q 496 519 518 506 q 476 612 493 579 q 418 676 458 644 l 393 674 q 230 535 296 626 q 161 367 164 444 q 188 188 154 256 q 321 79 222 119 q 452 137 386 101 q 551 207 518 172 q 589 194 581 208 q 594 150 597 179 q 465 58 554 106 q 307 0 375 11 q 108 128 171 35 q 53 343 46 222 q 79 475 57 413 q 227 649 138 571 q 425 750 317 726 z "},"d":{"ha":642,"x_min":40,"x_max":719,"o":"m 447 228 l 264 18 q 100 81 157 19 q 42 251 43 142 q 92 478 40 360 q 229 674 143 597 q 399 750 315 750 q 538 631 482 750 q 563 750 554 708 l 569 1093 q 652 1128 622 1122 q 719 1117 682 1133 l 639 806 q 519 0 585 399 q 400 33 428 -8 l 463 214 l 447 228 m 147 251 q 225 100 147 146 q 469 336 351 225 l 517 540 q 460 634 486 604 q 406 683 435 664 q 217 516 286 635 q 147 251 147 397 z "},"e":{"ha":668,"x_min":42,"x_max":604,"o":"m 382 761 q 554 645 504 729 q 594 446 604 561 q 150 290 361 335 q 197 162 158 213 q 319 81 236 111 q 540 201 469 135 q 576 189 568 201 q 582 143 585 176 q 467 60 554 106 q 315 0 379 14 q 110 123 178 31 q 44 344 42 215 q 71 482 46 400 q 382 761 190 683 m 146 371 l 146 360 q 499 483 321 404 q 477 608 499 563 q 392 686 456 654 l 372 682 q 215 543 281 638 q 146 371 149 449 z "},"f":{"ha":481,"x_min":-39,"x_max":599,"o":"m 507 699 q 525 659 525 688 q 504 601 525 631 l 254 588 q 169 0 218 281 q 51 33 79 -8 q 175 574 126 276 l -1 540 q 1 638 -39 588 l 185 639 l 186 649 l 183 992 q 288 1089 239 1056 q 407 1131 338 1122 q 539 1056 485 1118 q 599 919 593 993 q 539 892 572 899 q 483 900 506 886 q 460 992 478 960 q 401 1057 442 1025 q 285 997 342 1043 q 261 650 286 888 l 507 699 z "},"g":{"ha":658,"x_min":40,"x_max":696,"o":"m 446 226 l 264 18 q 100 81 157 19 q 42 251 43 142 q 92 478 40 360 q 229 674 143 597 q 400 750 315 750 q 543 619 485 750 q 565 758 547 711 q 696 714 664 758 l 581 467 q 522 171 549 338 q 475 -132 496 4 q 446 -318 454 -268 q 373 -359 426 -342 q 275 -375 319 -376 q 123 -255 179 -328 q 57 -112 67 -182 q 113 -61 82 -75 q 169 -64 143 -47 q 297 -292 181 -201 q 335 -282 317 -293 q 410 69 374 -149 l 461 214 l 446 226 m 147 251 q 225 100 147 146 q 469 336 351 225 l 517 540 q 460 634 486 604 q 406 683 435 664 q 217 516 286 635 q 147 251 147 397 z "},"h":{"ha":704,"x_min":36,"x_max":667,"o":"m 213 551 l 228 532 q 489 750 344 692 q 610 692 564 743 q 667 579 656 640 l 617 456 q 578 0 590 246 q 454 35 492 -10 q 549 574 490 267 q 490 651 542 631 q 228 429 356 593 q 154 0 192 197 q 36 33 64 -8 q 196 750 113 294 l 211 1093 q 290 1128 261 1122 q 357 1117 319 1133 l 279 796 l 260 614 l 213 551 z "},"i":{"ha":315,"x_min":50,"x_max":311,"o":"m 157 511 l 153 728 q 244 750 215 754 q 289 728 274 746 l 238 547 q 182 0 214 346 q 50 43 81 -10 q 157 511 96 200 m 309 887 q 310 871 309 887 q 290 834 311 856 q 238 813 269 813 q 183 834 206 813 q 159 887 161 856 q 178 939 157 918 q 232 960 200 960 q 285 939 264 960 q 309 887 307 918 z "},"j":{"ha":363,"x_min":-176,"x_max":431,"o":"m -67 -64 q 57 -292 -50 -197 l 75 -282 q 118 22 86 -208 q 257 758 179 463 q 389 714 354 758 l 271 444 q 189 -303 219 138 q 129 -355 176 -335 q 32 -375 82 -375 q -110 -253 -54 -326 q -176 -112 -165 -179 q -124 -61 -154 -75 q -67 -64 -93 -47 m 429 885 q 430 870 429 885 q 410 836 431 856 q 362 817 390 817 q 313 836 333 817 q 290 885 292 856 q 308 934 288 914 q 357 954 328 954 q 407 934 386 954 q 429 885 428 914 z "},"k":{"ha":675,"x_min":4,"x_max":619,"o":"m 176 506 l 182 494 q 563 750 360 644 q 608 715 596 744 q 604 653 619 686 q 210 435 347 550 q 593 93 324 215 q 589 42 607 68 q 529 0 571 17 q 344 141 438 53 q 182 329 250 229 q 124 0 156 190 q 4 33 32 -8 q 168 822 93 335 l 154 1086 q 289 1126 208 1136 q 211 554 288 1013 l 176 506 z "},"l":{"ha":340,"x_min":56,"x_max":361,"o":"m 200 750 l 217 1093 q 295 1128 265 1122 q 361 1117 325 1133 l 281 806 q 188 0 246 496 q 56 43 86 -10 q 200 750 150 413 z "},"m":{"ha":1031,"x_min":26,"x_max":993,"o":"m 539 0 q 415 35 453 -10 q 525 581 468 350 q 451 658 501 638 q 344 577 393 628 q 218 431 294 526 q 146 0 176 163 q 26 33 57 -8 q 149 517 104 292 l 119 715 q 257 758 178 769 q 242 607 264 725 l 204 539 l 217 529 q 238 557 218 533 q 274 599 258 581 q 295 624 289 618 q 317 647 301 631 q 341 670 332 663 q 365 691 350 678 q 393 713 381 704 q 456 750 431 738 q 560 708 517 740 q 622 638 604 676 l 586 575 l 599 567 q 817 750 703 690 q 944 687 899 735 q 993 579 989 639 l 943 456 q 904 0 917 225 q 782 35 819 -10 q 876 574 811 226 q 818 651 868 628 q 599 479 713 613 q 539 0 553 342 z "},"n":{"ha":694,"x_min":26,"x_max":657,"o":"m 204 539 l 217 531 q 481 750 333 689 q 601 692 556 743 q 657 579 646 640 l 607 456 q 568 0 581 225 q 446 35 483 -10 q 540 574 475 226 q 482 651 532 631 q 218 429 349 593 q 146 0 188 232 q 26 33 57 -8 q 149 517 104 292 l 119 715 q 257 758 178 769 q 242 607 264 725 l 204 539 z "},"o":{"ha":672,"x_min":39,"x_max":628,"o":"m 39 319 q 97 517 39 410 q 240 696 156 624 q 393 768 324 768 q 543 639 463 768 q 626 419 624 510 q 567 231 628 329 q 420 67 507 133 q 264 0 333 0 q 117 97 194 0 q 39 319 39 194 m 382 690 q 214 544 271 628 q 132 346 157 460 q 168 188 138 253 q 263 68 199 122 q 451 201 386 121 q 539 404 515 282 q 485 557 526 478 q 382 690 443 636 z "},"p":{"ha":682,"x_min":-31,"x_max":668,"o":"m 204 539 l 218 529 q 418 750 300 640 q 598 632 542 711 q 668 429 654 553 q 547 191 638 293 q 296 0 457 89 q 164 60 226 15 q 89 -374 132 -189 q -31 -340 0 -382 q 149 517 76 71 l 119 715 q 257 758 178 769 q 242 607 264 725 l 204 539 m 288 81 q 568 432 503 207 q 418 651 554 597 q 217 431 293 532 q 176 144 201 333 q 288 81 219 101 z "},"q":{"ha":671,"x_min":39,"x_max":689,"o":"m 450 233 l 263 18 q 99 81 156 19 q 40 251 42 142 q 90 478 39 360 q 227 674 142 597 q 401 750 313 750 q 535 635 478 750 q 557 758 540 718 q 689 714 654 758 l 583 510 q 515 139 556 368 q 449 -219 475 -90 l 456 -226 q 617 -67 593 -89 q 656 -99 651 -60 q 551 -233 626 -140 q 442 -375 476 -326 q 324 -296 324 -360 q 358 -158 328 -276 q 450 233 419 88 m 146 251 q 224 100 146 146 q 467 335 349 222 l 515 540 l 514 540 q 459 634 485 604 q 404 683 433 664 q 215 516 285 635 q 146 251 146 397 z "},"r":{"ha":531,"x_min":35,"x_max":539,"o":"m 211 539 l 228 528 q 410 750 304 628 q 503 695 467 742 q 539 586 539 649 q 414 563 468 533 q 388 639 418 626 q 228 442 319 561 q 153 0 190 194 q 35 33 63 -8 q 156 517 118 321 l 128 715 q 189 756 158 746 q 264 758 219 765 q 249 607 271 725 l 211 539 z "},"s":{"ha":644,"x_min":26,"x_max":582,"o":"m 461 238 q 292 353 461 281 q 167 426 228 381 q 93 521 107 471 q 204 690 110 621 q 415 768 299 760 q 524 695 482 739 q 582 575 567 651 q 549 542 578 553 q 471 542 521 532 q 406 704 467 625 q 267 631 332 683 q 203 542 203 578 q 369 426 203 503 q 494 347 433 397 q 568 239 554 296 q 458 68 544 131 q 233 0 371 6 q 97 85 157 22 q 26 208 36 147 q 74 258 51 246 q 132 263 97 269 q 244 61 157 132 q 404 133 347 82 q 461 238 461 185 z "},"t":{"ha":517,"x_min":18,"x_max":553,"o":"m 531 683 l 304 676 q 272 390 294 583 q 238 93 249 196 q 417 174 346 124 q 457 163 449 175 q 463 121 465 150 q 344 48 418 82 q 203 0 269 14 q 106 72 118 18 q 231 664 207 533 l 56 631 q 58 728 18 678 l 239 729 l 238 929 q 376 943 319 986 l 313 739 l 533 782 q 552 742 553 771 q 531 683 551 714 z "},"u":{"ha":696,"x_min":39,"x_max":696,"o":"m 471 328 l 471 331 q 564 758 517 578 q 696 714 663 758 l 592 510 q 543 0 561 311 q 419 35 458 -10 l 488 217 l 471 231 q 265 0 388 122 q 39 131 75 26 l 110 371 q 128 758 131 607 q 197 755 171 764 q 257 715 224 746 q 153 154 235 518 q 250 88 171 111 q 471 328 389 213 z "},"v":{"ha":611,"x_min":31,"x_max":638,"o":"m 493 718 q 638 721 592 775 q 288 0 557 296 q 198 17 239 0 q 149 67 157 35 q 174 328 174 239 q 146 531 175 417 l 31 674 q 72 732 39 711 q 151 750 106 753 q 258 100 296 554 l 269 93 q 526 564 474 350 l 493 718 z "},"w":{"ha":940,"x_min":31,"x_max":969,"o":"m 613 97 l 622 93 q 863 571 788 285 l 825 725 q 969 732 921 785 q 649 0 917 315 q 558 17 600 -3 q 508 67 517 36 q 533 432 549 267 l 525 435 q 269 0 461 246 q 180 17 221 0 q 131 67 139 35 q 160 324 157 228 q 146 531 164 419 l 31 674 q 72 732 39 711 q 151 750 106 753 q 240 100 289 543 l 251 97 q 496 551 397 293 l 411 682 q 459 736 424 718 q 539 747 494 754 q 624 437 608 579 q 613 97 640 294 z "},"x":{"ha":721,"x_min":8,"x_max":693,"o":"m 375 443 l 594 750 q 657 733 635 751 q 693 669 679 715 q 492 489 593 599 q 392 376 460 453 q 608 115 465 201 q 594 46 618 76 q 524 0 571 15 q 347 321 379 122 l 106 0 q 8 89 17 15 q 332 388 140 190 q 117 629 246 564 q 204 750 113 717 q 375 443 342 639 z "},"y":{"ha":653,"x_min":33,"x_max":690,"o":"m 464 331 q 560 758 521 650 q 690 714 658 758 l 575 482 q 497 38 542 325 q 442 -311 451 -250 q 362 -361 418 -344 q 250 -375 306 -378 q 99 -253 156 -326 q 33 -112 43 -181 q 88 -61 57 -75 q 146 -64 119 -47 q 274 -292 157 -204 q 329 -282 313 -297 q 414 106 378 -126 l 468 204 l 451 219 q 294 64 415 175 q 113 122 169 85 q 40 213 56 158 l 108 411 q 120 594 117 481 q 119 758 124 707 q 190 755 163 764 q 249 715 217 746 q 213 495 229 578 q 151 238 196 413 q 192 182 167 201 q 276 146 218 163 q 464 331 407 244 z "},"z":{"ha":700,"x_min":17,"x_max":672,"o":"m 158 121 l 285 121 q 483 104 390 121 q 518 211 513 161 q 622 171 617 232 q 494 0 600 68 q 319 49 425 36 q 132 57 213 63 l 126 50 l 136 26 q 33 0 117 -7 q 17 71 17 32 q 53 151 17 110 q 149 239 89 192 q 274 338 208 286 q 412 465 340 390 q 529 618 483 540 l 521 629 q 236 661 393 626 q 196 521 196 601 q 88 551 114 501 q 218 750 114 704 q 544 692 415 689 l 568 750 q 638 736 617 747 q 672 700 658 725 q 486 428 664 597 q 255 219 349 297 q 151 133 161 142 l 158 121 z "},"{":{"ha":900,"x_min":169,"x_max":753,"o":"m 550 1189 q 753 1093 638 1189 q 710 1033 750 1049 l 547 1126 l 488 1092 q 531 763 578 908 q 445 635 507 685 q 301 579 383 586 l 299 563 q 442 318 443 467 q 271 3 438 150 l 314 -53 l 504 -14 q 531 -82 546 -44 q 324 -125 411 -119 q 169 42 210 -89 q 339 329 335 144 q 299 456 340 400 q 200 538 258 511 l 231 646 q 374 715 310 646 q 445 883 438 783 q 376 1096 453 983 q 456 1163 407 1136 q 550 1189 504 1189 z "},"|":{"ha":297,"x_min":-21,"x_max":389,"o":"m 243 1321 q 330 1357 299 1357 q 389 1344 361 1357 l 210 557 q 163 172 203 490 q 111 -258 122 -146 q -21 -214 10 -268 q 147 690 50 75 l 243 1321 z "},"}":{"ha":901,"x_min":169,"x_max":753,"o":"m 583 743 q 623 616 582 672 q 724 533 664 560 l 692 425 q 550 356 614 425 q 478 188 486 288 q 546 -25 471 88 q 372 -125 492 -110 q 169 -22 282 -97 q 213 38 172 25 l 375 -56 l 435 -21 q 392 308 344 163 q 478 436 417 386 q 621 492 540 486 l 624 508 q 482 753 481 603 q 651 1068 483 921 l 608 1124 l 418 1085 q 392 1154 376 1115 q 583 1196 488 1193 q 687 1149 643 1197 q 753 1029 731 1101 q 583 743 588 926 z "},"~":{"ha":900,"x_min":94,"x_max":779,"o":"m 279 567 q 481 511 410 546 q 564 464 507 499 l 574 463 l 692 558 q 752 552 728 564 q 779 518 776 540 q 588 390 728 446 q 408 433 472 410 q 292 499 343 457 l 282 494 l 185 394 q 120 406 146 393 q 96 435 94 418 q 279 567 174 533 z "}," ":{"ha":600,"x_min":0,"x_max":0,"o":""},"¡":{"ha":529,"x_min":58,"x_max":444,"o":"m 254 729 q 317 783 278 761 q 383 806 356 806 q 426 790 410 806 q 444 747 442 774 q 401 674 438 710 q 331 633 365 638 q 281 665 306 633 q 254 729 257 696 m 157 -75 l 283 526 q 343 521 310 544 l 288 261 l 207 -393 q 124 -395 157 -403 q 58 -354 90 -387 l 157 -75 z "},"¢":{"ha":671,"x_min":47,"x_max":614,"o":"m 429 667 l 326 81 q 551 207 486 138 q 589 194 581 208 q 594 150 597 179 q 467 60 554 106 q 313 1 381 14 l 281 -179 q 176 -128 211 -196 l 242 22 q 94 153 140 67 q 52 326 47 239 q 79 475 57 413 q 208 633 131 560 q 381 738 286 706 l 413 922 q 511 881 481 944 l 454 743 q 564 664 519 722 q 614 539 608 606 q 553 511 588 517 q 496 519 518 506 q 478 607 493 575 q 429 667 463 639 m 269 106 l 367 660 q 222 524 279 608 q 160 355 164 439 q 179 208 156 271 q 269 106 203 146 z "},"£":{"ha":900,"x_min":33,"x_max":793,"o":"m 631 82 l 699 144 q 719 0 793 103 q 246 43 482 10 q 149 0 213 3 q 125 158 33 85 l 199 140 q 326 453 283 303 l 147 449 q 156 529 124 476 l 343 513 q 382 719 367 604 l 339 911 q 592 1050 442 1031 q 724 975 669 1038 q 785 839 778 913 q 725 811 758 817 q 669 819 692 806 q 646 912 664 879 q 586 976 628 944 q 442 917 485 951 q 425 521 468 736 l 667 546 q 653 461 697 528 l 411 456 q 289 113 365 269 q 631 82 451 83 z "},"¤":{"ha":885,"x_min":68,"x_max":864,"o":"m 408 154 q 292 213 353 154 l 149 60 q 83 85 99 65 q 76 139 68 104 l 247 260 q 183 456 183 347 q 289 699 183 564 l 118 847 q 131 901 114 883 q 199 919 149 919 l 331 746 q 539 863 443 863 q 651 792 588 863 l 783 932 q 849 907 833 926 q 856 851 864 888 l 692 738 q 771 533 768 622 q 635 276 772 413 l 807 154 q 735 75 825 82 l 586 233 q 408 154 486 154 m 407 217 q 595 340 531 267 q 682 526 660 414 q 628 666 671 593 q 526 790 586 739 q 357 656 414 733 q 276 474 300 579 q 313 326 282 386 q 407 217 343 267 z "},"¥":{"ha":789,"x_min":129,"x_max":839,"o":"m 735 536 q 753 496 753 524 q 732 438 753 468 l 499 435 q 468 281 482 376 l 735 325 q 753 285 753 314 q 732 228 753 257 l 460 214 q 443 0 450 117 q 381 -3 422 -10 q 311 26 340 4 q 358 203 338 99 l 167 167 q 169 264 129 214 l 371 265 q 394 419 386 357 l 167 376 q 169 474 129 426 l 375 475 q 161 990 324 617 q 220 1019 185 1011 q 281 1011 256 1026 l 331 775 l 443 451 l 447 451 l 471 507 l 711 831 l 664 996 q 769 1020 733 1022 q 839 992 804 1018 q 776 803 839 881 q 633 617 696 699 q 543 503 569 536 l 735 536 z "},"¦":{"ha":311,"x_min":-33,"x_max":407,"o":"m 88 413 q 169 432 126 432 q 231 417 211 432 l 132 57 q 119 -89 131 26 q 104 -257 108 -204 q -33 -240 38 -290 q 50 115 38 35 l 88 413 m 261 1333 q 345 1353 314 1353 q 407 1342 376 1353 l 306 974 q 293 828 304 942 q 278 663 282 715 q 142 682 196 650 q 172 807 153 729 q 224 1032 211 957 l 261 1333 z "},"§":{"ha":785,"x_min":25,"x_max":757,"o":"m 186 399 q 292 282 186 343 q 467 193 378 233 q 599 299 558 249 q 640 408 639 349 q 582 481 640 444 q 401 576 535 510 q 186 399 186 449 m 239 801 q 456 636 239 735 q 624 537 540 597 q 736 413 708 476 q 526 156 706 236 q 547 146 529 154 q 568 135 564 138 q 588 125 572 133 q 610 113 604 117 q 628 100 615 108 q 647 86 642 92 q 689 32 679 54 q 561 -153 656 -86 q 304 -251 467 -221 q 128 -153 208 -215 q 25 -31 47 -90 q 121 31 65 50 q 190 -87 153 -46 q 318 -179 228 -129 q 510 -97 440 -147 q 582 21 581 -46 q 510 83 582 46 q 351 158 439 121 q 184 260 264 196 q 90 393 104 324 q 336 611 169 535 q 242 668 272 649 q 177 724 213 688 q 131 799 142 760 q 301 965 193 908 q 519 1033 408 1022 q 757 810 688 963 q 678 763 749 763 q 602 888 640 844 q 508 961 564 931 q 339 894 439 951 q 239 801 239 836 z "},"¨":{"ha":389,"x_min":111,"x_max":467,"o":"m 130 958 q 139 967 130 958 q 176 976 149 976 q 223 958 204 976 q 242 912 242 939 q 222 865 242 885 q 176 846 203 846 q 130 865 149 846 q 111 912 111 885 q 130 958 111 939 m 355 958 q 364 967 355 958 q 401 976 374 976 q 448 958 429 976 q 467 912 467 939 q 447 865 467 885 q 401 846 428 846 q 355 865 374 846 q 336 912 336 885 q 355 958 336 939 z "},"©":{"ha":1049,"x_min":57,"x_max":1043,"o":"m 775 661 q 723 638 753 643 q 675 644 693 633 q 657 726 672 697 q 607 782 642 754 l 585 779 q 444 660 501 739 q 383 513 388 581 q 409 360 379 418 q 524 265 439 301 q 721 376 658 310 q 753 365 746 378 q 758 326 761 353 q 647 247 724 288 q 511 199 569 207 q 340 308 393 226 q 292 493 286 389 q 315 607 296 556 q 441 758 364 690 q 613 844 518 825 q 726 781 681 835 q 775 661 771 726 m 963 508 q 853 861 946 760 q 604 996 771 950 q 283 831 401 964 q 136 524 164 697 q 236 219 157 331 q 483 51 315 108 q 686 108 597 64 q 829 218 775 151 q 963 508 932 344 m 57 525 q 219 865 97 726 q 611 1054 356 1021 q 908 919 807 1022 q 1025 669 994 831 q 1043 510 1038 601 q 881 175 1010 318 q 710 53 814 101 q 476 -7 607 6 q 162 183 263 38 q 57 525 61 328 z "},"ª":{"ha":538,"x_min":85,"x_max":614,"o":"m 407 624 l 276 464 q 140 514 192 465 q 88 639 89 563 q 174 908 85 781 q 371 1036 264 1036 q 479 931 433 1010 l 481 935 q 496 1044 482 1007 q 614 1008 588 1044 l 532 849 q 490 450 511 690 q 419 454 454 446 q 367 482 383 463 l 415 618 l 407 624 m 188 646 q 200 580 188 603 q 244 540 213 557 q 299 593 265 560 q 363 656 333 626 q 421 713 393 685 l 457 868 q 374 961 425 929 q 237 830 286 918 q 188 646 188 742 z "},"«":{"ha":743,"x_min":82,"x_max":707,"o":"m 624 306 q 615 237 633 269 q 569 204 596 204 l 353 492 q 364 540 353 519 l 531 663 l 668 775 q 703 735 699 764 q 681 663 707 706 l 431 499 l 511 407 l 624 306 m 354 306 q 345 237 364 269 q 300 204 326 204 l 82 492 q 94 540 82 517 l 238 663 l 374 775 q 409 735 404 764 q 388 663 414 706 l 161 499 l 242 407 l 354 306 z "},"¬":{"ha":1240,"x_min":76,"x_max":1200,"o":"m 635 551 l 1179 574 q 1192 517 1200 560 l 1139 232 q 1050 247 1103 200 l 1101 476 l 108 467 q 124 558 76 499 l 635 551 z "},"­":{"ha":690,"x_min":51,"x_max":653,"o":"m 636 510 q 647 472 653 500 q 615 414 642 443 l 82 404 q 97 494 51 435 l 354 489 l 636 510 z "},"®":{"ha":654,"x_min":117,"x_max":671,"o":"m 428 1026 q 613 928 564 1003 q 671 721 663 854 q 572 524 650 606 q 351 429 493 443 q 176 536 232 454 q 117 729 119 618 q 428 1026 167 992 m 356 464 q 544 548 479 476 q 626 719 608 619 q 578 899 617 836 q 424 993 539 963 q 243 900 310 975 q 161 728 176 825 q 217 558 172 619 q 356 464 261 496 m 321 911 q 412 918 363 918 q 494 892 461 918 q 526 829 526 865 q 446 718 526 761 q 417 715 435 717 q 389 711 399 713 q 431 636 406 663 q 507 588 457 610 q 504 565 514 576 q 475 547 494 553 q 365 710 382 610 l 354 710 q 333 550 347 629 q 286 563 304 542 q 347 879 315 660 l 318 879 q 321 911 306 901 m 481 828 q 388 885 481 892 l 358 756 l 357 736 q 435 747 386 736 q 481 828 481 779 z "},"¯":{"ha":465,"x_min":88,"x_max":569,"o":"m 533 944 q 513 860 569 924 l 115 849 q 131 931 88 876 l 342 924 l 533 944 z "},"°":{"ha":563,"x_min":150,"x_max":569,"o":"m 386 999 q 250 804 278 936 q 321 644 257 706 q 422 722 388 676 q 469 838 457 768 q 386 999 457 932 m 401 1051 q 508 976 451 1051 q 568 842 565 900 q 478 684 569 768 q 308 600 386 600 q 205 657 260 600 q 150 792 150 714 q 238 960 150 869 q 401 1051 325 1051 z "},"±":{"ha":939,"x_min":65,"x_max":875,"o":"m 558 642 l 858 660 q 869 622 875 650 q 838 564 864 593 l 542 560 l 499 336 q 413 369 461 311 l 458 558 l 154 554 q 169 644 124 585 l 475 639 l 503 860 q 542 863 515 874 q 593 819 569 851 l 558 642 m 801 288 q 813 250 818 279 q 781 192 807 221 l 97 182 q 113 274 65 214 l 458 267 l 801 288 z "},"²":{"ha":383,"x_min":43,"x_max":424,"o":"m 294 946 q 207 897 247 946 l 231 843 q 200 825 222 828 q 125 913 164 851 q 194 999 150 965 q 289 1033 239 1033 q 381 970 339 1033 q 424 850 424 907 q 397 753 424 793 q 311 663 369 713 l 153 532 l 157 528 l 375 538 q 374 492 381 522 q 353 450 368 461 l 144 465 l 93 451 q 60 490 76 461 q 44 543 43 519 l 242 718 q 363 865 322 790 q 294 946 346 946 z "},"³":{"ha":410,"x_min":69,"x_max":443,"o":"m 281 949 q 190 904 228 949 l 217 854 q 182 833 207 839 q 110 913 140 864 q 181 1000 138 967 q 280 1033 225 1033 q 386 984 335 1033 q 436 871 438 935 q 418 831 435 849 q 360 793 401 814 l 292 760 q 401 708 360 740 q 438 626 443 676 q 331 516 432 564 q 90 453 229 468 q 74 478 79 461 q 72 507 69 496 q 245 559 181 532 q 356 629 310 586 q 313 678 344 657 q 213 725 282 699 l 224 775 l 353 875 q 281 949 340 949 z "},"´":{"ha":238,"x_min":97,"x_max":364,"o":"m 225 1069 q 316 1065 269 1082 q 364 1025 363 1049 l 143 808 q 97 832 101 808 l 183 961 l 225 1069 z "},"µ":{"ha":696,"x_min":-87,"x_max":696,"o":"m 471 328 l 471 331 q 564 758 517 578 q 696 714 663 758 l 592 510 q 543 0 561 311 q 419 35 458 -10 l 488 217 l 471 231 q 265 0 388 122 q 119 43 179 7 q 25 -353 68 -169 q -38 -361 -8 -369 q -87 -325 -68 -353 q 119 401 78 192 q 128 758 128 482 q 197 755 171 764 q 257 715 224 746 q 144 149 242 564 q 250 88 185 106 q 471 328 389 213 z "},"¶":{"ha":825,"x_min":100,"x_max":897,"o":"m 732 1019 l 761 1151 q 897 1125 843 1167 l 785 858 l 688 343 q 642 0 664 179 q 522 26 586 -21 l 636 511 l 715 943 q 613 938 649 946 l 474 343 l 429 0 q 308 26 374 -19 q 408 454 335 139 q 176 533 251 474 q 111 694 100 592 q 173 864 122 797 q 311 964 224 931 q 497 1009 399 997 q 732 1019 596 1021 z "},"·":{"ha":338,"x_min":81,"x_max":269,"o":"m 269 421 q 212 367 249 390 q 148 344 175 344 q 103 361 121 344 q 81 403 85 378 q 115 476 83 440 q 182 517 147 513 q 235 485 207 517 q 269 421 263 454 z "},"¸":{"ha":432,"x_min":-92,"x_max":322,"o":"m 128 -112 q 222 -71 172 -71 q 297 -106 271 -71 q 311 -201 322 -142 q 249 -297 300 -261 q 129 -333 197 -333 q 3 -308 61 -333 q -92 -237 -56 -282 q -61 -186 -89 -189 q 98 -261 14 -261 q 199 -194 182 -261 q 188 -135 206 -161 q 97 -176 139 -140 q 35 -139 47 -176 l 113 26 l 200 26 l 128 -112 z "},"¹":{"ha":274,"x_min":106,"x_max":336,"o":"m 289 861 l 229 588 l 219 450 q 118 465 158 440 l 214 889 l 233 944 l 224 950 l 169 875 q 132 872 157 869 q 106 882 107 874 l 171 1021 q 267 1020 214 1029 q 336 989 319 1011 l 289 861 z "},"º":{"ha":540,"x_min":99,"x_max":569,"o":"m 282 457 q 160 531 221 457 q 99 707 99 604 q 189 922 99 810 q 379 1035 279 1035 q 503 940 440 1035 q 568 768 565 844 q 470 565 569 672 q 282 457 371 457 m 364 975 q 200 719 228 881 q 289 518 206 604 q 411 616 368 557 q 468 764 454 675 q 364 975 449 883 z "},"»":{"ha":743,"x_min":49,"x_max":700,"o":"m 158 674 q 168 743 150 711 q 213 775 186 775 l 431 488 q 418 439 431 458 l 251 317 l 115 204 q 101 317 49 229 l 353 482 l 271 574 l 158 674 m 429 674 q 438 743 419 711 q 483 775 457 775 l 700 488 q 689 439 700 460 l 546 317 l 410 204 q 396 317 342 231 l 622 482 l 542 574 l 429 674 z "},"¼":{"ha":935,"x_min":38,"x_max":847,"o":"m 715 567 q 832 532 804 567 l 785 406 l 743 215 l 842 218 q 839 181 847 206 q 818 143 831 156 l 728 146 l 725 132 l 714 -6 q 621 8 664 -17 l 653 149 l 626 150 l 467 146 q 416 172 426 164 q 404 189 406 181 l 682 564 q 715 567 707 567 m 507 206 l 668 213 l 693 321 l 746 517 l 735 519 l 639 382 l 507 206 m 408 524 l 724 1154 q 829 1124 804 1164 l 132 -111 q 38 -86 65 -124 l 408 524 m 268 950 l 214 875 q 176 872 201 869 q 150 882 151 874 l 215 1021 q 311 1020 258 1029 q 381 989 364 1011 l 333 861 l 274 588 l 264 450 q 163 465 203 440 l 258 889 l 278 944 l 268 950 z "},"½":{"ha":932,"x_min":38,"x_max":867,"o":"m 408 524 l 724 1154 q 829 1124 804 1164 l 132 -111 q 38 -86 65 -124 l 408 524 m 335 861 l 275 588 l 265 450 q 164 465 204 440 l 260 889 l 279 944 l 269 950 l 215 875 q 178 872 203 869 q 151 882 153 874 l 217 1021 q 313 1020 260 1029 q 382 989 365 1011 l 335 861 m 738 461 q 650 413 690 461 l 674 358 q 643 340 665 343 q 568 428 607 367 q 638 515 593 481 q 732 549 682 549 q 824 485 782 549 q 867 365 867 422 q 840 268 867 308 q 754 178 813 228 l 596 47 l 600 43 l 818 53 q 817 7 824 38 q 796 -35 811 -24 l 588 -19 l 536 -33 q 503 6 519 -24 q 488 58 486 35 l 685 233 q 806 381 765 306 q 738 461 789 461 z "},"¾":{"ha":900,"x_min":69,"x_max":913,"o":"m 782 567 q 899 532 871 567 l 850 406 l 808 215 l 907 218 q 904 181 913 206 q 883 143 896 156 l 793 146 l 790 132 l 781 -6 q 688 8 729 -17 l 719 149 l 693 150 l 532 146 q 511 156 529 147 q 469 189 472 175 l 749 564 q 782 567 774 567 m 574 206 l 733 213 l 758 321 l 811 517 l 801 519 l 706 382 l 574 206 m 474 524 l 789 1154 q 894 1124 869 1164 l 197 -111 q 103 -86 131 -124 l 474 524 m 281 949 q 190 904 228 949 l 217 854 q 182 833 207 839 q 110 913 140 864 q 181 1000 138 967 q 280 1033 225 1033 q 386 984 335 1033 q 436 871 438 935 q 418 831 435 849 q 360 793 401 814 l 292 760 q 401 708 360 740 q 438 626 443 676 q 331 516 432 564 q 90 453 229 468 q 74 478 79 461 q 72 507 69 496 q 245 559 181 532 q 356 629 310 586 q 313 678 344 657 q 213 725 282 699 l 224 775 l 353 875 q 281 949 340 949 z "},"¿":{"ha":900,"x_min":-62,"x_max":685,"o":"m 494 740 q 557 794 518 772 q 623 817 596 817 q 667 801 650 817 q 685 758 683 785 q 642 685 678 721 q 571 644 606 649 q 522 676 546 644 q 494 740 497 707 m 504 -8 q 546 4 531 4 q 578 -20 561 4 q 605 -89 594 -44 q 607 -176 615 -133 q 366 -316 490 -267 q 133 -365 242 -365 q -19 -285 25 -365 q -19 -81 -62 -204 q 152 118 24 42 q 489 244 281 194 l 547 582 q 589 584 579 590 q 599 554 599 578 l 596 257 q 515 163 578 200 q 58 -121 133 88 q 100 -290 26 -222 q 522 -133 319 -282 l 504 -8 z "},"À":{"ha":788,"x_min":-15,"x_max":782,"o":"m 624 471 l 765 500 q 780 460 782 489 q 756 401 778 432 l 629 394 l 658 0 q 539 35 574 -10 l 538 389 l 351 379 l 268 367 l 100 0 q -15 33 10 -8 l 154 350 l 44 333 q 54 431 8 381 l 200 438 l 292 608 l 450 986 q 622 1006 526 1035 l 601 764 l 624 471 m 303 443 l 538 454 l 522 897 l 510 894 l 303 443 m 579 1094 l 508 1196 l 389 1318 q 433 1369 399 1354 q 514 1374 468 1383 l 626 1114 q 579 1094 619 1090 z "},"Á":{"ha":788,"x_min":-15,"x_max":850,"o":"m 624 471 l 765 500 q 780 460 782 489 q 756 401 778 432 l 629 394 l 658 0 q 539 35 574 -10 l 538 389 l 351 379 l 268 367 l 100 0 q -15 33 10 -8 l 154 350 l 44 333 q 54 431 8 381 l 200 438 l 292 608 l 450 986 q 622 1006 526 1035 l 601 764 l 624 471 m 303 443 l 538 454 l 522 897 l 510 894 l 303 443 m 850 1306 l 629 1089 q 583 1113 588 1089 l 669 1242 l 711 1350 q 802 1346 756 1363 q 850 1306 849 1329 z "},"Â":{"ha":788,"x_min":-15,"x_max":800,"o":"m 624 471 l 765 500 q 780 460 782 489 q 756 401 778 432 l 629 394 l 658 0 q 539 35 574 -10 l 538 389 l 351 379 l 268 367 l 100 0 q -15 33 10 -8 l 154 350 l 44 333 q 54 431 8 381 l 200 438 l 292 608 l 450 986 q 622 1006 526 1035 l 601 764 l 624 471 m 303 443 l 538 454 l 522 897 l 510 894 l 303 443 m 632 1254 l 457 1100 q 415 1136 418 1106 l 611 1317 q 708 1306 672 1332 l 800 1114 q 747 1093 778 1094 q 703 1104 717 1092 l 632 1254 z "},"Ã":{"ha":788,"x_min":-15,"x_max":839,"o":"m 692 1165 l 774 1261 q 821 1254 803 1267 q 832 1221 839 1242 q 678 1093 792 1151 q 569 1140 607 1117 q 508 1200 531 1164 l 501 1197 l 429 1099 q 386 1110 404 1097 q 369 1139 368 1122 q 407 1188 390 1168 q 459 1233 424 1207 q 536 1271 494 1258 q 686 1167 649 1225 l 692 1165 m 624 471 l 765 500 q 780 460 782 489 q 756 401 778 432 l 629 394 l 658 0 q 539 35 574 -10 l 538 389 l 351 379 l 268 367 l 100 0 q -15 33 10 -8 l 154 350 l 44 333 q 54 431 8 381 l 200 438 l 292 608 l 450 986 q 622 1006 526 1035 l 601 764 l 624 471 m 303 443 l 538 454 l 522 897 l 510 894 l 303 443 z "},"Ä":{"ha":788,"x_min":-15,"x_max":782,"o":"m 624 471 l 765 500 q 780 460 782 489 q 756 401 778 432 l 629 394 l 658 0 q 539 35 574 -10 l 538 389 l 351 379 l 268 367 l 100 0 q -15 33 10 -8 l 154 350 l 44 333 q 54 431 8 381 l 200 438 l 292 608 l 450 986 q 622 1006 526 1035 l 601 764 l 624 471 m 303 443 l 538 454 l 522 897 l 510 894 l 303 443 m 538 1192 q 538 1179 538 1192 q 518 1146 538 1165 q 472 1126 499 1126 q 426 1146 444 1126 q 407 1192 407 1165 q 426 1238 407 1219 q 472 1257 444 1257 q 519 1238 500 1257 q 538 1192 538 1219 m 763 1192 q 763 1179 763 1192 q 743 1146 763 1165 q 697 1126 724 1126 q 651 1146 669 1126 q 632 1192 632 1165 q 651 1238 632 1219 q 697 1257 669 1257 q 744 1238 725 1257 q 763 1192 763 1219 z "},"Å":{"ha":788,"x_min":-15,"x_max":807,"o":"m 528 1229 q 598 1326 550 1283 q 702 1368 646 1368 q 783 1328 758 1368 q 787 1231 807 1288 q 717 1131 767 1174 q 613 1089 668 1089 q 533 1129 557 1089 q 528 1229 508 1169 m 678 1326 q 639 1311 669 1326 q 600 1229 617 1281 q 635 1131 568 1131 q 679 1147 654 1131 q 714 1229 704 1183 q 678 1326 743 1326 m 624 471 l 765 500 q 780 460 782 489 q 756 401 778 432 l 629 394 l 658 0 q 539 35 574 -10 l 538 389 l 351 379 l 268 367 l 100 0 q -15 33 10 -8 l 154 350 l 44 333 q 54 431 8 381 l 200 438 l 292 608 l 450 986 q 622 1006 526 1035 l 601 764 l 624 471 m 303 443 l 538 454 l 522 897 l 510 894 l 303 443 z "},"Æ":{"ha":1051,"x_min":-33,"x_max":1063,"o":"m 514 894 l 322 499 l 511 503 l 525 897 l 514 894 m 857 1015 q 1033 1011 964 1015 q 1048 938 1063 990 q 990 854 1033 885 l 914 922 q 676 921 818 938 l 635 801 l 614 513 q 914 540 788 521 q 901 425 942 492 q 753 433 806 433 q 600 424 700 433 l 558 172 l 558 88 q 745 110 638 89 q 922 157 853 132 q 958 106 956 144 q 943 40 960 67 q 563 0 736 0 q 503 8 517 0 q 484 17 489 15 q 471 28 479 19 q 460 40 463 36 q 447 54 457 43 q 433 69 436 65 l 508 429 l 286 421 l 81 0 q -33 33 -11 -8 l 181 414 l 58 406 q 71 503 25 453 l 229 501 l 289 594 l 454 979 q 857 1015 600 1015 z "},"Ç":{"ha":806,"x_min":58,"x_max":783,"o":"m 557 942 q 278 753 396 901 q 161 452 161 604 q 221 217 161 300 q 411 86 281 135 q 555 167 483 117 q 664 263 626 217 q 715 250 696 271 q 731 204 733 229 q 624 110 696 160 q 472 21 553 60 l 403 -112 q 497 -71 447 -71 q 572 -106 546 -71 q 586 -201 597 -142 q 524 -297 575 -261 q 404 -333 472 -333 q 278 -308 336 -333 q 183 -237 219 -282 q 214 -186 186 -189 q 373 -261 289 -261 q 474 -194 457 -261 q 463 -135 481 -161 q 372 -176 414 -140 q 310 -139 322 -176 l 381 13 q 136 175 211 68 q 58 442 61 282 q 150 743 58 575 q 599 1033 349 992 q 728 928 679 1003 q 783 774 778 853 q 650 744 715 721 q 578 943 638 876 l 557 942 z "},"È":{"ha":690,"x_min":57,"x_max":758,"o":"m 418 1374 l 531 1114 q 483 1094 524 1090 l 413 1196 l 293 1318 q 338 1369 303 1354 q 418 1374 372 1383 m 286 540 q 586 567 569 564 q 594 515 599 549 q 571 451 590 482 q 274 461 371 465 l 176 93 q 563 157 350 115 q 590 108 592 143 q 568 40 589 74 l 164 0 q 57 92 58 29 q 225 683 175 401 l 251 907 q 188 922 232 919 q 188 993 163 968 q 731 1011 413 1015 q 746 938 758 990 q 696 854 733 885 l 608 911 q 367 918 483 931 l 326 767 l 286 540 z "},"É":{"ha":690,"x_min":57,"x_max":758,"o":"m 286 540 q 586 567 569 564 q 594 515 599 549 q 571 451 590 482 q 274 461 371 465 l 176 93 q 563 157 350 115 q 590 108 592 143 q 568 40 589 74 l 164 0 q 57 92 58 29 q 225 683 175 401 l 251 907 q 188 922 232 919 q 188 993 163 968 q 731 1011 413 1015 q 746 938 758 990 q 696 854 733 885 l 608 911 q 367 918 483 931 l 326 767 l 286 540 m 615 1350 q 706 1346 660 1363 q 754 1306 753 1329 l 533 1089 q 488 1113 492 1089 l 574 1242 l 615 1350 z "},"Ê":{"ha":690,"x_min":57,"x_max":758,"o":"m 286 540 q 586 567 569 564 q 594 515 599 549 q 571 451 590 482 q 274 461 371 465 l 176 93 q 563 157 350 115 q 590 108 592 143 q 568 40 589 74 l 164 0 q 57 92 58 29 q 225 683 175 401 l 251 907 q 188 922 232 919 q 188 993 163 968 q 731 1011 413 1015 q 746 938 758 990 q 696 854 733 885 l 608 911 q 367 918 483 931 l 326 767 l 286 540 m 319 1136 l 515 1317 q 613 1306 576 1332 l 704 1114 q 651 1093 682 1094 q 607 1104 621 1092 l 536 1254 l 361 1100 q 319 1136 322 1106 z "},"Ë":{"ha":690,"x_min":57,"x_max":758,"o":"m 330 1238 q 339 1248 330 1238 q 376 1257 349 1257 q 423 1238 404 1257 q 442 1192 442 1219 q 422 1146 442 1165 q 376 1126 403 1126 q 330 1146 349 1126 q 311 1192 311 1165 q 330 1238 311 1219 m 555 1238 q 564 1248 555 1238 q 601 1257 574 1257 q 648 1238 629 1257 q 667 1192 667 1219 q 647 1146 667 1165 q 601 1126 628 1126 q 555 1146 574 1126 q 536 1192 536 1165 q 555 1238 536 1219 m 286 540 q 586 567 569 564 q 594 515 599 549 q 571 451 590 482 q 274 461 371 465 l 176 93 q 563 157 350 115 q 590 108 592 143 q 568 40 589 74 l 164 0 q 57 92 58 29 q 225 683 175 401 l 251 907 q 188 922 232 919 q 188 993 163 968 q 731 1011 413 1015 q 746 938 758 990 q 696 854 733 885 l 608 911 q 367 918 483 931 l 326 767 l 286 540 z "},"Ì":{"ha":313,"x_min":32,"x_max":336,"o":"m 189 1374 l 301 1114 q 254 1094 294 1090 l 183 1196 l 64 1318 q 108 1369 74 1354 q 189 1374 143 1383 m 190 986 q 278 1021 247 1021 q 336 1008 308 1021 l 232 557 q 200 297 225 486 q 164 0 175 107 q 32 43 63 -10 q 169 690 133 460 l 190 986 z "},"Í":{"ha":313,"x_min":32,"x_max":525,"o":"m 386 1350 q 477 1346 431 1363 q 525 1306 524 1329 l 304 1089 q 258 1113 263 1089 l 344 1242 l 386 1350 m 190 986 q 278 1021 247 1021 q 336 1008 308 1021 l 232 557 q 200 297 225 486 q 164 0 175 107 q 32 43 63 -10 q 169 690 133 460 l 190 986 z "},"Î":{"ha":313,"x_min":32,"x_max":475,"o":"m 90 1136 l 286 1317 q 383 1306 347 1332 l 475 1114 q 422 1093 453 1094 q 378 1104 392 1092 l 307 1254 l 132 1100 q 90 1136 93 1106 m 190 986 q 278 1021 247 1021 q 336 1008 308 1021 l 232 557 q 200 297 225 486 q 164 0 175 107 q 32 43 63 -10 q 169 690 133 460 l 190 986 z "},"Ï":{"ha":313,"x_min":32,"x_max":438,"o":"m 190 986 q 278 1021 247 1021 q 336 1008 308 1021 l 232 557 q 200 297 225 486 q 164 0 175 107 q 32 43 63 -10 q 169 690 133 460 l 190 986 m 101 1238 q 110 1248 101 1238 q 147 1257 119 1257 q 194 1238 175 1257 q 213 1192 213 1219 q 193 1146 213 1165 q 147 1126 174 1126 q 101 1146 119 1126 q 82 1192 82 1165 q 101 1238 82 1219 m 326 1238 q 335 1248 326 1238 q 372 1257 344 1257 q 419 1238 400 1257 q 438 1192 438 1219 q 418 1146 438 1165 q 372 1126 399 1126 q 326 1146 344 1126 q 307 1192 307 1165 q 326 1238 307 1219 z "},"Ð":{"ha":858,"x_min":21,"x_max":840,"o":"m 396 1021 q 717 896 600 1021 q 838 574 833 771 q 763 277 840 411 q 529 57 685 143 q 186 0 364 1 q 69 86 93 25 q 181 489 144 333 l 54 479 q 24 524 26 497 q 42 563 21 551 l 193 551 q 221 693 211 636 l 224 919 l 174 908 q 140 956 144 928 q 150 1000 135 983 q 396 1021 249 1021 m 263 496 l 263 493 l 208 99 q 496 128 379 99 q 672 319 618 215 q 724 558 726 424 q 623 834 719 729 q 357 925 526 939 q 315 734 343 861 q 275 553 286 607 l 518 576 q 547 543 540 567 q 531 499 553 519 l 264 496 l 263 496 z "},"Ñ":{"ha":869,"x_min":8,"x_max":915,"o":"m 769 986 q 858 1021 826 1021 q 915 1008 889 1021 l 807 557 q 773 303 800 493 q 733 0 746 114 q 603 33 647 -7 q 276 849 432 363 l 214 557 q 181 298 207 488 q 142 0 154 108 q 8 43 42 -10 q 106 442 81 324 q 153 690 131 561 l 176 986 q 265 1021 236 1021 q 322 1008 294 1021 q 557 326 421 658 l 643 175 q 668 288 651 214 q 694 408 685 363 q 746 690 724 549 l 769 986 m 478 1197 l 406 1099 q 363 1110 381 1097 q 346 1139 344 1122 q 383 1188 367 1168 q 435 1233 400 1207 q 513 1271 471 1258 q 663 1167 625 1225 l 668 1165 l 750 1261 q 797 1254 779 1267 q 808 1221 815 1242 q 654 1093 768 1151 q 545 1140 583 1117 q 485 1200 507 1164 l 478 1197 z "},"Ò":{"ha":843,"x_min":72,"x_max":815,"o":"m 497 1376 l 610 1117 q 563 1097 603 1093 l 492 1199 l 372 1321 q 417 1372 382 1357 q 497 1376 451 1386 m 715 499 q 658 763 697 653 q 540 950 618 874 q 279 736 378 874 q 181 436 181 599 q 233 220 182 322 q 378 72 283 118 q 589 251 513 150 q 715 499 665 353 m 549 1021 q 672 943 610 1021 q 773 744 733 865 q 814 504 813 624 q 740 296 815 417 q 561 88 665 175 q 381 0 457 0 q 231 69 304 0 q 116 234 157 139 q 74 413 75 329 q 144 703 72 560 q 327 933 215 846 q 549 1021 439 1021 z "},"Ó":{"ha":843,"x_min":72,"x_max":833,"o":"m 715 499 q 658 763 697 653 q 540 950 618 874 q 279 736 378 874 q 181 436 181 599 q 233 220 182 322 q 378 72 283 118 q 589 251 513 150 q 715 499 665 353 m 549 1021 q 672 943 610 1021 q 773 744 733 865 q 814 504 813 624 q 740 296 815 417 q 561 88 665 175 q 381 0 457 0 q 231 69 304 0 q 116 234 157 139 q 74 413 75 329 q 144 703 72 560 q 327 933 215 846 q 549 1021 439 1021 m 694 1353 q 785 1349 739 1365 q 833 1308 832 1332 l 613 1092 q 567 1115 571 1092 l 653 1244 l 694 1353 z "},"Ô":{"ha":843,"x_min":72,"x_max":815,"o":"m 715 499 q 658 763 697 653 q 540 950 618 874 q 279 736 378 874 q 181 436 181 599 q 233 220 182 322 q 378 72 283 118 q 589 251 513 150 q 715 499 665 353 m 549 1021 q 672 943 610 1021 q 773 744 733 865 q 814 504 813 624 q 740 296 815 417 q 561 88 665 175 q 381 0 457 0 q 231 69 304 0 q 116 234 157 139 q 74 413 75 329 q 144 703 72 560 q 327 933 215 846 q 549 1021 439 1021 m 399 1139 l 594 1319 q 692 1308 656 1335 l 783 1117 q 731 1096 761 1097 q 686 1107 700 1094 l 615 1257 l 440 1103 q 399 1139 401 1108 z "},"Õ":{"ha":843,"x_min":72,"x_max":822,"o":"m 519 1274 q 669 1169 632 1228 l 675 1168 l 757 1264 q 804 1257 786 1269 q 815 1224 822 1244 q 661 1096 775 1154 q 552 1143 590 1119 q 492 1203 514 1167 l 485 1200 l 413 1101 q 369 1113 388 1100 q 353 1142 351 1125 q 390 1190 374 1171 q 442 1235 407 1210 q 519 1274 478 1261 m 715 499 q 658 763 697 653 q 540 950 618 874 q 279 736 378 874 q 181 436 181 599 q 233 220 182 322 q 378 72 283 118 q 589 251 513 150 q 715 499 665 353 m 549 1021 q 672 943 610 1021 q 773 744 733 865 q 814 504 813 624 q 740 296 815 417 q 561 88 665 175 q 381 0 457 0 q 231 69 304 0 q 116 234 157 139 q 74 413 75 329 q 144 703 72 560 q 327 933 215 846 q 549 1021 439 1021 z "},"Ö":{"ha":843,"x_min":72,"x_max":815,"o":"m 409 1241 q 418 1250 409 1241 q 456 1260 428 1260 q 502 1241 483 1260 q 521 1195 521 1222 q 501 1149 521 1168 q 455 1129 482 1129 q 409 1149 428 1129 q 390 1195 390 1168 q 409 1241 390 1222 m 634 1241 q 643 1250 634 1241 q 681 1260 653 1260 q 727 1241 708 1260 q 746 1195 746 1222 q 726 1149 746 1168 q 680 1129 707 1129 q 634 1149 653 1129 q 615 1195 615 1168 q 634 1241 615 1222 m 549 1021 q 672 943 610 1021 q 773 744 733 865 q 814 504 813 624 q 740 296 815 417 q 561 88 665 175 q 381 0 457 0 q 231 69 304 0 q 116 234 157 139 q 74 413 75 329 q 144 703 72 560 q 327 933 215 846 q 549 1021 439 1021 m 715 499 q 658 763 697 653 q 540 950 618 874 q 279 736 378 874 q 181 436 181 599 q 233 220 182 322 q 378 72 283 118 q 589 251 513 150 q 715 499 665 353 z "},"×":{"ha":900,"x_min":115,"x_max":817,"o":"m 467 497 l 744 811 q 797 795 776 811 q 811 746 817 779 l 503 457 l 732 219 q 697 167 719 182 q 650 164 674 153 l 451 410 l 182 158 q 115 222 118 168 l 415 456 l 186 739 q 204 792 183 774 q 258 810 225 810 l 467 497 z "},"Ø":{"ha":979,"x_min":8,"x_max":1029,"o":"m 431 0 q 210 153 311 0 l 113 0 q 8 100 8 22 l 164 238 q 121 413 124 331 q 192 703 119 560 q 376 933 264 846 q 597 1021 488 1021 q 700 966 649 1021 q 793 819 751 911 l 915 1018 q 996 983 964 1008 q 1029 924 1028 958 l 824 738 q 863 504 860 622 q 788 296 863 417 q 608 88 713 175 q 431 0 504 0 m 228 436 q 246 311 228 371 l 717 732 q 588 950 672 867 q 326 735 425 874 q 228 436 228 597 m 736 660 l 271 240 q 426 72 326 121 q 636 250 560 149 q 764 499 713 351 q 736 660 753 593 z "},"Ù":{"ha":792,"x_min":64,"x_max":838,"o":"m 419 1374 l 532 1114 q 485 1094 525 1090 l 414 1196 l 294 1318 q 339 1369 304 1354 q 419 1374 374 1383 m 344 0 q 151 75 224 0 q 64 231 78 150 q 91 387 69 265 q 119 549 113 508 q 139 678 125 589 q 175 986 160 810 q 263 1021 232 1021 q 321 1008 294 1021 q 175 242 175 521 q 218 140 175 186 q 330 79 261 93 q 483 106 399 65 q 611 324 569 190 q 692 690 653 457 l 692 986 q 780 1021 749 1021 q 838 1008 811 1021 q 791 770 819 929 q 742 513 763 611 q 703 343 722 414 q 651 201 683 272 q 581 90 619 131 q 344 0 492 0 z "},"Ú":{"ha":792,"x_min":64,"x_max":838,"o":"m 344 0 q 151 75 224 0 q 64 231 78 150 q 91 387 69 265 q 119 549 113 508 q 139 678 125 589 q 175 986 160 810 q 263 1021 232 1021 q 321 1008 294 1021 q 175 242 175 521 q 218 140 175 186 q 330 79 261 93 q 483 106 399 65 q 611 324 569 190 q 692 690 653 457 l 692 986 q 780 1021 749 1021 q 838 1008 811 1021 q 791 770 819 929 q 742 513 763 611 q 703 343 722 414 q 651 201 683 272 q 581 90 619 131 q 344 0 492 0 m 617 1350 q 708 1346 661 1363 q 756 1306 754 1329 l 535 1089 q 489 1113 493 1089 l 575 1242 l 617 1350 z "},"Û":{"ha":792,"x_min":64,"x_max":838,"o":"m 344 0 q 151 75 224 0 q 64 231 78 150 q 91 387 69 265 q 119 549 113 508 q 139 678 125 589 q 175 986 160 810 q 263 1021 232 1021 q 321 1008 294 1021 q 175 242 175 521 q 218 140 175 186 q 330 79 261 93 q 483 106 399 65 q 611 324 569 190 q 692 690 653 457 l 692 986 q 780 1021 749 1021 q 838 1008 811 1021 q 791 770 819 929 q 742 513 763 611 q 703 343 722 414 q 651 201 683 272 q 581 90 619 131 q 344 0 492 0 m 321 1136 l 517 1317 q 614 1306 578 1332 l 706 1114 q 653 1093 683 1094 q 608 1104 622 1092 l 538 1254 l 363 1100 q 321 1136 324 1106 z "},"Ü":{"ha":792,"x_min":64,"x_max":838,"o":"m 331 1238 q 341 1248 331 1238 q 378 1257 350 1257 q 424 1238 406 1257 q 443 1192 443 1219 q 424 1146 443 1165 q 377 1126 404 1126 q 331 1146 350 1126 q 313 1192 313 1165 q 331 1238 313 1219 m 556 1238 q 566 1248 556 1238 q 603 1257 575 1257 q 649 1238 631 1257 q 668 1192 668 1219 q 649 1146 668 1165 q 602 1126 629 1126 q 556 1146 575 1126 q 538 1192 538 1165 q 556 1238 538 1219 m 692 986 q 780 1021 749 1021 q 838 1008 811 1021 q 791 770 819 929 q 742 513 763 611 q 703 343 722 414 q 651 201 683 272 q 581 90 619 131 q 344 0 492 0 q 151 75 224 0 q 64 231 78 150 q 91 387 69 265 q 119 549 113 508 q 139 678 125 589 q 175 986 160 810 q 263 1021 232 1021 q 321 1008 294 1021 q 175 242 175 521 q 218 140 175 186 q 330 79 261 93 q 483 106 399 65 q 611 324 569 190 q 692 690 653 457 l 692 986 z "},"Ý":{"ha":788,"x_min":161,"x_max":839,"o":"m 639 1349 q 730 1344 683 1361 q 778 1304 776 1328 l 557 1088 q 511 1111 515 1088 l 597 1240 l 639 1349 m 161 990 q 220 1019 185 1011 q 281 1011 256 1026 l 331 775 l 450 469 l 454 469 l 483 524 l 711 831 l 664 996 q 769 1020 733 1022 q 839 992 804 1018 q 776 803 839 881 q 504 454 624 604 q 443 0 460 315 q 381 -3 422 -10 q 311 26 340 4 q 394 421 364 175 q 161 990 338 583 z "},"Þ":{"ha":739,"x_min":86,"x_max":753,"o":"m 401 1117 l 325 804 q 524 840 424 847 q 688 742 628 811 q 751 590 749 674 q 710 446 753 507 q 567 313 668 385 q 257 317 378 275 q 218 4 236 136 q 149 3 192 -6 q 86 35 107 13 q 174 416 129 189 q 242 750 218 643 l 257 1093 q 335 1128 306 1122 q 401 1117 365 1133 m 526 386 q 620 485 590 442 q 648 588 650 528 q 603 697 646 647 q 488 767 560 746 q 313 726 417 775 q 264 368 288 569 q 526 386 381 351 z "},"ß":{"ha":785,"x_min":21,"x_max":728,"o":"m 728 331 q 633 118 728 214 q 371 0 539 22 q 208 69 250 4 q 258 147 221 114 q 339 179 296 181 l 394 81 q 561 174 499 97 q 624 331 624 250 q 468 538 624 499 l 367 501 q 329 575 335 539 q 382 676 319 639 l 461 653 q 603 860 603 713 q 533 995 603 942 q 344 1033 464 1049 l 271 911 q 139 0 188 303 q 21 33 49 -8 q 176 886 154 568 q 242 1030 200 974 q 356 1117 283 1086 q 604 1048 510 1125 q 700 864 699 971 q 503 604 697 679 l 501 594 q 672 490 617 561 q 728 331 728 419 z "},"à":{"ha":696,"x_min":40,"x_max":697,"o":"m 446 226 l 264 18 q 100 81 157 19 q 42 251 43 142 q 92 478 40 360 q 229 674 143 597 q 404 750 315 750 q 542 615 486 714 l 543 619 q 565 758 547 711 q 697 714 664 758 l 593 510 q 540 0 568 349 q 399 40 446 -11 l 461 214 l 446 226 m 147 251 q 225 100 147 146 q 469 336 351 225 l 517 540 q 469 617 494 588 q 399 676 444 646 q 214 513 281 628 q 147 251 147 399 m 475 814 l 404 915 l 285 1038 q 329 1088 294 1074 q 410 1093 364 1103 l 522 833 q 475 814 515 810 z "},"á":{"ha":696,"x_min":40,"x_max":746,"o":"m 446 226 l 264 18 q 100 81 157 19 q 42 251 43 142 q 92 478 40 360 q 229 674 143 597 q 404 750 315 750 q 542 615 486 714 l 543 619 q 565 758 547 711 q 697 714 664 758 l 593 510 q 540 0 568 349 q 399 40 446 -11 l 461 214 l 446 226 m 147 251 q 225 100 147 146 q 469 336 351 225 l 517 540 q 469 617 494 588 q 399 676 444 646 q 214 513 281 628 q 147 251 147 399 m 746 1025 l 525 808 q 479 832 483 808 l 565 961 l 607 1069 q 698 1065 651 1082 q 746 1025 744 1049 z "},"â":{"ha":696,"x_min":40,"x_max":697,"o":"m 446 226 l 264 18 q 100 81 157 19 q 42 251 43 142 q 92 478 40 360 q 229 674 143 597 q 404 750 315 750 q 542 615 486 714 l 543 619 q 565 758 547 711 q 697 714 664 758 l 593 510 q 540 0 568 349 q 399 40 446 -11 l 461 214 l 446 226 m 147 251 q 225 100 147 146 q 469 336 351 225 l 517 540 q 469 617 494 588 q 399 676 444 646 q 214 513 281 628 q 147 251 147 399 m 528 974 l 353 819 q 311 856 314 825 l 507 1036 q 604 1025 568 1051 l 696 833 q 643 813 674 814 q 599 824 613 811 l 528 974 z "},"ã":{"ha":696,"x_min":40,"x_max":735,"o":"m 588 885 l 669 981 q 717 974 699 986 q 728 940 735 961 q 574 813 688 871 q 465 860 503 836 q 404 919 426 883 l 397 917 l 325 818 q 282 829 300 817 q 265 858 264 842 q 303 907 286 888 q 355 952 319 926 q 432 990 390 978 q 582 886 544 944 l 588 885 m 446 226 l 264 18 q 100 81 157 19 q 42 251 43 142 q 92 478 40 360 q 229 674 143 597 q 404 750 315 750 q 542 615 486 714 l 543 619 q 565 758 547 711 q 697 714 664 758 l 593 510 q 540 0 568 349 q 399 40 446 -11 l 461 214 l 446 226 m 147 251 q 225 100 147 146 q 469 336 351 225 l 517 540 q 469 617 494 588 q 399 676 444 646 q 214 513 281 628 q 147 251 147 399 z "},"ä":{"ha":696,"x_min":40,"x_max":697,"o":"m 446 226 l 264 18 q 100 81 157 19 q 42 251 43 142 q 92 478 40 360 q 229 674 143 597 q 404 750 315 750 q 542 615 486 714 l 543 619 q 565 758 547 711 q 697 714 664 758 l 593 510 q 540 0 568 349 q 399 40 446 -11 l 461 214 l 446 226 m 147 251 q 225 100 147 146 q 469 336 351 225 l 517 540 q 469 617 494 588 q 399 676 444 646 q 214 513 281 628 q 147 251 147 399 m 433 912 q 433 898 433 912 q 414 865 433 885 q 367 846 394 846 q 322 865 340 846 q 303 912 303 885 q 322 958 303 939 q 368 976 340 976 q 415 958 396 976 q 433 912 433 939 m 658 912 q 658 898 658 912 q 639 865 658 885 q 592 846 619 846 q 547 865 565 846 q 528 912 528 885 q 547 958 528 939 q 593 976 565 976 q 640 958 621 976 q 658 912 658 939 z "},"å":{"ha":696,"x_min":40,"x_max":703,"o":"m 446 226 l 264 18 q 100 81 157 19 q 42 251 43 142 q 92 478 40 360 q 229 674 143 597 q 404 750 315 750 q 542 615 486 714 l 543 619 q 565 758 547 711 q 697 714 664 758 l 593 510 q 540 0 568 349 q 399 40 446 -11 l 461 214 l 446 226 m 147 251 q 225 100 147 146 q 469 336 351 225 l 517 540 q 469 617 494 588 q 399 676 444 646 q 214 513 281 628 q 147 251 147 399 m 683 950 q 673 922 683 950 q 613 851 663 893 q 508 808 564 808 q 428 849 453 808 q 424 949 404 889 q 494 1045 446 1003 q 598 1088 542 1088 q 678 1047 654 1088 q 683 950 703 1007 m 531 850 q 575 867 550 850 q 610 949 600 903 q 574 1046 639 1046 q 535 1031 565 1046 q 496 949 513 1000 q 531 850 464 850 z "},"æ":{"ha":1094,"x_min":40,"x_max":1029,"o":"m 147 251 q 225 100 147 146 q 469 336 351 225 q 517 540 474 417 q 469 617 494 588 q 399 676 444 646 q 214 513 281 628 q 147 251 147 399 m 819 686 l 800 682 q 636 544 704 635 q 567 361 568 453 q 919 483 765 410 q 899 606 918 560 q 819 686 879 651 m 446 226 l 264 18 q 100 81 157 19 q 42 251 43 142 q 92 478 40 360 q 229 674 143 597 q 404 750 315 750 q 542 617 485 717 q 565 758 547 713 q 669 728 646 765 l 626 638 q 717 713 661 676 q 822 761 772 749 q 982 645 935 729 q 1021 446 1029 561 q 568 292 793 338 q 738 81 588 135 q 972 210 914 147 q 1008 197 1000 210 q 1014 151 1017 185 q 884 60 975 108 q 725 0 793 11 q 529 147 586 40 l 507 0 q 444 5 465 -4 q 399 40 424 14 l 461 214 l 446 226 z "},"ç":{"ha":671,"x_min":46,"x_max":614,"o":"m 321 -112 q 415 -71 365 -71 q 490 -106 464 -71 q 504 -201 515 -142 q 442 -297 493 -261 q 322 -333 390 -333 q 196 -308 254 -333 q 101 -237 138 -282 q 132 -186 104 -189 q 291 -261 207 -261 q 392 -194 375 -261 q 381 -135 399 -161 q 290 -176 332 -140 q 228 -139 240 -176 l 294 3 q 105 133 164 40 q 53 343 46 225 q 79 475 57 413 q 227 649 138 571 q 425 750 317 726 q 556 675 503 738 q 614 539 608 613 q 553 511 588 517 q 496 519 518 506 q 476 612 493 579 q 418 676 458 644 l 393 674 q 230 535 296 626 q 161 367 164 444 q 188 188 154 256 q 321 79 222 119 q 452 137 386 101 q 551 207 518 172 q 589 194 581 208 q 594 150 597 179 q 393 25 533 83 l 321 -112 z "},"è":{"ha":668,"x_min":42,"x_max":604,"o":"m 382 761 q 554 645 504 729 q 594 446 604 561 q 150 290 361 335 q 197 162 158 213 q 319 81 236 111 q 540 201 469 135 q 576 189 568 201 q 582 143 585 176 q 467 60 554 106 q 315 0 379 14 q 110 123 178 31 q 44 344 42 215 q 71 482 46 400 q 382 761 190 683 m 146 371 l 146 360 q 499 483 321 404 q 477 608 499 563 q 392 686 456 654 l 372 682 q 215 543 281 638 q 146 371 149 449 m 392 814 l 321 915 l 201 1038 q 246 1088 211 1074 q 326 1093 281 1103 l 439 833 q 392 814 432 810 z "},"é":{"ha":668,"x_min":42,"x_max":663,"o":"m 382 761 q 554 645 504 729 q 594 446 604 561 q 150 290 361 335 q 197 162 158 213 q 319 81 236 111 q 540 201 469 135 q 576 189 568 201 q 582 143 585 176 q 467 60 554 106 q 315 0 379 14 q 110 123 178 31 q 44 344 42 215 q 71 482 46 400 q 382 761 190 683 m 146 371 l 146 360 q 499 483 321 404 q 477 608 499 563 q 392 686 456 654 l 372 682 q 215 543 281 638 q 146 371 149 449 m 663 1025 l 442 808 q 396 832 400 808 l 482 961 l 524 1069 q 615 1065 568 1082 q 663 1025 661 1049 z "},"ê":{"ha":668,"x_min":42,"x_max":613,"o":"m 382 761 q 554 645 504 729 q 594 446 604 561 q 150 290 361 335 q 197 162 158 213 q 319 81 236 111 q 540 201 469 135 q 576 189 568 201 q 582 143 585 176 q 467 60 554 106 q 315 0 379 14 q 110 123 178 31 q 44 344 42 215 q 71 482 46 400 q 382 761 190 683 m 146 371 l 146 360 q 499 483 321 404 q 477 608 499 563 q 392 686 456 654 l 372 682 q 215 543 281 638 q 146 371 149 449 m 444 974 l 269 819 q 228 856 231 825 l 424 1036 q 521 1025 485 1051 l 613 833 q 560 813 590 814 q 515 824 529 811 l 444 974 z "},"ë":{"ha":668,"x_min":42,"x_max":604,"o":"m 382 761 q 554 645 504 729 q 594 446 604 561 q 150 290 361 335 q 197 162 158 213 q 319 81 236 111 q 540 201 469 135 q 576 189 568 201 q 582 143 585 176 q 467 60 554 106 q 315 0 379 14 q 110 123 178 31 q 44 344 42 215 q 71 482 46 400 q 382 761 190 683 m 146 371 l 146 360 q 499 483 321 404 q 477 608 499 563 q 392 686 456 654 l 372 682 q 215 543 281 638 q 146 371 149 449 m 350 912 q 350 898 350 912 q 331 865 350 885 q 284 846 311 846 q 238 865 257 846 q 219 912 219 885 q 238 958 219 939 q 285 976 257 976 q 331 958 313 976 q 350 912 350 939 m 575 912 q 575 898 575 912 q 556 865 575 885 q 509 846 536 846 q 463 865 482 846 q 444 912 444 885 q 463 958 444 939 q 510 976 482 976 q 556 958 538 976 q 575 912 575 939 z "},"ì":{"ha":315,"x_min":46,"x_max":289,"o":"m 171 1093 l 283 833 q 236 814 276 810 l 165 915 l 46 1038 q 90 1088 56 1074 q 171 1093 125 1103 m 157 511 l 153 728 q 244 750 215 754 q 289 728 274 746 l 238 547 q 182 0 214 346 q 50 43 81 -10 q 157 511 96 200 z "},"í":{"ha":315,"x_min":50,"x_max":507,"o":"m 157 511 l 153 728 q 244 750 215 754 q 289 728 274 746 l 238 547 q 182 0 214 346 q 50 43 81 -10 q 157 511 96 200 m 368 1069 q 459 1065 413 1082 q 507 1025 506 1049 l 286 808 q 240 832 244 808 l 326 961 l 368 1069 z "},"î":{"ha":315,"x_min":50,"x_max":457,"o":"m 157 511 l 153 728 q 244 750 215 754 q 289 728 274 746 l 238 547 q 182 0 214 346 q 50 43 81 -10 q 157 511 96 200 m 72 856 l 268 1036 q 365 1025 329 1051 l 457 833 q 404 813 435 814 q 360 824 374 811 l 289 974 l 114 819 q 72 856 75 825 z "},"ï":{"ha":315,"x_min":50,"x_max":419,"o":"m 83 958 q 92 967 83 958 q 129 976 101 976 q 176 958 157 976 q 194 912 194 939 q 175 865 194 885 q 128 846 156 846 q 83 865 101 846 q 64 912 64 885 q 83 958 64 939 m 308 958 q 317 967 308 958 q 354 976 326 976 q 401 958 382 976 q 419 912 419 939 q 400 865 419 885 q 353 846 381 846 q 308 865 326 846 q 289 912 289 885 q 308 958 289 939 m 157 511 l 153 728 q 244 750 215 754 q 289 728 274 746 l 238 547 q 182 0 214 346 q 50 43 81 -10 q 157 511 96 200 z "},"ð":{"ha":633,"x_min":44,"x_max":674,"o":"m 510 917 q 575 563 575 749 q 506 224 575 378 q 288 0 436 71 q 107 106 169 24 q 44 314 44 188 q 127 565 44 440 q 360 744 210 689 q 497 592 453 682 q 440 896 492 750 l 264 839 q 222 876 232 850 q 231 917 213 901 l 408 947 l 308 1068 q 339 1106 321 1097 q 394 1113 357 1115 q 485 975 446 1056 l 625 1033 q 661 1008 649 1031 q 658 960 674 986 l 510 917 m 143 301 q 281 76 143 136 q 494 486 471 210 q 428 591 460 553 q 343 658 397 629 q 192 506 242 600 q 143 301 143 413 z "},"ñ":{"ha":694,"x_min":26,"x_max":657,"o":"m 204 539 l 217 531 q 481 750 333 689 q 601 692 556 743 q 657 579 646 640 l 607 456 q 568 0 581 225 q 446 35 483 -10 q 540 574 475 226 q 482 651 532 631 q 218 429 349 593 q 146 0 188 232 q 26 33 57 -8 q 149 517 104 292 l 119 715 q 257 758 178 769 q 242 607 264 725 l 204 539 m 319 917 l 247 818 q 204 829 222 817 q 188 858 186 842 q 225 907 208 888 q 277 952 242 926 q 354 990 313 978 q 504 886 467 944 l 510 885 l 592 981 q 639 974 621 986 q 650 940 657 961 q 496 813 610 871 q 387 860 425 836 q 326 919 349 883 l 319 917 z "},"ò":{"ha":672,"x_min":39,"x_max":628,"o":"m 39 319 q 97 517 39 410 q 240 696 156 624 q 393 768 324 768 q 543 639 463 768 q 626 419 624 510 q 567 231 628 329 q 420 67 507 133 q 264 0 333 0 q 117 97 194 0 q 39 319 39 194 m 382 690 q 214 544 271 628 q 132 346 157 460 q 168 188 138 253 q 263 68 199 122 q 451 201 386 121 q 539 404 515 282 q 485 557 526 478 q 382 690 443 636 m 332 1093 l 444 833 q 397 814 438 810 l 326 915 l 207 1038 q 251 1088 217 1074 q 332 1093 286 1103 z "},"ó":{"ha":672,"x_min":39,"x_max":668,"o":"m 488 961 l 529 1069 q 620 1065 574 1082 q 668 1025 667 1049 l 447 808 q 401 832 406 808 l 488 961 m 39 319 q 97 517 39 410 q 240 696 156 624 q 393 768 324 768 q 543 639 463 768 q 626 419 624 510 q 567 231 628 329 q 420 67 507 133 q 264 0 333 0 q 117 97 194 0 q 39 319 39 194 m 382 690 q 214 544 271 628 q 132 346 157 460 q 168 188 138 253 q 263 68 199 122 q 451 201 386 121 q 539 404 515 282 q 485 557 526 478 q 382 690 443 636 z "},"ô":{"ha":672,"x_min":39,"x_max":628,"o":"m 233 856 l 429 1036 q 526 1025 490 1051 l 618 833 q 565 813 596 814 q 521 824 535 811 l 450 974 l 275 819 q 233 856 236 825 m 39 319 q 97 517 39 410 q 240 696 156 624 q 393 768 324 768 q 543 639 463 768 q 626 419 624 510 q 567 231 628 329 q 420 67 507 133 q 264 0 333 0 q 117 97 194 0 q 39 319 39 194 m 382 690 q 214 544 271 628 q 132 346 157 460 q 168 188 138 253 q 263 68 199 122 q 451 201 386 121 q 539 404 515 282 q 485 557 526 478 q 382 690 443 636 z "},"õ":{"ha":672,"x_min":39,"x_max":657,"o":"m 39 319 q 97 517 39 410 q 240 696 156 624 q 393 768 324 768 q 543 639 463 768 q 626 419 624 510 q 567 231 628 329 q 420 67 507 133 q 264 0 333 0 q 117 97 194 0 q 39 319 39 194 m 382 690 q 214 544 271 628 q 132 346 157 460 q 168 188 138 253 q 263 68 199 122 q 451 201 386 121 q 539 404 515 282 q 485 557 526 478 q 382 690 443 636 m 319 917 l 247 818 q 204 829 222 817 q 188 858 186 842 q 225 907 208 888 q 277 952 242 926 q 354 990 313 978 q 504 886 467 944 l 510 885 l 592 981 q 639 974 621 986 q 650 940 657 961 q 496 813 610 871 q 387 860 425 836 q 326 919 349 883 l 319 917 z "},"ö":{"ha":672,"x_min":39,"x_max":628,"o":"m 244 958 q 253 967 244 958 q 290 976 263 976 q 337 958 318 976 q 356 912 356 939 q 336 865 356 885 q 290 846 317 846 q 244 865 263 846 q 225 912 225 885 q 244 958 225 939 m 469 958 q 478 967 469 958 q 515 976 488 976 q 562 958 543 976 q 581 912 581 939 q 561 865 581 885 q 515 846 542 846 q 469 865 488 846 q 450 912 450 885 q 469 958 450 939 m 39 319 q 97 517 39 410 q 240 696 156 624 q 393 768 324 768 q 543 639 463 768 q 626 419 624 510 q 567 231 628 329 q 420 67 507 133 q 264 0 333 0 q 117 97 194 0 q 39 319 39 194 m 382 690 q 214 544 271 628 q 132 346 157 460 q 168 188 138 253 q 263 68 199 122 q 451 201 386 121 q 539 404 515 282 q 485 557 526 478 q 382 690 443 636 z "},"÷":{"ha":944,"x_min":36,"x_max":922,"o":"m 621 676 q 565 623 601 646 q 500 600 528 600 q 454 617 472 600 q 432 658 436 633 q 467 732 435 696 q 533 772 499 768 q 586 741 558 772 q 621 676 614 710 m 546 211 q 490 158 526 181 q 425 135 453 135 q 379 151 397 135 q 357 193 361 168 q 392 267 360 231 q 458 307 424 303 q 512 276 483 307 q 546 211 540 246 m 906 510 q 917 472 922 500 q 885 414 911 443 l 68 404 q 82 494 36 436 l 489 489 l 906 510 z "},"ø":{"ha":776,"x_min":-6,"x_max":783,"o":"m 332 0 q 248 34 294 0 q 165 124 201 68 l 86 0 q 24 27 44 7 q -6 89 3 47 l 128 200 q 107 319 107 263 q 165 517 107 410 q 308 696 224 624 q 461 768 392 768 q 613 636 531 768 l 700 763 q 783 679 776 751 l 650 568 q 694 404 692 479 q 635 231 696 329 q 487 67 574 133 q 332 0 400 0 m 210 268 l 553 556 q 450 690 513 632 q 281 543 338 626 q 200 346 224 460 q 210 268 203 301 m 576 506 l 226 210 q 331 68 257 131 q 518 201 453 121 q 606 404 583 282 q 576 506 600 446 z "},"ù":{"ha":696,"x_min":39,"x_max":696,"o":"m 471 328 l 471 331 q 564 758 517 578 q 696 714 663 758 l 592 510 q 543 0 561 311 q 419 35 458 -10 l 488 217 l 471 231 q 265 0 388 122 q 39 131 75 26 l 110 371 q 128 758 131 607 q 197 755 171 764 q 257 715 224 746 q 153 154 235 518 q 250 88 171 111 q 471 328 389 213 m 403 814 l 332 915 l 213 1038 q 257 1088 222 1074 q 338 1093 292 1103 l 450 833 q 403 814 443 810 z "},"ú":{"ha":696,"x_min":39,"x_max":696,"o":"m 471 328 l 471 331 q 564 758 517 578 q 696 714 663 758 l 592 510 q 543 0 561 311 q 419 35 458 -10 l 488 217 l 471 231 q 265 0 388 122 q 39 131 75 26 l 110 371 q 128 758 131 607 q 197 755 171 764 q 257 715 224 746 q 153 154 235 518 q 250 88 171 111 q 471 328 389 213 m 674 1025 l 453 808 q 407 832 411 808 l 493 961 l 535 1069 q 626 1065 579 1082 q 674 1025 672 1049 z "},"û":{"ha":696,"x_min":39,"x_max":696,"o":"m 471 328 l 471 331 q 564 758 517 578 q 696 714 663 758 l 592 510 q 543 0 561 311 q 419 35 458 -10 l 488 217 l 471 231 q 265 0 388 122 q 39 131 75 26 l 110 371 q 128 758 131 607 q 197 755 171 764 q 257 715 224 746 q 153 154 235 518 q 250 88 171 111 q 471 328 389 213 m 456 974 l 281 819 q 239 856 242 825 l 435 1036 q 532 1025 496 1051 l 624 833 q 571 813 601 814 q 526 824 540 811 l 456 974 z "},"ü":{"ha":696,"x_min":39,"x_max":696,"o":"m 471 328 l 471 331 q 564 758 517 578 q 696 714 663 758 l 592 510 q 543 0 561 311 q 419 35 458 -10 l 488 217 l 471 231 q 265 0 388 122 q 39 131 75 26 l 110 371 q 128 758 131 607 q 197 755 171 764 q 257 715 224 746 q 153 154 235 518 q 250 88 171 111 q 471 328 389 213 m 361 912 q 361 898 361 912 q 342 865 361 885 q 295 846 322 846 q 249 865 268 846 q 231 912 231 885 q 249 958 231 939 q 296 976 268 976 q 342 958 324 976 q 361 912 361 939 m 586 912 q 586 898 586 912 q 567 865 586 885 q 520 846 547 846 q 474 865 493 846 q 456 912 456 885 q 474 958 456 939 q 521 976 493 976 q 567 958 549 976 q 586 912 586 939 z "},"ý":{"ha":653,"x_min":33,"x_max":690,"o":"m 464 331 q 560 758 521 650 q 690 714 658 758 l 575 482 q 497 38 542 325 q 442 -311 451 -250 q 362 -361 418 -344 q 250 -375 306 -378 q 99 -253 156 -326 q 33 -112 43 -181 q 88 -61 57 -75 q 146 -64 119 -47 q 274 -292 157 -204 q 329 -282 313 -297 q 414 106 378 -126 l 468 204 l 451 219 q 294 64 415 175 q 113 122 169 85 q 40 213 56 158 l 108 411 q 120 594 117 481 q 119 758 124 707 q 190 755 163 764 q 249 715 217 746 q 213 495 229 578 q 151 238 196 413 q 192 182 167 201 q 276 146 218 163 q 464 331 407 244 m 685 1025 l 464 808 q 418 832 422 808 l 504 961 l 546 1069 q 637 1065 590 1082 q 685 1025 683 1049 z "},"þ":{"ha":682,"x_min":-32,"x_max":657,"o":"m 201 546 l 218 529 q 419 750 308 646 q 581 642 532 710 q 657 453 629 575 q 485 151 613 269 q 154 3 358 32 q 88 -374 124 -217 q -32 -340 -4 -382 q 88 192 44 -28 q 183 750 131 411 l 208 1093 q 287 1128 257 1122 q 354 1117 317 1133 l 275 800 l 242 621 l 201 546 m 167 85 q 432 222 331 119 q 558 456 533 324 q 515 578 546 533 q 419 651 483 624 q 214 425 292 529 q 167 85 207 381 z "},"ÿ":{"ha":653,"x_min":33,"x_max":690,"o":"m 464 331 q 560 758 521 650 q 690 714 658 758 l 575 482 q 497 38 542 325 q 442 -311 451 -250 q 362 -361 418 -344 q 250 -375 306 -378 q 99 -253 156 -326 q 33 -112 43 -181 q 88 -61 57 -75 q 146 -64 119 -47 q 274 -292 157 -204 q 329 -282 313 -297 q 414 106 378 -126 l 468 204 l 451 219 q 294 64 415 175 q 113 122 169 85 q 40 213 56 158 l 108 411 q 120 594 117 481 q 119 758 124 707 q 190 755 163 764 q 249 715 217 746 q 213 495 229 578 q 151 238 196 413 q 192 182 167 201 q 276 146 218 163 q 464 331 407 244 m 372 912 q 372 898 372 912 q 353 865 372 885 q 306 846 333 846 q 260 865 279 846 q 242 912 242 885 q 260 958 242 939 q 307 976 279 976 q 353 958 335 976 q 372 912 372 939 m 597 912 q 597 898 597 912 q 578 865 597 885 q 531 846 558 846 q 485 865 504 846 q 467 912 467 885 q 485 958 467 939 q 532 976 504 976 q 578 958 560 976 q 597 912 597 939 z "},"Ā":{"ha":788,"x_min":-15,"x_max":818,"o":"m 624 471 l 765 500 q 780 460 782 489 q 756 401 778 432 l 629 394 l 658 0 q 539 35 574 -10 l 538 389 l 351 379 l 268 367 l 100 0 q -15 33 10 -8 l 154 350 l 44 333 q 54 431 8 381 l 200 438 l 292 608 l 450 986 q 622 1006 526 1035 l 601 764 l 624 471 m 303 443 l 538 454 l 522 897 l 510 894 l 303 443 m 761 1140 l 364 1129 q 379 1211 336 1157 l 590 1204 l 782 1225 q 761 1140 818 1204 z "},"ā":{"ha":696,"x_min":40,"x_max":714,"o":"m 446 226 l 264 18 q 100 81 157 19 q 42 251 43 142 q 92 478 40 360 q 229 674 143 597 q 404 750 315 750 q 542 615 486 714 l 543 619 q 565 758 547 711 q 697 714 664 758 l 593 510 q 540 0 568 349 q 399 40 446 -11 l 461 214 l 446 226 m 147 251 q 225 100 147 146 q 469 336 351 225 l 517 540 q 469 617 494 588 q 399 676 444 646 q 214 513 281 628 q 147 251 147 399 m 657 860 l 260 849 q 275 931 232 876 l 486 924 l 678 944 q 657 860 714 924 z "},"Ă":{"ha":788,"x_min":-15,"x_max":782,"o":"m 624 471 l 765 500 q 780 460 782 489 q 756 401 778 432 l 629 394 l 658 0 q 539 35 574 -10 l 538 389 l 351 379 l 268 367 l 100 0 q -15 33 10 -8 l 154 350 l 44 333 q 54 431 8 381 l 200 438 l 292 608 l 450 986 q 622 1006 526 1035 l 601 764 l 624 471 m 303 443 l 538 454 l 522 897 l 510 894 l 303 443 m 606 1110 q 417 1271 463 1110 q 464 1282 429 1282 q 558 1182 490 1203 q 665 1282 654 1199 q 779 1253 744 1304 q 717 1149 764 1189 q 606 1110 669 1110 z "},"ă":{"ha":696,"x_min":40,"x_max":697,"o":"m 446 226 l 264 18 q 100 81 157 19 q 42 251 43 142 q 92 478 40 360 q 229 674 143 597 q 404 750 315 750 q 542 615 486 714 l 543 619 q 565 758 547 711 q 697 714 664 758 l 593 510 q 540 0 568 349 q 399 40 446 -11 l 461 214 l 446 226 m 147 251 q 225 100 147 146 q 469 336 351 225 l 517 540 q 469 617 494 588 q 399 676 444 646 q 214 513 281 628 q 147 251 147 399 m 501 829 q 313 990 358 829 q 360 1001 325 1001 q 454 901 386 922 q 561 1001 550 918 q 675 972 640 1024 q 613 869 660 908 q 501 829 565 829 z "},"Ą":{"ha":788,"x_min":-15,"x_max":782,"o":"m 479 -153 q 584 -204 506 -204 q 719 -156 663 -204 q 757 -190 750 -158 q 575 -275 678 -275 q 459 -241 511 -275 q 407 -158 407 -207 q 451 -61 407 -110 q 558 17 496 -12 q 539 35 544 28 l 538 389 l 351 379 l 268 367 l 100 0 q -15 33 10 -8 l 154 350 l 44 333 q 54 431 8 381 l 200 438 l 292 608 l 450 986 q 622 1006 526 1035 l 601 764 l 624 471 l 765 500 q 780 460 782 489 q 756 401 778 432 l 629 394 l 658 0 q 540 -54 589 -6 q 479 -153 492 -103 m 303 443 l 538 454 l 522 897 l 510 894 l 303 443 z "},"ą":{"ha":689,"x_min":40,"x_max":697,"o":"m 446 226 l 264 18 q 100 81 157 19 q 42 251 43 142 q 92 478 40 360 q 229 674 143 597 q 404 750 315 750 q 542 615 486 714 l 543 619 q 565 758 547 711 q 697 714 664 758 l 593 510 q 540 0 568 349 q 356 -178 388 -40 q 468 -206 400 -212 q 578 -156 536 -200 q 615 -190 608 -158 q 440 -275 549 -275 q 326 -243 369 -275 q 283 -162 283 -211 q 324 -64 283 -114 q 429 17 365 -14 q 399 40 410 28 l 461 214 l 446 226 m 147 251 q 225 100 147 146 q 469 336 351 225 l 517 540 q 469 617 494 588 q 399 676 444 646 q 214 513 281 628 q 147 251 147 399 z "},"Ć":{"ha":806,"x_min":58,"x_max":788,"o":"m 557 942 q 278 753 396 901 q 161 452 161 604 q 221 217 161 300 q 411 86 281 135 q 555 167 483 117 q 664 263 626 217 q 715 250 696 271 q 731 204 733 229 q 603 96 692 154 q 426 0 515 38 q 146 162 231 51 q 58 442 61 272 q 150 743 58 575 q 599 1033 349 992 q 728 928 679 1003 q 783 774 778 853 q 650 744 715 721 q 578 943 638 876 l 557 942 m 649 1350 q 740 1346 693 1363 q 788 1306 786 1329 l 567 1089 q 521 1113 525 1089 l 607 1242 l 649 1350 z "},"ć":{"ha":671,"x_min":46,"x_max":704,"o":"m 425 750 q 556 675 503 738 q 614 539 608 613 q 553 511 588 517 q 496 519 518 506 q 476 612 493 579 q 418 676 458 644 l 393 674 q 230 535 296 626 q 161 367 164 444 q 188 188 154 256 q 321 79 222 119 q 452 137 386 101 q 551 207 518 172 q 589 194 581 208 q 594 150 597 179 q 465 58 554 106 q 307 0 375 11 q 108 128 171 35 q 53 343 46 222 q 79 475 57 413 q 227 649 138 571 q 425 750 317 726 m 565 1069 q 656 1065 610 1082 q 704 1025 703 1049 l 483 808 q 438 832 442 808 l 524 961 l 565 1069 z "},"Č":{"ha":806,"x_min":58,"x_max":783,"o":"m 557 942 q 278 753 396 901 q 161 452 161 604 q 221 217 161 300 q 411 86 281 135 q 555 167 483 117 q 664 263 626 217 q 715 250 696 271 q 731 204 733 229 q 603 96 692 154 q 426 0 515 38 q 146 162 231 51 q 58 442 61 272 q 150 743 58 575 q 599 1033 349 992 q 728 928 679 1003 q 783 774 778 853 q 650 744 715 721 q 578 943 638 876 l 557 942 m 556 1100 q 458 1111 496 1083 l 374 1269 q 429 1286 393 1301 l 499 1149 l 640 1299 q 729 1261 717 1321 l 556 1100 z "},"č":{"ha":671,"x_min":46,"x_max":646,"o":"m 425 750 q 556 675 503 738 q 614 539 608 613 q 553 511 588 517 q 496 519 518 506 q 476 612 493 579 q 418 676 458 644 l 393 674 q 230 535 296 626 q 161 367 164 444 q 188 188 154 256 q 321 79 222 119 q 452 137 386 101 q 551 207 518 172 q 589 194 581 208 q 594 150 597 179 q 465 58 554 106 q 307 0 375 11 q 108 128 171 35 q 53 343 46 222 q 79 475 57 413 q 227 649 138 571 q 425 750 317 726 m 472 819 q 375 831 413 803 l 290 989 q 346 1006 310 1021 l 415 868 l 557 1018 q 646 981 633 1040 l 472 819 z "},"Ď":{"ha":858,"x_min":69,"x_max":840,"o":"m 396 1021 q 717 896 600 1021 q 838 574 833 771 q 763 277 840 411 q 529 57 685 143 q 186 0 364 1 q 69 86 93 25 q 221 693 175 436 l 224 919 l 174 908 q 140 956 144 928 q 150 1000 135 983 q 396 1021 249 1021 m 263 493 l 208 99 q 496 128 379 99 q 672 319 618 215 q 724 558 726 424 q 623 834 719 729 q 357 925 526 939 q 263 493 278 571 m 646 1261 l 472 1100 q 375 1111 413 1083 l 290 1269 q 346 1286 310 1301 l 415 1149 l 557 1299 q 646 1261 633 1321 z "},"ď":{"ha":799,"x_min":40,"x_max":940,"o":"m 826 1082 l 794 1238 q 881 1255 839 1271 q 940 1190 922 1239 q 890 1060 933 1128 q 796 947 847 993 q 751 967 765 944 l 826 1082 m 447 228 l 264 18 q 100 81 157 19 q 42 251 43 142 q 92 478 40 360 q 229 674 143 597 q 399 750 315 750 q 538 631 482 750 q 563 750 554 708 l 569 1093 q 652 1128 622 1122 q 719 1117 682 1133 l 639 806 q 519 0 585 399 q 400 33 428 -8 l 463 214 l 447 228 m 147 251 q 225 100 147 146 q 469 336 351 225 l 517 540 q 460 634 486 604 q 406 683 435 664 q 217 516 286 635 q 147 251 147 397 z "},"Đ":{"ha":858,"x_min":21,"x_max":840,"o":"m 396 1021 q 717 896 600 1021 q 838 574 833 771 q 763 277 840 411 q 529 57 685 143 q 186 0 364 1 q 69 86 93 25 q 181 489 144 333 l 54 479 q 24 524 26 497 q 42 563 21 551 l 193 551 q 221 693 211 636 l 224 919 l 174 908 q 140 956 144 928 q 150 1000 135 983 q 396 1021 249 1021 m 263 496 l 263 493 l 208 99 q 496 128 379 99 q 672 319 618 215 q 724 558 726 424 q 623 834 719 729 q 357 925 526 939 q 315 734 343 861 q 275 553 286 607 l 518 576 q 547 543 540 567 q 531 499 553 519 l 264 496 l 263 496 z "},"đ":{"ha":642,"x_min":40,"x_max":867,"o":"m 447 228 l 264 18 q 100 81 157 19 q 42 251 43 142 q 92 478 40 360 q 229 674 143 597 q 399 750 315 750 q 538 631 482 750 q 563 750 554 708 l 564 853 l 413 849 q 428 931 385 876 l 567 926 l 569 1093 q 652 1128 622 1122 q 719 1117 682 1133 l 671 926 l 831 944 q 810 860 867 924 l 651 856 l 639 806 q 519 0 585 399 q 400 33 428 -8 l 463 214 l 447 228 m 147 251 q 225 100 147 146 q 469 336 351 225 l 517 540 q 460 634 486 604 q 406 683 435 664 q 217 516 286 635 q 147 251 147 397 z "},"Ē":{"ha":690,"x_min":57,"x_max":758,"o":"m 686 1225 q 665 1140 722 1204 l 268 1129 q 283 1211 240 1157 l 494 1204 l 686 1225 m 286 540 q 586 567 569 564 q 594 515 599 549 q 571 451 590 482 q 274 461 371 465 l 176 93 q 563 157 350 115 q 590 108 592 143 q 568 40 589 74 l 164 0 q 57 92 58 29 q 225 683 175 401 l 251 907 q 188 922 232 919 q 188 993 163 968 q 731 1011 413 1015 q 746 938 758 990 q 696 854 733 885 l 608 911 q 367 918 483 931 l 326 767 l 286 540 z "},"ē":{"ha":668,"x_min":42,"x_max":631,"o":"m 382 761 q 554 645 504 729 q 594 446 604 561 q 150 290 361 335 q 197 162 158 213 q 319 81 236 111 q 540 201 469 135 q 576 189 568 201 q 582 143 585 176 q 467 60 554 106 q 315 0 379 14 q 110 123 178 31 q 44 344 42 215 q 71 482 46 400 q 382 761 190 683 m 146 371 l 146 360 q 499 483 321 404 q 477 608 499 563 q 392 686 456 654 l 372 682 q 215 543 281 638 q 146 371 149 449 m 574 860 l 176 849 q 192 931 149 876 l 403 924 l 594 944 q 574 860 631 924 z "},"Ė":{"ha":690,"x_min":57,"x_max":758,"o":"m 576 1192 q 576 1179 576 1192 q 557 1146 576 1165 q 510 1126 538 1126 q 465 1146 483 1126 q 446 1192 446 1165 q 465 1238 446 1219 q 511 1257 483 1257 q 558 1238 539 1257 q 576 1192 576 1219 m 286 540 q 586 567 569 564 q 594 515 599 549 q 571 451 590 482 q 274 461 371 465 l 176 93 q 563 157 350 115 q 590 108 592 143 q 568 40 589 74 l 164 0 q 57 92 58 29 q 225 683 175 401 l 251 907 q 188 922 232 919 q 188 993 163 968 q 731 1011 413 1015 q 746 938 758 990 q 696 854 733 885 l 608 911 q 367 918 483 931 l 326 767 l 286 540 z "},"ė":{"ha":668,"x_min":42,"x_max":604,"o":"m 382 761 q 554 645 504 729 q 594 446 604 561 q 150 290 361 335 q 197 162 158 213 q 319 81 236 111 q 540 201 469 135 q 576 189 568 201 q 582 143 585 176 q 467 60 554 106 q 315 0 379 14 q 110 123 178 31 q 44 344 42 215 q 71 482 46 400 q 382 761 190 683 m 146 371 l 146 360 q 499 483 321 404 q 477 608 499 563 q 392 686 456 654 l 372 682 q 215 543 281 638 q 146 371 149 449 m 485 912 q 485 898 485 912 q 465 865 485 885 q 419 846 446 846 q 373 865 392 846 q 354 912 354 885 q 373 958 354 939 q 419 976 392 976 q 466 958 447 976 q 485 912 485 939 z "},"Ę":{"ha":681,"x_min":57,"x_max":758,"o":"m 286 540 q 586 567 569 564 q 594 515 599 549 q 571 451 590 482 q 274 461 371 465 l 176 93 q 563 157 350 115 q 590 108 592 143 q 568 40 589 74 q 431 -44 501 18 q 356 -157 360 -106 q 467 -208 389 -208 q 611 -156 544 -208 q 638 -162 629 -154 q 649 -190 646 -171 q 467 -275 582 -275 q 337 -239 392 -275 q 282 -147 282 -203 q 429 26 282 -61 l 164 0 q 57 92 58 29 q 225 683 175 401 l 251 907 q 188 922 232 919 q 188 993 163 968 q 731 1011 413 1015 q 746 938 758 990 q 696 854 733 885 l 608 911 q 367 918 483 931 l 326 767 l 286 540 z "},"ę":{"ha":665,"x_min":42,"x_max":604,"o":"m 344 -204 q 481 -156 414 -204 q 518 -190 517 -153 q 321 -275 439 -275 q 196 -237 249 -275 q 143 -147 143 -200 q 254 18 143 -57 q 94 144 147 58 q 44 344 42 231 q 71 482 46 400 q 382 761 190 683 q 554 645 504 729 q 594 446 604 561 q 150 290 361 335 q 197 162 158 213 q 319 81 236 111 q 540 201 469 135 q 576 189 568 201 q 582 143 585 176 q 381 21 539 83 q 280 -53 326 0 q 222 -153 233 -106 q 344 -204 250 -204 m 146 371 l 146 360 q 499 483 321 404 q 477 608 499 563 q 392 686 456 654 l 372 682 q 215 543 281 638 q 146 371 149 449 z "},"Ě":{"ha":690,"x_min":57,"x_max":758,"o":"m 286 540 q 586 567 569 564 q 594 515 599 549 q 571 451 590 482 q 274 461 371 465 l 176 93 q 563 157 350 115 q 590 108 592 143 q 568 40 589 74 l 164 0 q 57 92 58 29 q 225 683 175 401 l 251 907 q 188 922 232 919 q 188 993 163 968 q 731 1011 413 1015 q 746 938 758 990 q 696 854 733 885 l 608 911 q 367 918 483 931 l 326 767 l 286 540 m 522 1100 q 425 1111 463 1083 l 340 1269 q 396 1286 360 1301 l 465 1149 l 607 1299 q 696 1261 683 1321 l 522 1100 z "},"ě":{"ha":668,"x_min":42,"x_max":604,"o":"m 382 761 q 554 645 504 729 q 594 446 604 561 q 150 290 361 335 q 197 162 158 213 q 319 81 236 111 q 540 201 469 135 q 576 189 568 201 q 582 143 585 176 q 467 60 554 106 q 315 0 379 14 q 110 123 178 31 q 44 344 42 215 q 71 482 46 400 q 382 761 190 683 m 146 371 l 146 360 q 499 483 321 404 q 477 608 499 563 q 392 686 456 654 l 372 682 q 215 543 281 638 q 146 371 149 449 m 604 981 l 431 819 q 333 831 371 803 l 249 989 q 304 1006 268 1021 l 374 868 l 515 1018 q 604 981 592 1040 z "},"Ğ":{"ha":856,"x_min":75,"x_max":821,"o":"m 647 1110 q 458 1271 504 1110 q 506 1282 471 1282 q 600 1182 532 1203 q 707 1282 696 1199 q 821 1253 786 1304 q 758 1149 806 1189 q 647 1110 711 1110 m 286 164 q 429 86 336 128 q 692 431 604 239 l 686 438 l 456 399 q 429 458 431 429 q 453 508 428 488 q 768 508 601 482 q 793 419 789 467 q 779 294 797 372 q 747 168 761 215 q 692 0 732 121 q 599 36 621 -6 q 721 343 699 240 l 710 346 q 444 0 622 124 q 162 158 244 60 q 76 424 79 257 q 168 725 75 556 q 617 1031 326 982 q 747 925 697 1000 q 801 771 796 850 q 668 742 733 718 q 596 940 656 871 l 575 939 q 296 748 413 899 q 179 420 179 597 q 286 164 179 243 z "},"ğ":{"ha":658,"x_min":40,"x_max":696,"o":"m 446 226 l 264 18 q 100 81 157 19 q 42 251 43 142 q 92 478 40 360 q 229 674 143 597 q 400 750 315 750 q 543 619 485 750 q 565 758 547 711 q 696 714 664 758 l 581 467 q 522 171 549 338 q 475 -132 496 4 q 446 -318 454 -268 q 373 -359 426 -342 q 275 -375 319 -376 q 123 -255 179 -328 q 57 -112 67 -182 q 113 -61 82 -75 q 169 -64 143 -47 q 297 -292 181 -201 q 335 -282 317 -293 q 410 69 374 -149 l 461 214 l 446 226 m 147 251 q 225 100 147 146 q 469 336 351 225 l 517 540 q 460 634 486 604 q 406 683 435 664 q 217 516 286 635 q 147 251 147 397 m 474 829 q 285 990 331 829 q 332 1001 297 1001 q 426 901 358 922 q 533 1001 522 918 q 647 972 613 1024 q 585 869 632 908 q 474 829 538 829 z "},"Ģ":{"ha":856,"x_min":75,"x_max":801,"o":"m 286 164 q 429 86 336 128 q 692 431 604 239 l 686 438 l 456 399 q 429 458 431 429 q 453 508 428 488 q 768 508 601 482 q 793 419 789 467 q 779 294 797 372 q 747 168 761 215 q 692 0 732 121 q 599 36 621 -6 q 721 343 699 240 l 710 346 q 444 0 622 124 q 162 158 244 60 q 76 424 79 257 q 168 725 75 556 q 617 1031 326 982 q 747 925 697 1000 q 801 771 796 850 q 668 742 733 718 q 596 940 656 871 l 575 939 q 296 748 413 899 q 179 420 179 597 q 286 164 179 243 m 353 -340 q 308 -321 322 -343 l 383 -206 l 351 -50 q 438 -33 396 -17 q 497 -97 479 -49 q 447 -227 490 -160 q 353 -340 404 -294 z "},"ģ":{"ha":658,"x_min":40,"x_max":696,"o":"m 446 226 l 264 18 q 100 81 157 19 q 42 251 43 142 q 92 478 40 360 q 229 674 143 597 q 400 750 315 750 q 543 619 485 750 q 565 758 547 711 q 696 714 664 758 l 581 467 q 522 171 549 338 q 475 -132 496 4 q 446 -318 454 -268 q 373 -359 426 -342 q 275 -375 319 -376 q 123 -255 179 -328 q 57 -112 67 -182 q 113 -61 82 -75 q 169 -64 143 -47 q 297 -292 181 -201 q 335 -282 317 -293 q 410 69 374 -149 l 461 214 l 446 226 m 147 251 q 225 100 147 146 q 469 336 351 225 l 517 540 q 460 634 486 604 q 406 683 435 664 q 217 516 286 635 q 147 251 147 397 m 481 993 l 521 864 q 447 813 493 821 q 374 835 400 804 q 497 1144 350 982 q 551 1124 531 1147 l 481 993 z "},"Ī":{"ha":313,"x_min":11,"x_max":493,"o":"m 457 1225 q 436 1140 493 1204 l 39 1129 q 54 1211 11 1157 l 265 1204 l 457 1225 m 190 986 q 278 1021 247 1021 q 336 1008 308 1021 l 232 557 q 200 297 225 486 q 164 0 175 107 q 32 43 63 -10 q 169 690 133 460 l 190 986 z "},"ī":{"ha":315,"x_min":-7,"x_max":475,"o":"m 439 944 q 418 860 475 924 l 21 849 q 36 931 -7 876 l 247 924 l 439 944 m 157 511 l 153 728 q 244 750 215 754 q 289 728 274 746 l 238 547 q 182 0 214 346 q 50 43 81 -10 q 157 511 96 200 z "},"Į":{"ha":313,"x_min":-56,"x_max":336,"o":"m 15 -174 q 126 -210 51 -210 q 257 -156 200 -210 q 294 -190 288 -158 q 113 -275 215 -275 q -12 -241 31 -275 q -56 -158 -56 -207 q -23 -65 -56 -110 q 69 10 10 -21 q 32 43 44 21 q 169 690 133 460 l 190 986 q 278 1021 247 1021 q 336 1008 308 1021 l 232 557 q 200 297 225 486 q 164 0 175 107 q 59 -70 101 -25 q 15 -174 17 -115 z "},"į":{"ha":315,"x_min":-46,"x_max":313,"o":"m 26 -169 q 140 -210 58 -210 q 275 -156 221 -210 q 313 -190 306 -158 q 235 -251 283 -228 q 117 -275 186 -275 q 1 -240 47 -275 q -46 -156 -46 -204 q -10 -63 -46 -108 q 86 11 26 -18 q 50 43 61 22 q 157 511 96 200 l 153 728 q 244 750 215 754 q 289 728 274 746 l 238 547 q 182 0 214 346 q 26 -169 44 -57 m 309 887 q 310 871 309 887 q 290 834 311 856 q 238 813 269 813 q 183 834 206 813 q 159 887 161 856 q 178 939 157 918 q 232 960 200 960 q 285 939 264 960 q 309 887 307 918 z "},"İ":{"ha":313,"x_min":32,"x_max":347,"o":"m 347 1192 q 347 1179 347 1192 q 328 1146 347 1165 q 281 1126 308 1126 q 235 1146 254 1126 q 217 1192 217 1165 q 235 1238 217 1219 q 282 1257 254 1257 q 328 1238 310 1257 q 347 1192 347 1219 m 190 986 q 278 1021 247 1021 q 336 1008 308 1021 l 232 557 q 200 297 225 486 q 164 0 175 107 q 32 43 63 -10 q 169 690 133 460 l 190 986 z "},"ı":{"ha":315,"x_min":50,"x_max":289,"o":"m 157 511 l 153 728 q 244 750 215 754 q 289 728 274 746 l 238 547 q 182 0 214 346 q 50 43 81 -10 q 157 511 96 200 z "},"Ķ":{"ha":817,"x_min":51,"x_max":822,"o":"m 210 986 q 297 1021 267 1021 q 356 1008 328 1021 l 251 557 l 250 544 l 436 672 l 744 1021 q 797 1000 781 1015 q 822 954 814 985 q 601 737 749 867 q 328 528 453 607 q 715 106 451 214 q 653 0 742 33 q 440 198 539 63 q 271 500 340 333 l 243 478 q 215 268 238 435 q 183 0 193 101 q 51 43 82 -10 q 189 690 153 460 l 210 986 m 310 -206 l 278 -50 q 364 -33 322 -17 q 424 -97 406 -49 q 374 -227 417 -160 q 279 -340 331 -294 q 235 -321 249 -343 l 310 -206 z "},"ķ":{"ha":675,"x_min":4,"x_max":619,"o":"m 176 506 l 182 494 q 563 750 360 644 q 608 715 596 744 q 604 653 619 686 q 210 435 347 550 q 593 93 324 215 q 589 42 607 68 q 529 0 571 17 q 344 141 438 53 q 182 329 250 229 q 124 0 156 190 q 4 33 32 -8 q 168 822 93 335 l 154 1086 q 289 1126 208 1136 q 211 554 288 1013 l 176 506 m 240 -206 l 208 -50 q 294 -33 253 -17 q 354 -97 336 -49 q 304 -227 347 -160 q 210 -340 261 -294 q 165 -321 179 -343 l 240 -206 z "},"Ĺ":{"ha":619,"x_min":17,"x_max":565,"o":"m 190 986 q 268 1021 238 1015 q 336 1008 299 1026 l 228 519 l 136 89 q 538 154 308 110 q 564 106 565 139 q 543 43 563 74 l 124 0 q 17 88 18 26 q 172 690 99 304 l 190 986 m 357 1350 q 448 1346 401 1363 q 496 1306 494 1329 l 275 1089 q 229 1113 233 1089 l 315 1242 l 357 1350 z "},"ĺ":{"ha":340,"x_min":56,"x_max":526,"o":"m 200 750 l 217 1093 q 295 1128 265 1122 q 361 1117 325 1133 l 281 806 q 188 0 246 496 q 56 43 86 -10 q 200 750 150 413 m 388 1433 q 478 1429 432 1446 q 526 1389 525 1413 l 306 1172 q 260 1196 264 1172 l 346 1325 l 388 1433 z "},"Ļ":{"ha":619,"x_min":17,"x_max":565,"o":"m 190 986 q 268 1021 238 1015 q 336 1008 299 1026 l 228 519 l 136 89 q 538 154 308 110 q 564 106 565 139 q 543 43 563 74 l 124 0 q 17 88 18 26 q 172 690 99 304 l 190 986 m 210 -340 q 165 -321 179 -343 l 240 -206 l 208 -50 q 294 -33 253 -17 q 354 -97 336 -49 q 304 -227 347 -160 q 210 -340 261 -294 z "},"ļ":{"ha":340,"x_min":1,"x_max":361,"o":"m 200 750 l 217 1093 q 295 1128 265 1122 q 361 1117 325 1133 l 281 806 q 188 0 246 496 q 56 43 86 -10 q 200 750 150 413 m 46 -340 q 1 -321 15 -343 l 76 -206 l 44 -50 q 131 -33 89 -17 q 190 -97 172 -49 q 140 -227 183 -160 q 46 -340 97 -294 z "},"Ľ":{"ha":619,"x_min":17,"x_max":613,"o":"m 190 986 q 268 1021 238 1015 q 336 1008 299 1026 l 228 519 l 136 89 q 538 154 308 110 q 564 106 565 139 q 543 43 563 74 l 124 0 q 17 88 18 26 q 172 690 99 304 l 190 986 m 468 836 q 424 856 438 833 l 499 971 l 467 1126 q 553 1144 511 1160 q 613 1079 594 1128 q 563 949 606 1017 q 468 836 519 882 z "},"ľ":{"ha":435,"x_min":56,"x_max":576,"o":"m 200 750 l 217 1093 q 295 1128 265 1122 q 361 1117 325 1133 l 281 806 q 188 0 246 496 q 56 43 86 -10 q 200 750 150 413 m 432 947 q 388 967 401 944 l 463 1082 l 431 1238 q 517 1255 475 1271 q 576 1190 558 1239 q 526 1060 569 1128 q 432 947 483 993 z "},"Ł":{"ha":696,"x_min":42,"x_max":642,"o":"m 300 499 l 213 89 q 614 154 385 110 q 640 106 642 139 q 619 43 639 74 l 200 0 q 93 88 94 26 q 206 475 156 253 l 89 443 q 50 482 58 457 q 61 522 42 507 l 218 536 q 249 690 231 593 l 267 986 q 344 1021 314 1015 q 413 1008 375 1026 l 315 568 l 461 617 q 494 590 483 614 q 489 543 504 567 l 300 499 z "},"ł":{"ha":490,"x_min":49,"x_max":508,"o":"m 332 604 l 461 658 q 497 633 485 654 q 493 585 508 611 l 324 536 q 261 0 299 318 q 129 43 160 -10 q 233 508 199 317 l 99 464 q 58 501 67 475 q 67 542 49 526 l 246 574 q 274 750 249 592 l 290 1093 q 369 1128 339 1122 q 435 1117 399 1133 l 354 806 q 332 604 347 747 z "},"Ń":{"ha":869,"x_min":8,"x_max":915,"o":"m 769 986 q 858 1021 826 1021 q 915 1008 889 1021 l 807 557 q 773 303 800 493 q 733 0 746 114 q 603 33 647 -7 q 276 849 432 363 l 214 557 q 181 298 207 488 q 142 0 154 108 q 8 43 42 -10 q 106 442 81 324 q 153 690 131 561 l 176 986 q 265 1021 236 1021 q 322 1008 294 1021 q 557 326 421 658 l 643 175 q 668 288 651 214 q 694 408 685 363 q 746 690 724 549 l 769 986 m 826 1306 l 606 1089 q 560 1113 564 1089 l 646 1242 l 688 1350 q 778 1346 732 1363 q 826 1306 825 1329 z "},"ń":{"ha":694,"x_min":26,"x_max":668,"o":"m 204 539 l 217 531 q 481 750 333 689 q 601 692 556 743 q 657 579 646 640 l 607 456 q 568 0 581 225 q 446 35 483 -10 q 540 574 475 226 q 482 651 532 631 q 218 429 349 593 q 146 0 188 232 q 26 33 57 -8 q 149 517 104 292 l 119 715 q 257 758 178 769 q 242 607 264 725 l 204 539 m 668 1025 l 447 808 q 401 832 406 808 l 488 961 l 529 1069 q 620 1065 574 1082 q 668 1025 667 1049 z "},"Ņ":{"ha":869,"x_min":8,"x_max":915,"o":"m 769 986 q 858 1021 826 1021 q 915 1008 889 1021 l 807 557 q 773 303 800 493 q 733 0 746 114 q 603 33 647 -7 q 276 849 432 363 l 214 557 q 181 298 207 488 q 142 0 154 108 q 8 43 42 -10 q 106 442 81 324 q 153 690 131 561 l 176 986 q 265 1021 236 1021 q 322 1008 294 1021 q 557 326 421 658 l 643 175 q 668 288 651 214 q 694 408 685 363 q 746 690 724 549 l 769 986 m 338 -206 l 306 -50 q 392 -33 350 -17 q 451 -97 433 -49 q 401 -227 444 -160 q 307 -340 358 -294 q 263 -321 276 -343 l 338 -206 z "},"ņ":{"ha":694,"x_min":26,"x_max":657,"o":"m 204 539 l 217 531 q 481 750 333 689 q 601 692 556 743 q 657 579 646 640 l 607 456 q 568 0 581 225 q 446 35 483 -10 q 540 574 475 226 q 482 651 532 631 q 218 429 349 593 q 146 0 188 232 q 26 33 57 -8 q 149 517 104 292 l 119 715 q 257 758 178 769 q 242 607 264 725 l 204 539 m 272 -206 l 240 -50 q 326 -33 285 -17 q 386 -97 368 -49 q 336 -227 379 -160 q 242 -340 293 -294 q 197 -321 211 -343 l 272 -206 z "},"Ň":{"ha":869,"x_min":8,"x_max":915,"o":"m 769 986 q 858 1021 826 1021 q 915 1008 889 1021 l 807 557 q 773 303 800 493 q 733 0 746 114 q 603 33 647 -7 q 276 849 432 363 l 214 557 q 181 298 207 488 q 142 0 154 108 q 8 43 42 -10 q 106 442 81 324 q 153 690 131 561 l 176 986 q 265 1021 236 1021 q 322 1008 294 1021 q 557 326 421 658 l 643 175 q 668 288 651 214 q 694 408 685 363 q 746 690 724 549 l 769 986 m 768 1261 l 594 1100 q 497 1111 535 1083 l 413 1269 q 468 1286 432 1301 l 538 1149 l 679 1299 q 768 1261 756 1321 z "},"ň":{"ha":694,"x_min":26,"x_max":657,"o":"m 204 539 l 217 531 q 481 750 333 689 q 601 692 556 743 q 657 579 646 640 l 607 456 q 568 0 581 225 q 446 35 483 -10 q 540 574 475 226 q 482 651 532 631 q 218 429 349 593 q 146 0 188 232 q 26 33 57 -8 q 149 517 104 292 l 119 715 q 257 758 178 769 q 242 607 264 725 l 204 539 m 610 981 l 436 819 q 339 831 376 803 l 254 989 q 310 1006 274 1021 l 379 868 l 521 1018 q 610 981 597 1040 z "},"Ō":{"ha":843,"x_min":72,"x_max":815,"o":"m 715 499 q 658 763 697 653 q 540 950 618 874 q 279 736 378 874 q 181 436 181 599 q 233 220 182 322 q 378 72 283 118 q 589 251 513 150 q 715 499 665 353 m 549 1021 q 672 943 610 1021 q 773 744 733 865 q 814 504 813 624 q 740 296 815 417 q 561 88 665 175 q 381 0 457 0 q 231 69 304 0 q 116 234 157 139 q 74 413 75 329 q 144 703 72 560 q 327 933 215 846 q 549 1021 439 1021 m 765 1228 q 744 1143 801 1207 l 347 1132 q 363 1214 319 1160 l 574 1207 l 765 1228 z "},"ō":{"ha":672,"x_min":39,"x_max":636,"o":"m 408 924 l 600 944 q 579 860 636 924 l 182 849 q 197 931 154 876 l 408 924 m 39 319 q 97 517 39 410 q 240 696 156 624 q 393 768 324 768 q 543 639 463 768 q 626 419 624 510 q 567 231 628 329 q 420 67 507 133 q 264 0 333 0 q 117 97 194 0 q 39 319 39 194 m 382 690 q 214 544 271 628 q 132 346 157 460 q 168 188 138 253 q 263 68 199 122 q 451 201 386 121 q 539 404 515 282 q 485 557 526 478 q 382 690 443 636 z "},"Ő":{"ha":843,"x_min":72,"x_max":822,"o":"m 715 499 q 658 763 697 653 q 540 950 618 874 q 279 736 378 874 q 181 436 181 599 q 233 220 182 322 q 378 72 283 118 q 589 251 513 150 q 715 499 665 353 m 549 1021 q 672 943 610 1021 q 773 744 733 865 q 814 504 813 624 q 740 296 815 417 q 561 88 665 175 q 381 0 457 0 q 231 69 304 0 q 116 234 157 139 q 74 413 75 329 q 144 703 72 560 q 327 933 215 846 q 549 1021 439 1021 m 729 1321 q 782 1331 753 1331 q 822 1321 811 1331 l 786 1247 l 675 1097 q 625 1108 643 1093 l 729 1321 m 550 1321 q 603 1331 574 1331 q 643 1321 632 1331 l 607 1247 l 496 1097 q 444 1108 465 1094 l 550 1321 z "},"ő":{"ha":672,"x_min":39,"x_max":657,"o":"m 385 1038 q 438 1047 408 1047 q 478 1038 467 1047 l 442 964 l 331 814 q 279 825 300 811 l 385 1038 m 564 1038 q 617 1047 588 1047 q 657 1038 646 1047 l 621 964 l 510 814 q 460 825 478 810 l 564 1038 m 39 319 q 97 517 39 410 q 240 696 156 624 q 393 768 324 768 q 543 639 463 768 q 626 419 624 510 q 567 231 628 329 q 420 67 507 133 q 264 0 333 0 q 117 97 194 0 q 39 319 39 194 m 382 690 q 214 544 271 628 q 132 346 157 460 q 168 188 138 253 q 263 68 199 122 q 451 201 386 121 q 539 404 515 282 q 485 557 526 478 q 382 690 443 636 z "},"Œ":{"ha":1194,"x_min":75,"x_max":1208,"o":"m 183 436 q 272 164 181 279 q 390 72 321 104 q 609 261 531 144 q 707 518 688 378 q 667 768 697 678 q 543 950 636 858 q 282 735 381 874 q 183 436 183 597 m 790 540 l 1089 567 q 1099 515 1101 549 q 1076 451 1096 482 q 785 461 886 464 l 690 101 q 1072 157 810 110 q 1100 129 1093 150 q 1081 40 1111 90 l 688 0 q 613 36 640 14 q 569 101 586 58 q 388 0 468 0 q 233 69 307 0 q 119 234 160 139 q 76 413 78 329 q 147 703 75 560 q 331 933 219 846 q 551 1021 442 1021 q 704 911 614 1021 q 879 992 781 974 q 1181 1011 978 1011 q 1197 937 1208 989 q 1149 854 1185 885 l 1061 911 q 806 897 929 931 l 761 829 l 790 540 z "},"œ":{"ha":1143,"x_min":39,"x_max":1088,"o":"m 557 214 q 414 63 497 125 q 263 0 331 0 q 117 97 194 0 q 39 319 39 194 q 97 517 39 410 q 240 696 156 624 q 394 768 324 768 q 497 703 440 768 q 590 550 553 638 q 881 761 725 721 q 1040 645 993 729 q 1081 446 1088 561 q 628 290 856 339 q 790 81 643 139 q 1031 210 969 144 q 1067 197 1058 210 q 1072 151 1075 185 q 944 60 1035 108 q 783 0 853 11 q 557 214 611 71 m 263 68 q 449 199 383 119 q 539 407 515 279 q 484 558 526 479 q 382 690 442 636 q 214 544 271 628 q 132 346 157 460 q 168 188 138 253 q 263 68 199 122 m 625 371 l 625 361 q 978 483 828 411 q 957 606 976 560 q 878 686 938 651 l 858 682 q 697 545 765 636 q 625 371 628 454 z "},"Ŕ":{"ha":789,"x_min":76,"x_max":738,"o":"m 389 1024 q 649 952 561 1024 q 738 778 738 881 q 685 606 738 676 q 517 472 633 536 q 335 456 407 458 q 456 241 382 319 q 669 101 529 163 q 662 42 683 71 q 593 0 640 14 q 388 201 464 82 q 289 454 313 321 l 268 453 q 208 4 251 265 q 140 3 182 -6 q 76 35 99 13 q 138 280 119 190 q 164 406 156 369 q 204 632 181 489 l 244 925 l 174 921 q 161 971 158 947 q 182 1001 164 994 q 389 1024 278 1024 m 278 574 q 274 513 278 546 q 492 544 388 517 q 594 642 565 593 q 624 772 624 692 q 558 901 624 851 q 361 940 493 950 l 278 574 m 704 1306 l 483 1089 q 438 1113 442 1089 l 524 1242 l 565 1350 q 656 1346 610 1363 q 704 1306 703 1329 z "},"ŕ":{"ha":531,"x_min":35,"x_max":571,"o":"m 211 539 l 228 528 q 410 750 304 628 q 503 695 467 742 q 539 586 539 649 q 414 563 468 533 q 388 639 418 626 q 228 442 319 561 q 153 0 190 194 q 35 33 63 -8 q 156 517 118 321 l 128 715 q 189 756 158 746 q 264 758 219 765 q 249 607 271 725 l 211 539 m 571 1025 l 350 808 q 304 832 308 808 l 390 961 l 432 1069 q 523 1065 476 1082 q 571 1025 569 1049 z "},"Ŗ":{"ha":789,"x_min":76,"x_max":738,"o":"m 389 1024 q 649 952 561 1024 q 738 778 738 881 q 685 606 738 676 q 517 472 633 536 q 335 456 407 458 q 456 241 382 319 q 669 101 529 163 q 662 42 683 71 q 593 0 640 14 q 388 201 464 82 q 289 454 313 321 l 268 453 q 208 4 251 265 q 140 3 182 -6 q 76 35 99 13 q 138 280 119 190 q 164 406 156 369 q 204 632 181 489 l 244 925 l 174 921 q 161 971 158 947 q 182 1001 164 994 q 389 1024 278 1024 m 278 574 q 274 513 278 546 q 492 544 388 517 q 594 642 565 593 q 624 772 624 692 q 558 901 624 851 q 361 940 493 950 l 278 574 m 324 -206 l 292 -50 q 378 -33 336 -17 q 438 -97 419 -49 q 388 -227 431 -160 q 293 -340 344 -294 q 249 -321 263 -343 l 324 -206 z "},"ŗ":{"ha":531,"x_min":-26,"x_max":539,"o":"m 211 539 l 228 528 q 410 750 304 628 q 503 695 467 742 q 539 586 539 649 q 414 563 468 533 q 388 639 418 626 q 228 442 319 561 q 153 0 190 194 q 35 33 63 -8 q 156 517 118 321 l 128 715 q 189 756 158 746 q 264 758 219 765 q 249 607 271 725 l 211 539 m 49 -206 l 17 -50 q 103 -33 61 -17 q 163 -97 144 -49 q 113 -227 156 -160 q 18 -340 69 -294 q -26 -321 -12 -343 l 49 -206 z "},"Ř":{"ha":789,"x_min":76,"x_max":738,"o":"m 389 1024 q 649 952 561 1024 q 738 778 738 881 q 685 606 738 676 q 517 472 633 536 q 335 456 407 458 q 456 241 382 319 q 669 101 529 163 q 662 42 683 71 q 593 0 640 14 q 388 201 464 82 q 289 454 313 321 l 268 453 q 208 4 251 265 q 140 3 182 -6 q 76 35 99 13 q 138 280 119 190 q 164 406 156 369 q 204 632 181 489 l 244 925 l 174 921 q 161 971 158 947 q 182 1001 164 994 q 389 1024 278 1024 m 278 574 q 274 513 278 546 q 492 544 388 517 q 594 642 565 593 q 624 772 624 692 q 558 901 624 851 q 361 940 493 950 l 278 574 m 646 1261 l 472 1100 q 375 1111 413 1083 l 290 1269 q 346 1286 310 1301 l 415 1149 l 557 1299 q 646 1261 633 1321 z "},"ř":{"ha":531,"x_min":35,"x_max":539,"o":"m 211 539 l 228 528 q 410 750 304 628 q 503 695 467 742 q 539 586 539 649 q 414 563 468 533 q 388 639 418 626 q 228 442 319 561 q 153 0 190 194 q 35 33 63 -8 q 156 517 118 321 l 128 715 q 189 756 158 746 q 264 758 219 765 q 249 607 271 725 l 211 539 m 513 981 l 339 819 q 242 831 279 803 l 157 989 q 213 1006 176 1021 l 282 868 l 424 1018 q 513 981 500 1040 z "},"Ś":{"ha":785,"x_min":29,"x_max":786,"o":"m 731 322 q 614 118 713 203 q 335 0 515 33 q 136 119 228 33 q 29 281 44 206 q 81 328 57 319 q 146 322 106 336 q 216 178 176 226 q 349 74 256 131 q 546 170 468 103 q 624 318 624 238 q 456 461 621 369 q 313 541 385 499 q 185 642 240 583 q 121 761 131 700 q 279 947 165 871 q 508 1033 393 1024 q 749 810 674 964 q 717 767 744 783 q 650 754 690 750 q 585 879 619 835 q 499 961 550 924 q 317 874 406 940 q 230 760 228 807 q 299 661 232 713 q 449 566 365 610 q 617 456 532 522 q 731 322 701 389 m 647 1350 q 738 1346 692 1363 q 786 1306 785 1329 l 565 1089 q 519 1113 524 1089 l 606 1242 l 647 1350 z "},"ś":{"ha":644,"x_min":26,"x_max":661,"o":"m 461 238 q 292 353 461 281 q 167 426 228 381 q 93 521 107 471 q 204 690 110 621 q 415 768 299 760 q 524 695 482 739 q 582 575 567 651 q 549 542 578 553 q 471 542 521 532 q 406 704 467 625 q 267 631 332 683 q 203 542 203 578 q 369 426 203 503 q 494 347 433 397 q 568 239 554 296 q 458 68 544 131 q 233 0 371 6 q 97 85 157 22 q 26 208 36 147 q 74 258 51 246 q 132 263 97 269 q 244 61 157 132 q 404 133 347 82 q 461 238 461 185 m 522 1069 q 613 1065 567 1082 q 661 1025 660 1049 l 440 808 q 394 832 399 808 l 481 961 l 522 1069 z "},"Ş":{"ha":785,"x_min":29,"x_max":749,"o":"m 333 -112 q 427 -71 378 -71 q 502 -106 476 -71 q 517 -201 528 -142 q 454 -297 506 -261 q 335 -333 403 -333 q 208 -308 267 -333 q 114 -237 150 -282 q 144 -186 117 -189 q 303 -261 219 -261 q 404 -194 388 -261 q 393 -135 411 -161 q 303 -176 344 -140 q 240 -139 253 -176 l 310 8 q 126 128 210 47 q 29 281 43 210 q 81 328 57 319 q 146 322 106 336 q 216 178 176 226 q 349 74 256 131 q 546 170 468 103 q 624 318 624 238 q 456 461 621 369 q 313 541 385 499 q 185 642 240 583 q 121 761 131 700 q 279 947 165 871 q 508 1033 393 1024 q 749 810 674 964 q 717 767 744 783 q 650 754 690 750 q 585 879 619 835 q 499 961 550 924 q 317 874 406 940 q 230 760 228 807 q 299 661 232 713 q 449 566 365 610 q 617 456 532 522 q 731 322 701 389 q 631 133 714 214 q 399 14 549 53 l 333 -112 z "},"ş":{"ha":644,"x_min":25,"x_max":582,"o":"m 461 238 q 292 353 461 281 q 167 426 228 381 q 93 521 107 471 q 204 690 110 621 q 415 768 299 760 q 524 695 482 739 q 582 575 567 651 q 549 542 578 553 q 471 542 521 532 q 406 704 467 625 q 267 631 332 683 q 203 542 203 578 q 369 426 203 503 q 494 347 433 397 q 568 239 554 296 q 481 86 547 146 q 307 8 414 26 l 244 -112 q 338 -71 289 -71 q 413 -106 388 -71 q 428 -201 439 -142 q 365 -297 417 -261 q 246 -333 314 -333 q 119 -308 178 -333 q 25 -237 61 -282 q 56 -186 28 -189 q 215 -261 131 -261 q 315 -194 299 -261 q 304 -135 322 -161 q 214 -176 256 -140 q 151 -139 164 -176 l 219 4 q 92 91 147 31 q 26 208 36 151 q 74 258 51 246 q 132 263 97 269 q 244 61 157 132 q 404 133 347 82 q 461 238 461 185 z "},"Š":{"ha":785,"x_min":29,"x_max":749,"o":"m 731 322 q 614 118 713 203 q 335 0 515 33 q 136 119 228 33 q 29 281 44 206 q 81 328 57 319 q 146 322 106 336 q 216 178 176 226 q 349 74 256 131 q 546 170 468 103 q 624 318 624 238 q 456 461 621 369 q 313 541 385 499 q 185 642 240 583 q 121 761 131 700 q 279 947 165 871 q 508 1033 393 1024 q 749 810 674 964 q 717 767 744 783 q 650 754 690 750 q 585 879 619 835 q 499 961 550 924 q 317 874 406 940 q 230 760 228 807 q 299 661 232 713 q 449 566 365 610 q 617 456 532 522 q 731 322 701 389 m 554 1100 q 457 1111 494 1083 l 372 1269 q 428 1286 392 1301 l 497 1149 l 639 1299 q 728 1261 715 1321 l 554 1100 z "},"š":{"ha":644,"x_min":26,"x_max":603,"o":"m 461 238 q 292 353 461 281 q 167 426 228 381 q 93 521 107 471 q 204 690 110 621 q 415 768 299 760 q 524 695 482 739 q 582 575 567 651 q 549 542 578 553 q 471 542 521 532 q 406 704 467 625 q 267 631 332 683 q 203 542 203 578 q 369 426 203 503 q 494 347 433 397 q 568 239 554 296 q 458 68 544 131 q 233 0 371 6 q 97 85 157 22 q 26 208 36 147 q 74 258 51 246 q 132 263 97 269 q 244 61 157 132 q 404 133 347 82 q 461 238 461 185 m 429 819 q 332 831 369 803 l 247 989 q 303 1006 267 1021 l 372 868 l 514 1018 q 603 981 590 1040 l 429 819 z "},"Ţ":{"ha":746,"x_min":86,"x_max":853,"o":"m 382 0 l 364 -1 l 306 -112 q 399 -71 350 -71 q 474 -106 449 -71 q 489 -201 500 -142 q 426 -297 478 -261 q 307 -333 375 -333 q 181 -308 239 -333 q 86 -237 122 -282 q 117 -186 89 -189 q 276 -261 192 -261 q 376 -194 360 -261 q 365 -135 383 -161 q 275 -176 317 -140 q 213 -139 225 -176 l 283 13 q 250 42 263 21 q 394 701 343 400 l 404 931 l 154 913 q 143 993 113 954 q 838 1007 446 1013 q 847 970 853 996 q 817 921 842 944 l 538 938 l 447 540 q 415 272 438 456 q 382 0 392 89 z "},"ţ":{"ha":517,"x_min":-31,"x_max":553,"o":"m 189 -112 q 283 -71 233 -71 q 358 -106 332 -71 q 372 -201 383 -142 q 310 -297 361 -261 q 190 -333 258 -333 q 64 -308 122 -333 q -31 -237 6 -282 q 0 -186 -28 -189 q 159 -261 75 -261 q 260 -194 243 -261 q 249 -135 267 -161 q 158 -176 200 -140 q 96 -139 108 -176 l 167 11 q 106 72 115 31 q 231 664 207 533 l 56 631 q 58 728 18 678 l 239 729 l 238 929 q 376 943 319 986 l 313 739 l 533 782 q 552 742 553 771 q 531 683 551 714 l 304 676 q 272 390 294 583 q 238 93 249 196 q 417 174 346 124 q 457 163 449 175 q 463 121 465 150 q 254 14 390 57 l 189 -112 z "},"Ť":{"ha":746,"x_min":113,"x_max":853,"o":"m 404 931 l 154 913 q 143 993 113 954 q 838 1007 446 1013 q 847 970 853 996 q 817 921 842 944 l 538 938 l 447 540 q 415 272 438 456 q 382 0 392 89 q 250 42 283 -10 q 394 701 343 400 l 404 931 m 701 1261 l 528 1100 q 431 1111 468 1083 l 346 1269 q 401 1286 365 1301 l 471 1149 l 613 1299 q 701 1261 689 1321 z "},"ť":{"ha":517,"x_min":18,"x_max":599,"o":"m 304 682 l 533 726 q 552 687 553 715 q 531 628 551 658 l 299 621 l 297 621 q 269 365 289 539 q 238 93 249 192 q 417 174 346 124 q 457 163 449 175 q 463 121 465 150 q 344 48 418 82 q 203 0 269 14 q 106 72 118 18 q 221 606 199 490 l 56 575 q 58 672 18 622 l 233 674 l 239 708 l 238 929 q 376 943 319 986 l 308 724 l 304 682 m 485 901 l 453 1057 q 539 1074 497 1090 q 599 1010 581 1058 q 549 880 592 947 q 454 767 506 813 q 410 786 424 764 l 485 901 z "},"Ū":{"ha":792,"x_min":64,"x_max":838,"o":"m 688 1225 q 667 1140 724 1204 l 269 1129 q 285 1211 242 1157 l 496 1204 l 688 1225 m 344 0 q 151 75 224 0 q 64 231 78 150 q 91 387 69 265 q 119 549 113 508 q 139 678 125 589 q 175 986 160 810 q 263 1021 232 1021 q 321 1008 294 1021 q 175 242 175 521 q 218 140 175 186 q 330 79 261 93 q 483 106 399 65 q 611 324 569 190 q 692 690 653 457 l 692 986 q 780 1021 749 1021 q 838 1008 811 1021 q 791 770 819 929 q 742 513 763 611 q 703 343 722 414 q 651 201 683 272 q 581 90 619 131 q 344 0 492 0 z "},"ū":{"ha":696,"x_min":39,"x_max":696,"o":"m 471 328 l 471 331 q 564 758 517 578 q 696 714 663 758 l 592 510 q 543 0 561 311 q 419 35 458 -10 l 488 217 l 471 231 q 265 0 388 122 q 39 131 75 26 l 110 371 q 128 758 131 607 q 197 755 171 764 q 257 715 224 746 q 153 154 235 518 q 250 88 171 111 q 471 328 389 213 m 585 860 l 188 849 q 203 931 160 876 l 414 924 l 606 944 q 585 860 642 924 z "},"Ů":{"ha":792,"x_min":64,"x_max":838,"o":"m 344 0 q 151 75 224 0 q 64 231 78 150 q 91 387 69 265 q 119 549 113 508 q 139 678 125 589 q 175 986 160 810 q 263 1021 232 1021 q 321 1008 294 1021 q 175 242 175 521 q 218 140 175 186 q 330 79 261 93 q 483 106 399 65 q 611 324 569 190 q 692 690 653 457 l 692 986 q 780 1021 749 1021 q 838 1008 811 1021 q 791 770 819 929 q 742 513 763 611 q 703 343 722 414 q 651 201 683 272 q 581 90 619 131 q 344 0 492 0 m 583 1326 q 544 1311 575 1326 q 506 1229 522 1281 q 540 1131 474 1131 q 585 1147 560 1131 q 619 1229 610 1183 q 583 1326 649 1326 m 433 1229 q 503 1326 456 1283 q 608 1368 551 1368 q 688 1328 664 1368 q 692 1231 713 1288 q 623 1131 672 1174 q 518 1089 574 1089 q 438 1129 463 1089 q 433 1229 414 1169 z "},"ů":{"ha":696,"x_min":39,"x_max":696,"o":"m 471 328 l 471 331 q 564 758 517 578 q 696 714 663 758 l 592 510 q 543 0 561 311 q 419 35 458 -10 l 488 217 l 471 231 q 265 0 388 122 q 39 131 75 26 l 110 371 q 128 758 131 607 q 197 755 171 764 q 257 715 224 746 q 153 154 235 518 q 250 88 171 111 q 471 328 389 213 m 610 950 q 600 922 610 950 q 541 851 590 893 q 436 808 492 808 q 356 849 381 808 q 351 949 332 889 q 422 1045 374 1003 q 526 1088 469 1088 q 606 1047 582 1088 q 610 950 631 1007 m 458 850 q 503 867 478 850 q 538 949 528 903 q 501 1046 567 1046 q 463 1031 493 1046 q 424 949 440 1000 q 458 850 392 850 z "},"Ű":{"ha":792,"x_min":64,"x_max":838,"o":"m 651 1318 q 704 1328 675 1328 q 744 1318 733 1328 l 708 1244 l 597 1094 q 547 1106 565 1090 l 651 1318 m 472 1318 q 525 1328 496 1328 q 565 1318 554 1328 l 529 1244 l 418 1094 q 367 1106 388 1092 l 472 1318 m 344 0 q 151 75 224 0 q 64 231 78 150 q 91 387 69 265 q 119 549 113 508 q 139 678 125 589 q 175 986 160 810 q 263 1021 232 1021 q 321 1008 294 1021 q 175 242 175 521 q 218 140 175 186 q 330 79 261 93 q 483 106 399 65 q 611 324 569 190 q 692 690 653 457 l 692 986 q 780 1021 749 1021 q 838 1008 811 1021 q 791 770 819 929 q 742 513 763 611 q 703 343 722 414 q 651 201 683 272 q 581 90 619 131 q 344 0 492 0 z "},"ű":{"ha":696,"x_min":39,"x_max":696,"o":"m 471 328 l 471 331 q 564 758 517 578 q 696 714 663 758 l 592 510 q 543 0 561 311 q 419 35 458 -10 l 488 217 l 471 231 q 265 0 388 122 q 39 131 75 26 l 110 371 q 128 758 131 607 q 197 755 171 764 q 257 715 224 746 q 153 154 235 518 q 250 88 171 111 q 471 328 389 213 m 390 1038 q 443 1047 414 1047 q 483 1038 472 1047 l 447 964 l 336 814 q 285 825 306 811 l 390 1038 m 569 1038 q 622 1047 593 1047 q 663 1038 651 1047 l 626 964 l 515 814 q 465 825 483 810 l 569 1038 z "},"Ų":{"ha":792,"x_min":64,"x_max":838,"o":"m 692 986 q 780 1021 749 1021 q 838 1008 811 1021 q 791 770 819 929 q 743 516 763 611 q 706 354 724 421 q 659 218 688 288 q 596 108 631 149 q 394 3 518 15 q 239 -165 261 -51 q 353 -210 283 -210 q 488 -156 422 -210 q 525 -190 518 -158 q 343 -275 446 -275 q 215 -240 261 -275 q 169 -157 169 -204 q 285 6 169 -60 q 132 93 189 25 q 64 231 75 161 q 91 387 69 265 q 119 549 113 508 q 139 678 125 589 q 175 986 160 810 q 263 1021 232 1021 q 321 1008 294 1021 q 175 242 175 521 q 218 140 175 186 q 330 79 261 93 q 483 106 399 65 q 611 324 569 190 q 692 690 653 457 l 692 986 z "},"ų":{"ha":696,"x_min":39,"x_max":696,"o":"m 443 -275 q 329 -243 372 -275 q 286 -162 286 -211 q 328 -63 286 -114 q 436 19 369 -12 q 419 35 431 24 l 488 217 l 471 231 q 265 0 388 122 q 39 131 75 26 l 110 371 q 128 758 131 607 q 197 755 171 764 q 257 715 224 746 q 153 154 235 518 q 250 88 171 111 q 471 328 389 213 l 471 331 q 564 758 517 578 q 696 714 663 758 l 592 510 q 543 0 561 311 q 358 -178 390 -40 q 471 -206 403 -212 q 581 -156 539 -200 q 618 -190 611 -158 q 443 -275 551 -275 z "},"Ÿ":{"ha":788,"x_min":161,"x_max":839,"o":"m 711 831 l 664 996 q 769 1020 733 1022 q 839 992 804 1018 q 776 803 839 881 q 504 454 624 604 q 443 0 460 315 q 381 -3 422 -10 q 311 26 340 4 q 394 421 364 175 q 161 990 338 583 q 220 1019 185 1011 q 281 1011 256 1026 l 331 775 l 450 469 l 454 469 l 483 524 l 711 831 m 353 1237 q 363 1246 353 1237 q 400 1256 372 1256 q 447 1237 428 1256 q 465 1191 465 1218 q 446 1144 465 1164 q 399 1125 426 1125 q 353 1144 372 1125 q 335 1191 335 1164 q 353 1237 335 1218 m 578 1237 q 588 1246 578 1237 q 625 1256 597 1256 q 672 1237 653 1256 q 690 1191 690 1218 q 671 1144 690 1164 q 624 1125 651 1125 q 578 1144 597 1125 q 560 1191 560 1164 q 578 1237 560 1218 z "},"Ź":{"ha":793,"x_min":4,"x_max":813,"o":"m 125 57 l 118 50 l 129 26 q 24 0 106 -7 q 5 67 4 33 q 58 163 6 101 q 194 309 111 225 q 365 486 276 393 q 538 692 453 579 q 669 901 624 804 l 660 913 q 264 931 361 910 q 219 792 224 876 q 101 824 126 775 q 239 1021 135 975 q 451 985 311 999 q 686 975 590 972 l 713 1033 q 779 1022 760 1032 q 813 990 799 1013 q 662 715 788 890 q 397 388 536 540 q 147 133 258 235 l 154 121 q 594 106 504 121 q 632 211 621 156 q 751 175 728 232 q 614 0 726 81 q 387 45 543 29 q 125 57 231 61 m 624 1350 q 715 1346 668 1363 q 763 1306 761 1329 l 542 1089 q 496 1113 500 1089 l 582 1242 l 624 1350 z "},"ź":{"ha":700,"x_min":17,"x_max":672,"o":"m 158 121 l 285 121 q 483 104 390 121 q 518 211 513 161 q 622 171 617 232 q 494 0 600 68 q 319 49 425 36 q 132 57 213 63 l 126 50 l 136 26 q 33 0 117 -7 q 17 71 17 32 q 53 151 17 110 q 149 239 89 192 q 274 338 208 286 q 412 465 340 390 q 529 618 483 540 l 521 629 q 236 661 393 626 q 196 521 196 601 q 88 551 114 501 q 218 750 114 704 q 544 692 415 689 l 568 750 q 638 736 617 747 q 672 700 658 725 q 486 428 664 597 q 255 219 349 297 q 151 133 161 142 l 158 121 m 519 1069 q 610 1065 564 1082 q 658 1025 657 1049 l 438 808 q 392 832 396 808 l 478 961 l 519 1069 z "},"Ż":{"ha":793,"x_min":4,"x_max":813,"o":"m 585 1192 q 585 1179 585 1192 q 565 1146 585 1165 q 519 1126 546 1126 q 473 1146 492 1126 q 454 1192 454 1165 q 473 1238 454 1219 q 519 1257 492 1257 q 566 1238 547 1257 q 585 1192 585 1219 m 125 57 l 118 50 l 129 26 q 24 0 106 -7 q 5 67 4 33 q 58 163 6 101 q 194 309 111 225 q 365 486 276 393 q 538 692 453 579 q 669 901 624 804 l 660 913 q 264 931 361 910 q 219 792 224 876 q 101 824 126 775 q 239 1021 135 975 q 451 985 311 999 q 686 975 590 972 l 713 1033 q 779 1022 760 1032 q 813 990 799 1013 q 662 715 788 890 q 397 388 536 540 q 147 133 258 235 l 154 121 q 594 106 504 121 q 632 211 621 156 q 751 175 728 232 q 614 0 726 81 q 387 45 543 29 q 125 57 231 61 z "},"ż":{"ha":700,"x_min":17,"x_max":672,"o":"m 481 912 q 481 898 481 912 q 461 865 481 885 q 415 846 442 846 q 369 865 388 846 q 350 912 350 885 q 369 958 350 939 q 415 976 388 976 q 462 958 443 976 q 481 912 481 939 m 158 121 l 285 121 q 483 104 390 121 q 518 211 513 161 q 622 171 617 232 q 494 0 600 68 q 319 49 425 36 q 132 57 213 63 l 126 50 l 136 26 q 33 0 117 -7 q 17 71 17 32 q 53 151 17 110 q 149 239 89 192 q 274 338 208 286 q 412 465 340 390 q 529 618 483 540 l 521 629 q 236 661 393 626 q 196 521 196 601 q 88 551 114 501 q 218 750 114 704 q 544 692 415 689 l 568 750 q 638 736 617 747 q 672 700 658 725 q 486 428 664 597 q 255 219 349 297 q 151 133 161 142 l 158 121 z "},"Ž":{"ha":793,"x_min":4,"x_max":813,"o":"m 125 57 l 118 50 l 129 26 q 24 0 106 -7 q 5 67 4 33 q 58 163 6 101 q 194 309 111 225 q 365 486 276 393 q 538 692 453 579 q 669 901 624 804 l 660 913 q 264 931 361 910 q 219 792 224 876 q 101 824 126 775 q 239 1021 135 975 q 451 985 311 999 q 686 975 590 972 l 713 1033 q 779 1022 760 1032 q 813 990 799 1013 q 662 715 788 890 q 397 388 536 540 q 147 133 258 235 l 154 121 q 594 106 504 121 q 632 211 621 156 q 751 175 728 232 q 614 0 726 81 q 387 45 543 29 q 125 57 231 61 m 531 1100 q 433 1111 471 1083 l 349 1269 q 404 1286 368 1301 l 474 1149 l 615 1299 q 704 1261 692 1321 l 531 1100 z "},"ž":{"ha":700,"x_min":17,"x_max":672,"o":"m 158 121 l 285 121 q 483 104 390 121 q 518 211 513 161 q 622 171 617 232 q 494 0 600 68 q 319 49 425 36 q 132 57 213 63 l 126 50 l 136 26 q 33 0 117 -7 q 17 71 17 32 q 53 151 17 110 q 149 239 89 192 q 274 338 208 286 q 412 465 340 390 q 529 618 483 540 l 521 629 q 236 661 393 626 q 196 521 196 601 q 88 551 114 501 q 218 750 114 704 q 544 692 415 689 l 568 750 q 638 736 617 747 q 672 700 658 725 q 486 428 664 597 q 255 219 349 297 q 151 133 161 142 l 158 121 m 426 819 q 329 831 367 803 l 244 989 q 300 1006 264 1021 l 369 868 l 511 1018 q 600 981 588 1040 l 426 819 z "},"ƒ":{"ha":650,"x_min":-11,"x_max":724,"o":"m 383 551 l 625 606 q 644 567 644 596 q 622 508 643 538 l 376 494 q 249 -239 338 185 q 104 -269 193 -293 l -11 -60 q 49 -26 4 -17 l 160 -176 q 301 482 246 94 l 117 447 q 119 544 79 494 l 308 536 l 313 569 l 308 992 q 416 1090 367 1057 q 533 1131 465 1122 q 665 1056 611 1118 q 724 919 718 993 q 663 892 697 899 q 607 900 629 886 q 586 992 604 960 q 528 1057 568 1025 q 411 997 468 1043 q 383 551 415 821 z "},"Ș":{"ha":785,"x_min":29,"x_max":749,"o":"m 731 322 q 614 118 713 203 q 335 0 515 33 q 136 119 228 33 q 29 281 44 206 q 81 328 57 319 q 146 322 106 336 q 216 178 176 226 q 349 74 256 131 q 546 170 468 103 q 624 318 624 238 q 456 461 621 369 q 313 541 385 499 q 185 642 240 583 q 121 761 131 700 q 279 947 165 871 q 508 1033 393 1024 q 749 810 674 964 q 717 767 744 783 q 650 754 690 750 q 585 879 619 835 q 499 961 550 924 q 317 874 406 940 q 230 760 228 807 q 299 661 232 713 q 449 566 365 610 q 617 456 532 522 q 731 322 701 389 m 279 -340 q 235 -321 249 -343 l 310 -206 l 278 -50 q 364 -33 322 -17 q 424 -97 406 -49 q 374 -227 417 -160 q 279 -340 331 -294 z "},"ș":{"ha":644,"x_min":26,"x_max":582,"o":"m 461 238 q 292 353 461 281 q 167 426 228 381 q 93 521 107 471 q 204 690 110 621 q 415 768 299 760 q 524 695 482 739 q 582 575 567 651 q 549 542 578 553 q 471 542 521 532 q 406 704 467 625 q 267 631 332 683 q 203 542 203 578 q 369 426 203 503 q 494 347 433 397 q 568 239 554 296 q 458 68 544 131 q 233 0 371 6 q 97 85 157 22 q 26 208 36 147 q 74 258 51 246 q 132 263 97 269 q 244 61 157 132 q 404 133 347 82 q 461 238 461 185 m 182 -340 q 138 -321 151 -343 l 213 -206 l 181 -50 q 267 -33 225 -17 q 326 -97 308 -49 q 276 -227 319 -160 q 182 -340 233 -294 z "},"Ț":{"ha":746,"x_min":113,"x_max":853,"o":"m 404 931 l 154 913 q 143 993 113 954 q 838 1007 446 1013 q 847 970 853 996 q 817 921 842 944 l 538 938 l 447 540 q 415 272 438 456 q 382 0 392 89 q 250 42 283 -10 q 394 701 343 400 l 404 931 m 254 -206 l 222 -50 q 308 -33 267 -17 q 368 -97 350 -49 q 318 -227 361 -160 q 224 -340 275 -294 q 179 -321 193 -343 l 254 -206 z "},"ț":{"ha":517,"x_min":18,"x_max":553,"o":"m 531 683 l 304 676 q 272 390 294 583 q 238 93 249 196 q 417 174 346 124 q 457 163 449 175 q 463 121 465 150 q 344 48 418 82 q 203 0 269 14 q 106 72 118 18 q 231 664 207 533 l 56 631 q 58 728 18 678 l 239 729 l 238 929 q 376 943 319 986 l 313 739 l 533 782 q 552 742 553 771 q 531 683 551 714 m 171 -206 l 139 -50 q 225 -33 183 -17 q 285 -97 267 -49 q 235 -227 278 -160 q 140 -340 192 -294 q 96 -321 110 -343 l 171 -206 z "},"ʼ":{"ha":413,"x_min":219,"x_max":432,"o":"m 269 894 q 219 915 235 892 l 304 1046 l 268 1221 q 365 1240 318 1258 q 432 1168 413 1222 q 375 1022 424 1097 q 269 894 326 946 z "},"ˆ":{"ha":418,"x_min":96,"x_max":481,"o":"m 96 856 l 292 1036 q 389 1025 353 1051 l 481 833 q 428 813 458 814 q 383 824 397 811 l 313 974 l 138 819 q 96 856 99 825 z "},"ˇ":{"ha":388,"x_min":124,"x_max":479,"o":"m 306 819 q 208 831 246 803 l 124 989 q 179 1006 143 1021 l 249 868 l 390 1018 q 479 981 467 1040 l 306 819 z "},"ˉ":{"ha":465,"x_min":88,"x_max":569,"o":"m 533 944 q 513 860 569 924 l 115 849 q 131 931 88 876 l 342 924 l 533 944 z "},"˘":{"ha":397,"x_min":125,"x_max":488,"o":"m 314 829 q 125 990 171 829 q 172 1001 138 1001 q 267 901 199 922 q 374 1001 363 918 q 488 972 453 1024 q 425 869 472 908 q 314 829 378 829 z "},"˙":{"ha":164,"x_min":111,"x_max":242,"o":"m 242 912 q 242 898 242 912 q 222 865 242 885 q 176 846 203 846 q 130 865 149 846 q 111 912 111 885 q 130 958 111 939 q 176 976 149 976 q 223 958 204 976 q 242 912 242 939 z "},"˚":{"ha":294,"x_min":99,"x_max":397,"o":"m 268 1046 q 229 1031 260 1046 q 190 949 207 1000 q 225 850 158 850 q 269 867 244 850 q 304 949 294 903 q 268 1046 333 1046 m 118 949 q 188 1045 140 1003 q 292 1088 236 1088 q 373 1047 349 1088 q 377 950 397 1007 q 308 851 357 893 q 203 808 258 808 q 123 849 147 808 q 118 949 99 889 z "},"˛":{"ha":406,"x_min":-85,"x_max":289,"o":"m 13 -157 q 117 -204 39 -204 q 251 -156 194 -204 q 289 -190 282 -158 q 107 -275 210 -275 q -30 -233 25 -275 q -75 -132 -85 -192 q 113 13 -57 -24 q 163 -19 171 13 q 58 -68 97 -32 q 13 -157 19 -104 z "},"˜":{"ha":483,"x_min":97,"x_max":568,"o":"m 265 990 q 415 886 378 944 l 421 885 l 503 981 q 550 974 532 986 q 561 940 568 961 q 407 813 521 871 q 298 860 336 836 q 238 919 260 883 l 231 917 l 158 818 q 115 829 133 817 q 99 858 97 842 q 136 907 119 888 q 188 952 153 926 q 265 990 224 978 z "},"˝":{"ha":371,"x_min":94,"x_max":472,"o":"m 379 1038 q 432 1047 403 1047 q 472 1038 461 1047 l 436 964 l 325 814 q 275 825 293 810 l 379 1038 m 200 1038 q 253 1047 224 1047 q 293 1038 282 1047 l 257 964 l 146 814 q 94 825 115 811 l 200 1038 z "},"π":{"ha":1046,"x_min":47,"x_max":1039,"o":"m 822 592 l 804 592 q 728 43 724 349 q 861 101 778 57 q 897 8 926 88 q 792 -26 846 -19 q 654 -28 739 -32 q 726 596 619 250 q 504 631 611 604 q 325 10 428 224 q 203 -28 285 -33 q 82 81 111 26 q 47 154 71 100 q 89 199 69 188 q 140 201 108 210 q 174 99 157 135 q 231 29 192 64 q 250 33 244 32 q 351 300 297 108 q 426 651 404 492 q 306 696 363 671 l 299 694 l 176 603 q 138 635 138 610 q 296 788 183 715 q 797 653 585 664 l 806 657 l 957 789 q 1039 715 1024 774 q 949 640 999 665 q 822 592 899 614 z "},"ँ":{"ha":0,"x_min":-201,"x_max":285,"o":"m 285 1107 q 168 997 247 1043 q 22 950 89 950 q -112 1031 -44 950 q -201 1197 -181 1111 q -106 1238 -160 1257 q -66 1103 -100 1167 q 17 1004 -32 1040 q 213 1154 146 1021 q 285 1107 268 1164 m 126 1144 q 126 1130 126 1144 q 106 1095 126 1115 q 58 1075 86 1075 q 9 1095 29 1075 q -11 1144 -11 1115 q 9 1192 -11 1172 q 58 1213 29 1213 q 106 1192 86 1213 q 126 1144 126 1172 z "},"ं":{"ha":0,"x_min":-28,"x_max":93,"o":"m 76 996 q 67 987 76 996 q 33 978 58 978 q -10 996 8 978 q -28 1039 -28 1014 q -10 1081 -28 1064 q 33 1099 7 1099 q 76 1081 58 1099 q 93 1039 93 1064 q 76 996 93 1014 z "},"ः":{"ha":310,"x_min":47,"x_max":269,"o":"m 208 136 q 208 119 208 136 q 185 79 208 103 q 128 56 163 56 q 71 79 94 56 q 47 136 47 103 q 71 193 47 169 q 128 217 94 217 q 185 193 163 217 q 208 136 208 169 m 269 600 q 269 583 269 600 q 247 543 269 567 q 190 519 224 519 q 132 543 156 519 q 108 600 108 567 q 132 657 108 633 q 190 681 156 681 q 247 657 224 681 q 269 600 269 633 z "},"अ":{"ha":889,"x_min":-1,"x_max":1101,"o":"m 364 410 q 242 439 310 439 q 207 478 218 450 q 206 535 196 506 q 267 558 233 543 q 400 649 353 596 q 454 785 447 703 l 450 790 q 333 776 396 801 q 218 694 269 750 q 171 721 190 701 q 153 761 151 740 q 429 881 274 881 q 550 761 536 861 q 332 507 519 585 l 335 501 q 449 451 399 488 q 760 619 633 544 l 801 796 l 650 796 l 633 811 q 668 860 643 844 l 817 860 l 826 901 q 947 860 917 901 l 1085 860 l 1101 844 q 1067 796 1092 811 l 918 796 l 833 613 l 735 0 q 622 32 656 -10 l 728 483 l 775 542 l 761 557 q 496 404 632 479 q 522 339 522 369 q 453 199 522 269 q 298 87 385 128 q 150 46 211 46 q 47 88 96 50 q -1 163 -1 126 q 107 272 -1 208 q 364 410 192 324 m 161 119 q 323 186 221 119 q 425 319 425 253 q 414 358 425 336 q 111 178 144 210 q 100 156 100 167 q 120 132 100 144 q 161 119 140 119 z "},"आ":{"ha":1157,"x_min":-1,"x_max":1369,"o":"m 364 410 q 242 439 310 439 q 207 478 218 450 q 206 535 196 506 q 267 558 233 543 q 400 649 353 596 q 454 785 447 703 l 450 790 q 333 776 396 801 q 218 694 269 750 q 171 721 190 701 q 153 761 151 740 q 429 881 274 881 q 550 761 536 861 q 332 507 519 585 l 335 501 q 449 451 399 488 q 760 619 633 544 l 801 796 l 650 796 l 633 811 q 668 860 643 844 l 817 860 l 826 901 q 947 860 917 901 l 1085 860 l 1094 901 q 1215 860 1185 901 l 1353 860 l 1369 844 q 1335 796 1360 811 l 1186 796 l 1101 613 l 1003 0 q 890 32 924 -10 l 1069 796 l 918 796 l 833 613 l 735 0 q 622 32 656 -10 l 728 483 l 775 542 l 761 557 q 496 404 632 479 q 522 339 522 369 q 453 199 522 269 q 298 87 385 128 q 150 46 211 46 q 47 88 96 50 q -1 163 -1 126 q 107 272 -1 208 q 364 410 192 324 m 161 119 q 323 186 221 119 q 425 319 425 253 q 414 358 425 336 q 111 178 144 210 q 100 156 100 167 q 120 132 100 144 q 161 119 140 119 z "},"इ":{"ha":599,"x_min":1,"x_max":811,"o":"m 533 271 q 438 141 533 208 q 263 74 342 74 q 110 146 214 74 l 104 140 q 215 3 153 90 q 313 -154 278 -85 q 292 -185 313 -172 q 244 -201 271 -199 q 1 156 114 46 q 108 240 51 250 q 186 181 139 208 q 274 154 233 154 q 369 192 314 154 q 442 265 424 231 l 442 276 q 358 325 426 303 q 204 377 289 347 q 75 447 119 407 q 88 515 75 481 q 122 565 100 550 q 264 611 133 571 q 431 675 394 651 l 432 679 q 290 796 386 742 l 29 796 l 13 811 q 47 860 22 844 l 794 860 l 811 844 q 776 796 801 811 l 425 796 q 525 701 490 753 q 490 611 525 642 q 321 545 444 583 q 178 496 197 507 l 174 482 q 330 413 193 457 q 510 331 467 369 q 533 271 533 300 z "},"ई":{"ha":599,"x_min":1,"x_max":811,"o":"m 533 271 q 438 141 533 208 q 263 74 342 74 q 110 146 214 74 l 104 140 q 215 3 153 90 q 313 -154 278 -85 q 292 -185 313 -172 q 244 -201 271 -199 q 1 156 114 46 q 108 240 51 250 q 186 181 139 208 q 274 154 233 154 q 369 192 314 154 q 442 265 424 231 l 442 276 q 358 325 426 303 q 204 377 289 347 q 75 447 119 407 q 88 515 75 481 q 122 565 100 550 q 264 611 133 571 q 431 675 394 651 l 432 679 q 290 796 386 742 l 29 796 l 13 811 q 47 860 22 844 l 794 860 l 811 844 q 776 796 801 811 l 425 796 q 525 701 490 753 q 490 611 525 642 q 321 545 444 583 q 178 496 197 507 l 174 482 q 330 413 193 457 q 510 331 467 369 q 533 271 533 300 m 340 1189 l 324 1175 q 388 933 328 1071 q 338 908 379 908 q 217 1142 289 1025 q 361 1271 274 1264 q 456 1236 410 1263 q 526 1178 501 1210 q 456 1110 532 1129 q 340 1189 413 1171 z "},"उ":{"ha":688,"x_min":-43,"x_max":900,"o":"m 604 340 q 495 151 604 251 q 299 50 386 50 q 135 147 219 54 q 13 347 51 240 q 53 393 28 381 q 101 394 78 406 q 195 213 128 301 q 310 124 263 124 q 432 197 357 124 q 507 321 507 269 q 393 396 507 372 q 311 404 353 404 q 276 443 288 415 q 275 500 265 471 q 336 524 301 508 q 536 764 522 606 l 532 769 q 415 755 478 781 q 300 674 351 729 q 253 700 272 681 q 235 740 233 719 q 304 796 275 778 l -26 796 l -43 811 q -8 860 -33 844 l 883 860 l 900 844 q 865 796 890 811 l 614 796 q 632 740 628 772 q 562 593 619 654 q 396 479 504 532 l 400 472 q 543 425 482 468 q 604 340 604 382 z "},"ऊ":{"ha":833,"x_min":-43,"x_max":1047,"o":"m 592 340 q 483 151 592 251 q 286 50 374 50 q 123 147 207 54 q 0 347 39 240 q 40 393 15 381 q 89 394 65 406 q 183 213 115 301 q 297 124 250 124 q 419 197 344 124 q 494 321 494 269 q 397 393 494 368 q 299 404 346 404 q 264 443 275 415 q 263 500 253 471 q 324 524 289 508 q 524 764 510 606 l 519 769 q 402 755 465 781 q 288 674 339 729 q 240 700 260 681 q 222 740 221 719 q 292 796 263 778 l -26 796 l -43 811 q -8 860 -33 844 l 1031 860 l 1047 844 q 1013 796 1038 811 l 601 796 q 619 740 615 772 q 518 593 608 646 l 522 588 l 611 622 q 735 560 688 599 q 828 454 783 522 q 668 188 807 301 q 617 210 632 194 q 606 247 603 226 q 750 443 717 326 q 611 556 718 513 q 383 474 501 532 l 388 467 q 531 422 469 463 q 592 340 592 382 z "},"ऋ":{"ha":1081,"x_min":-35,"x_max":1293,"o":"m 1000 119 q 915 40 978 81 q 801 0 853 0 q 702 42 750 0 q 654 125 654 83 q 735 315 654 201 q 906 496 815 429 l 750 497 q 574 349 642 413 l 518 0 q 406 32 439 -10 l 456 244 l 494 297 l 482 310 q 290 151 417 240 q 35 0 163 63 q -12 78 -35 35 q 467 376 254 181 q 233 567 379 475 l 197 501 q 75 572 90 511 q 130 639 90 611 q 197 667 169 667 q 333 594 246 667 q 511 419 419 522 l 524 432 l 504 458 l 585 796 l 29 796 l 13 811 q 47 860 22 844 l 600 860 l 610 901 q 731 860 700 901 l 1276 860 l 1293 844 q 1258 796 1283 811 l 701 796 l 617 613 l 588 431 q 686 522 643 479 q 660 558 664 543 q 713 619 678 597 q 785 642 749 642 q 799 560 813 610 q 943 572 888 553 q 997 540 982 563 q 1010 472 1011 518 q 828 335 910 436 q 725 117 747 233 q 799 57 750 67 q 951 168 874 68 q 983 154 968 169 q 1000 119 999 139 z "},"ऌ":{"ha":946,"x_min":19,"x_max":1069,"o":"m 858 113 q 768 31 832 71 q 660 -8 704 -8 q 554 40 617 -8 q 492 140 492 89 q 639 285 492 181 q 741 376 693 324 q 793 476 789 429 q 729 531 772 524 q 438 267 632 410 q 360 290 388 269 q 332 333 332 310 q 369 432 363 386 q 343 506 365 471 q 292 547 321 542 q 190 466 231 522 q 140 350 149 410 q 192 194 153 263 q 319 74 232 126 q 314 31 331 53 q 254 0 297 8 q 110 153 168 60 q 51 344 51 247 q 104 478 51 396 q 233 607 157 560 q 349 614 289 621 q 417 538 396 581 q 446 433 438 496 q 424 356 440 401 l 431 351 q 707 608 558 443 q 775 594 743 608 q 833 796 846 693 l 36 796 l 19 811 q 54 860 29 844 l 1053 860 l 1069 844 q 1035 796 1060 811 l 915 796 q 829 557 924 679 q 879 474 863 524 q 815 363 856 415 q 740 281 774 311 q 652 210 706 251 q 575 146 599 168 q 610 92 583 118 q 663 54 636 65 q 801 172 747 89 q 850 153 835 169 q 858 113 865 138 z "},"ऍ":{"ha":633,"x_min":13,"x_max":846,"o":"m 640 796 q 614 626 640 718 q 536 469 588 535 q 485 483 506 471 q 465 514 465 496 q 540 694 532 606 l 533 796 l 315 796 q 276 631 292 692 q 230 477 261 569 q 164 318 199 385 l 176 310 l 371 424 q 482 361 451 428 q 445 86 492 235 q 314 -144 399 -62 q 242 -93 253 -135 q 345 63 310 -18 q 401 250 381 144 l 397 344 l 386 353 l 163 218 q 92 247 122 225 q 54 297 61 268 q 194 667 161 511 l 194 796 l 29 796 l 13 811 q 47 860 22 844 l 829 860 l 846 844 q 811 796 836 811 l 640 796 m 554 908 q 440 989 501 908 q 353 1156 379 1069 q 449 1196 394 1215 q 563 963 475 1028 q 751 1113 683 982 q 824 1065 807 1122 q 708 956 785 1004 q 554 908 631 908 z "},"ए":{"ha":633,"x_min":13,"x_max":846,"o":"m 640 796 q 614 626 640 718 q 536 469 588 535 q 485 483 506 471 q 465 514 465 496 q 540 694 532 606 l 533 796 l 315 796 q 276 631 292 692 q 230 477 261 569 q 164 318 199 385 l 176 310 l 371 424 q 482 361 451 428 q 445 86 492 235 q 314 -144 399 -62 q 242 -93 253 -135 q 345 63 310 -18 q 401 250 381 144 l 397 344 l 386 353 l 163 218 q 92 247 122 225 q 54 297 61 268 q 194 667 161 511 l 194 796 l 29 796 l 13 811 q 47 860 22 844 l 829 860 l 846 844 q 811 796 836 811 l 640 796 z "},"ऐ":{"ha":633,"x_min":13,"x_max":846,"o":"m 640 796 q 614 626 640 718 q 536 469 588 535 q 485 483 506 471 q 465 514 465 496 q 540 694 532 606 l 533 796 l 315 796 q 276 631 292 692 q 230 477 261 569 q 164 318 199 385 l 176 310 l 371 424 q 482 361 451 428 q 445 86 492 235 q 314 -144 399 -62 q 242 -93 253 -135 q 345 63 310 -18 q 401 250 381 144 l 397 344 l 386 353 l 163 218 q 92 247 122 225 q 54 297 61 268 q 194 667 161 511 l 194 796 l 29 796 l 13 811 q 47 860 22 844 l 829 860 l 846 844 q 811 796 836 811 l 640 796 m 389 1271 q 474 1208 425 1271 q 556 1076 522 1144 q 621 933 590 1007 q 572 908 618 908 q 421 1161 497 1069 l 375 1119 q 274 1211 275 1144 q 389 1271 317 1271 z "},"ऑ":{"ha":1157,"x_min":-1,"x_max":1429,"o":"m 1160 950 q 1046 1031 1107 950 q 958 1197 985 1111 q 1054 1238 1000 1257 q 1168 1004 1081 1069 q 1357 1154 1289 1024 q 1429 1107 1413 1164 q 1313 998 1390 1046 q 1160 950 1236 950 m 364 410 q 242 439 310 439 q 207 478 218 450 q 206 535 196 506 q 267 558 233 543 q 400 649 353 596 q 454 785 447 703 l 450 790 q 333 776 396 801 q 218 694 269 750 q 171 721 190 701 q 153 761 151 740 q 429 881 274 881 q 550 761 536 861 q 332 507 519 585 l 335 501 q 449 451 399 488 q 760 619 633 544 l 801 796 l 650 796 l 633 811 q 668 860 643 844 l 817 860 l 826 901 q 947 860 917 901 l 1085 860 l 1094 901 q 1215 860 1185 901 l 1353 860 l 1369 844 q 1335 796 1360 811 l 1186 796 l 1101 613 l 1003 0 q 890 32 924 -10 l 1069 796 l 918 796 l 833 613 l 735 0 q 622 32 656 -10 l 728 483 l 775 542 l 761 557 q 496 404 632 479 q 522 339 522 369 q 453 199 522 269 q 298 87 385 128 q 150 46 211 46 q 47 88 96 50 q -1 163 -1 126 q 107 272 -1 208 q 364 410 192 324 m 161 119 q 323 186 221 119 q 425 319 425 253 q 414 358 425 336 q 111 178 144 210 q 100 156 100 167 q 120 132 100 144 q 161 119 140 119 z "},"ओ":{"ha":1157,"x_min":-1,"x_max":1369,"o":"m 364 410 q 242 439 310 439 q 207 478 218 450 q 206 535 196 506 q 267 558 233 543 q 400 649 353 596 q 454 785 447 703 l 450 790 q 333 776 396 801 q 218 694 269 750 q 171 721 190 701 q 153 761 151 740 q 429 881 274 881 q 550 761 536 861 q 332 507 519 585 l 335 501 q 449 451 399 488 q 760 619 633 544 l 801 796 l 650 796 l 633 811 q 668 860 643 844 l 817 860 l 826 901 q 947 860 917 901 l 1085 860 l 1094 901 q 1215 860 1185 901 l 1353 860 l 1369 844 q 1335 796 1360 811 l 1186 796 l 1101 613 l 1003 0 q 890 32 924 -10 l 1069 796 l 918 796 l 833 613 l 735 0 q 622 32 656 -10 l 728 483 l 775 542 l 761 557 q 496 404 632 479 q 522 339 522 369 q 453 199 522 269 q 298 87 385 128 q 150 46 211 46 q 47 88 96 50 q -1 163 -1 126 q 107 272 -1 208 q 364 410 192 324 m 161 119 q 323 186 221 119 q 425 319 425 253 q 414 358 425 336 q 111 178 144 210 q 100 156 100 167 q 120 132 100 144 q 161 119 140 119 m 944 1313 q 1029 1249 981 1313 q 1112 1117 1078 1186 q 1176 975 1146 1049 q 1128 950 1174 950 q 976 1203 1053 1111 l 931 1161 q 829 1253 831 1186 q 944 1313 872 1313 z "},"औ":{"ha":1157,"x_min":-1,"x_max":1369,"o":"m 364 410 q 242 439 310 439 q 207 478 218 450 q 206 535 196 506 q 267 558 233 543 q 400 649 353 596 q 454 785 447 703 l 450 790 q 333 776 396 801 q 218 694 269 750 q 171 721 190 701 q 153 761 151 740 q 429 881 274 881 q 550 761 536 861 q 332 507 519 585 l 335 501 q 449 451 399 488 q 760 619 633 544 l 801 796 l 650 796 l 633 811 q 668 860 643 844 l 817 860 l 826 901 q 947 860 917 901 l 1085 860 l 1094 901 q 1215 860 1185 901 l 1353 860 l 1369 844 q 1335 796 1360 811 l 1186 796 l 1101 613 l 1003 0 q 890 32 924 -10 l 1069 796 l 918 796 l 833 613 l 735 0 q 622 32 656 -10 l 728 483 l 775 542 l 761 557 q 496 404 632 479 q 522 339 522 369 q 453 199 522 269 q 298 87 385 128 q 150 46 211 46 q 47 88 96 50 q -1 163 -1 126 q 107 272 -1 208 q 364 410 192 324 m 161 119 q 323 186 221 119 q 425 319 425 253 q 414 358 425 336 q 111 178 144 210 q 100 156 100 167 q 120 132 100 144 q 161 119 140 119 m 940 1313 q 1033 1250 982 1313 q 1175 985 1129 1135 q 1122 950 1169 950 q 1067 1004 1089 986 q 1007 1033 1044 1022 l 965 983 q 867 1065 872 1001 q 962 1121 903 1121 q 1103 1029 1021 1121 l 1107 1033 q 967 1203 1035 1168 l 921 1161 q 819 1253 821 1186 q 940 1313 863 1313 z "},"क":{"ha":836,"x_min":13,"x_max":1049,"o":"m 825 536 q 590 140 825 340 q 547 182 542 157 q 722 526 722 343 q 653 618 722 611 q 567 519 633 594 q 475 413 500 443 l 408 0 q 296 32 329 -10 l 340 222 l 392 326 l 376 336 q 217 142 274 214 q 87 191 133 147 q 40 319 40 235 q 76 492 40 403 q 174 640 113 581 q 303 700 236 700 q 353 680 329 700 q 388 643 378 660 q 424 586 399 626 l 426 588 l 475 796 l 29 796 l 13 811 q 47 860 22 844 l 490 860 l 500 901 q 621 860 590 901 l 1032 860 l 1049 844 q 1014 796 1039 811 l 594 796 l 479 517 l 489 510 q 570 608 518 544 q 635 685 622 671 q 773 657 721 697 q 825 536 825 617 m 308 629 q 199 529 254 629 q 143 317 143 429 q 192 210 143 233 q 389 432 315 339 l 407 507 q 308 629 360 629 z "},"ख":{"ha":1015,"x_min":13,"x_max":1228,"o":"m 464 686 q 440 753 464 719 q 384 786 417 786 q 309 765 351 786 q 236 708 267 744 q 186 754 189 718 q 224 796 196 771 l 29 796 l 13 811 q 47 860 22 844 l 932 860 l 942 901 q 1063 860 1032 901 l 1211 860 l 1228 844 q 1193 796 1218 811 l 1033 796 l 949 613 l 850 0 q 738 32 771 -10 l 788 243 l 825 297 l 811 310 q 618 159 760 240 q 385 67 476 78 q 222 153 296 83 q 102 281 154 218 q 33 364 50 344 q 131 465 63 460 l 146 451 q 369 533 275 465 q 464 686 464 601 m 776 628 q 683 538 725 628 q 640 383 640 449 q 696 318 640 318 q 774 361 731 318 q 839 457 817 404 l 850 507 q 822 590 842 553 q 776 628 801 628 m 526 796 q 567 686 567 747 q 499 550 567 625 q 335 428 431 475 q 157 381 239 381 l 150 369 q 309 194 258 236 q 396 153 360 153 q 656 263 457 153 l 651 269 q 574 304 606 269 q 543 391 543 339 q 569 513 543 443 q 649 641 594 583 q 771 699 704 699 q 869 606 838 699 l 874 607 l 917 796 l 526 796 z "},"ग":{"ha":647,"x_min":1,"x_max":858,"o":"m 842 860 l 858 844 q 824 796 849 811 l 678 796 l 593 613 l 494 0 q 382 32 415 -10 l 561 796 l 372 796 q 268 269 328 499 q 193 224 236 238 q 1 336 56 236 q 35 408 4 388 q 247 549 135 469 q 263 657 254 585 l 251 796 l 28 796 l 11 811 q 46 860 21 844 l 576 860 l 586 901 q 707 860 676 901 l 842 860 m 165 306 l 178 315 q 229 467 206 382 q 83 368 132 400 q 165 306 115 322 z "},"घ":{"ha":749,"x_min":13,"x_max":961,"o":"m 944 860 l 961 844 q 926 796 951 811 l 778 796 l 693 613 l 594 0 q 482 32 515 -10 l 554 342 l 601 401 l 590 414 q 380 243 500 324 q 176 140 260 163 q 102 185 132 156 q 72 249 72 215 q 308 486 183 388 l 303 493 q 118 450 199 460 q 61 499 83 465 q 42 565 39 532 q 307 796 132 679 l 29 796 l 13 811 q 47 860 22 844 l 676 860 l 686 901 q 807 860 776 901 l 944 860 m 604 556 l 661 796 l 440 796 q 128 540 246 676 l 136 528 q 317 569 210 535 q 367 541 346 568 q 394 474 388 514 q 163 233 238 342 l 172 224 q 411 365 292 269 q 604 556 531 460 z "},"ङ":{"ha":592,"x_min":-21,"x_max":804,"o":"m 788 860 l 804 844 q 769 796 794 811 l 432 796 q 531 704 496 756 q 524 658 533 685 q 496 614 515 632 q 323 536 443 578 q 172 479 203 494 l 171 471 q 343 395 214 440 q 521 313 472 350 q 524 238 533 285 q 497 175 514 190 q 299 81 436 124 q 38 24 161 39 q 13 111 -21 74 q 453 246 313 138 l 454 256 q 268 340 407 292 q 79 432 129 388 q 121 550 71 526 q 444 676 364 619 l 447 686 q 296 796 417 735 l 29 796 l 13 811 q 47 860 22 844 l 788 860 m 506 523 q 515 532 506 523 q 547 540 524 540 q 588 523 571 540 q 606 482 606 506 q 588 441 606 458 q 547 424 571 424 q 506 441 524 424 q 489 482 489 458 q 506 523 489 506 z "},"च":{"ha":829,"x_min":13,"x_max":1042,"o":"m 665 433 q 490 272 581 335 q 331 208 399 208 q 194 267 263 208 q 125 379 125 326 q 194 458 125 418 q 386 551 281 506 l 385 561 q 61 542 167 535 q 47 599 49 563 q 57 647 44 635 q 456 624 260 613 q 477 586 468 619 q 483 531 486 553 q 249 390 249 436 q 288 329 249 361 q 364 297 326 297 q 525 384 419 297 q 689 569 631 471 l 742 796 l 29 796 l 13 811 q 47 860 22 844 l 757 860 l 767 901 q 888 860 857 901 l 1025 860 l 1042 844 q 1007 796 1032 811 l 858 796 l 774 613 l 675 0 q 563 32 596 -10 l 631 318 l 685 418 l 665 433 z "},"छ":{"ha":806,"x_min":19,"x_max":947,"o":"m 931 860 l 947 844 q 913 796 938 811 l 769 796 q 738 663 775 742 q 785 575 786 615 q 644 353 779 481 q 666 185 668 232 q 583 68 664 138 q 422 -42 503 -1 q 381 21 368 -10 q 466 69 433 50 q 538 122 499 89 q 597 189 576 156 q 581 297 593 244 q 378 160 486 221 q 194 81 271 100 q 119 128 150 99 q 89 193 88 158 q 329 458 222 383 l 324 465 q 132 422 192 426 q 72 477 96 442 q 53 544 49 513 q 176 672 99 601 q 335 796 254 742 l 36 796 l 19 811 q 54 860 29 844 l 931 860 m 699 572 q 682 604 700 586 q 643 632 664 622 q 617 590 624 626 q 628 447 610 553 q 699 572 697 525 m 179 178 l 194 165 q 379 251 278 190 q 561 383 481 311 q 536 510 542 467 q 540 636 531 554 q 592 684 557 660 q 664 711 626 708 q 683 701 674 707 q 693 796 703 754 l 478 796 q 293 667 385 744 q 142 524 201 590 l 153 504 q 342 543 192 507 q 414 440 429 519 q 179 178 275 321 z "},"ज":{"ha":854,"x_min":7,"x_max":1067,"o":"m 238 164 q 110 253 161 164 q 69 442 60 343 q 108 547 75 492 q 194 633 140 601 q 257 588 239 642 q 168 444 176 519 q 250 240 151 289 q 367 313 314 257 q 425 415 421 369 q 410 450 428 436 q 367 472 392 464 q 402 542 375 513 q 457 571 429 572 q 532 519 482 544 q 729 636 635 528 l 767 796 l 24 796 l 7 811 q 42 860 17 844 l 782 860 l 792 901 q 913 860 882 901 l 1050 860 l 1067 844 q 1032 796 1057 811 l 883 796 l 799 613 l 700 0 q 588 32 621 -10 l 681 428 l 738 531 l 729 538 q 524 446 614 440 l 489 463 l 482 454 l 506 422 q 399 247 499 331 q 238 164 300 164 z "},"झ":{"ha":904,"x_min":-4,"x_max":1117,"o":"m 546 279 q 446 138 546 207 q 210 83 335 63 q 104 147 157 104 l 97 140 q 329 -154 228 -4 q 308 -185 329 -172 q 261 -201 288 -199 q -4 142 168 -43 q 51 215 17 185 q 119 236 86 246 q 239 157 165 186 q 372 186 315 157 q 458 261 428 215 l 457 271 q 373 322 444 300 q 215 373 301 344 q 90 444 129 401 q 103 514 90 478 q 139 565 117 550 q 277 610 149 569 q 444 674 406 650 l 447 679 q 307 796 417 726 l 29 796 l 13 811 q 47 860 22 844 l 832 860 l 842 901 q 963 860 932 901 l 1100 860 l 1117 844 q 1082 796 1107 811 l 933 796 l 849 613 l 750 0 q 638 32 671 -10 l 739 460 l 783 514 l 774 526 q 471 365 619 429 q 546 279 546 335 m 774 611 l 817 796 l 442 796 q 542 701 507 753 q 507 611 542 642 q 338 544 463 586 q 193 493 214 501 l 189 479 q 281 432 214 456 q 390 403 347 408 q 594 500 485 442 q 774 611 703 558 z "},"ञ":{"ha":800,"x_min":13,"x_max":1013,"o":"m 996 860 l 1013 844 q 978 796 1003 811 l 829 796 l 744 613 l 646 0 q 533 32 567 -10 l 633 453 l 676 504 l 667 521 q 468 410 586 463 q 358 229 444 304 q 178 160 272 154 q 99 220 139 163 q 44 354 58 278 q 121 368 92 383 q 194 232 147 254 q 315 303 253 242 q 382 450 378 365 q 366 553 386 514 q 290 617 346 593 q 143 549 217 610 q 94 613 89 578 q 296 689 199 694 q 420 625 374 683 q 474 489 467 567 q 671 622 614 556 l 713 796 l 29 796 l 13 811 q 47 860 22 844 l 728 860 l 738 901 q 858 860 828 901 l 996 860 z "},"ट":{"ha":633,"x_min":21,"x_max":817,"o":"m 457 679 q 310 796 431 726 l 43 796 l 26 811 q 61 860 36 844 l 800 860 l 817 844 q 782 796 807 811 l 436 796 q 543 690 507 751 q 515 617 540 650 q 358 509 469 578 q 228 428 246 440 q 126 307 125 358 q 267 161 129 217 q 525 315 417 178 q 590 257 581 315 q 449 149 543 199 q 254 96 356 99 q 88 177 156 117 q 21 304 21 238 q 56 392 21 353 q 139 460 92 431 q 256 531 186 490 q 456 669 399 613 l 457 679 z "},"ठ":{"ha":714,"x_min":18,"x_max":868,"o":"m 18 311 q 63 403 18 360 q 167 483 108 447 q 296 558 225 519 q 405 623 367 596 q 464 679 443 650 l 467 692 q 339 796 436 742 l 39 796 l 22 811 q 57 860 32 844 l 851 860 l 868 844 q 833 796 858 811 l 460 796 q 554 697 531 750 q 519 622 549 657 q 422 557 476 589 q 577 476 503 526 q 674 372 651 426 q 548 163 668 249 q 290 68 428 78 q 99 155 181 83 q 18 311 18 226 m 151 232 q 294 129 201 164 q 490 214 404 142 q 581 364 575 286 q 358 518 526 439 q 201 418 224 438 q 157 381 178 399 q 121 310 121 347 q 151 232 121 274 z "},"ड":{"ha":592,"x_min":-21,"x_max":804,"o":"m 788 860 l 804 844 q 769 796 794 811 l 432 796 q 531 704 496 756 q 524 658 533 685 q 496 614 515 632 q 323 536 443 578 q 172 479 203 494 l 171 471 q 343 395 214 440 q 521 313 472 350 q 524 238 533 285 q 497 175 514 190 q 299 81 436 124 q 38 24 161 39 q 13 111 -21 74 q 453 246 313 138 l 454 256 q 268 340 407 292 q 79 432 129 388 q 121 550 71 526 q 444 676 364 619 l 447 686 q 296 796 417 735 l 29 796 l 13 811 q 47 860 22 844 l 788 860 z "},"ढ":{"ha":678,"x_min":25,"x_max":865,"o":"m 131 300 q 196 182 131 240 q 317 282 231 210 q 465 400 404 354 q 572 351 522 394 q 622 268 622 307 q 505 135 622 210 q 304 60 388 60 q 136 132 221 60 q 25 285 51 204 q 60 378 28 340 q 274 516 104 417 q 479 660 443 615 l 485 675 q 437 732 467 708 q 343 796 407 756 l 56 796 l 39 811 q 74 860 49 844 l 849 860 l 865 844 q 831 796 856 811 l 457 796 q 560 699 544 739 q 545 619 575 660 q 443 531 515 579 q 303 447 371 483 q 131 300 131 351 m 468 324 q 240 149 421 293 q 306 119 271 131 q 529 264 472 153 q 468 324 522 303 z "},"ण":{"ha":824,"x_min":13,"x_max":1038,"o":"m 539 485 q 413 317 501 379 q 258 256 324 256 q 131 336 192 256 q 71 492 71 417 q 124 628 71 543 q 257 796 176 714 l 29 796 l 13 811 q 47 860 22 844 l 751 860 l 761 901 q 882 860 851 901 l 1021 860 l 1038 844 q 1003 796 1028 811 l 853 796 l 768 613 l 669 0 q 557 32 590 -10 l 736 796 l 483 796 q 539 485 554 650 m 388 796 l 364 796 q 234 646 290 735 q 168 485 178 557 q 263 326 181 371 q 383 397 329 347 q 451 514 438 447 q 388 796 451 638 z "},"त":{"ha":672,"x_min":13,"x_max":885,"o":"m 868 860 l 885 844 q 850 796 875 811 l 701 796 l 617 613 l 518 0 q 406 32 439 -10 l 508 468 l 540 507 l 532 518 q 335 428 450 472 q 144 363 221 383 q 115 303 122 336 q 285 47 147 179 q 225 -4 285 10 q 89 140 139 72 q 14 297 39 208 q 48 389 22 344 q 114 450 74 433 q 538 596 326 481 l 585 796 l 29 796 l 13 811 q 47 860 22 844 l 600 860 l 610 901 q 731 860 700 901 l 868 860 z "},"थ":{"ha":733,"x_min":33,"x_max":946,"o":"m 576 442 q 399 282 492 344 q 237 219 306 219 q 101 276 168 219 q 33 390 33 333 q 73 465 33 426 q 196 559 113 503 q 311 640 279 615 l 200 664 q 128 765 128 714 q 202 886 128 815 q 351 957 276 957 q 452 904 407 957 q 500 793 497 851 q 458 686 497 740 q 365 588 419 632 q 258 506 311 544 q 167 436 204 468 q 129 380 129 404 q 166 324 129 356 q 243 293 203 293 q 424 387 314 293 q 596 581 535 481 l 646 796 l 572 796 l 556 811 q 590 860 565 844 l 661 860 l 671 901 q 792 860 761 901 l 929 860 l 946 844 q 911 796 936 811 l 763 796 l 678 613 l 579 0 q 467 32 500 -10 l 536 328 l 592 429 l 576 442 m 364 689 q 413 783 413 744 q 389 852 413 821 q 335 883 365 883 q 258 842 306 883 q 211 775 211 800 q 238 726 211 750 l 364 689 z "},"द":{"ha":651,"x_min":18,"x_max":801,"o":"m 490 297 q 301 57 303 60 q 105 144 189 75 q 21 294 21 214 q 79 400 21 346 q 211 494 138 454 q 469 672 424 608 l 472 682 q 340 796 451 726 l 35 796 l 18 811 q 53 860 28 844 l 785 860 l 801 844 q 767 796 792 811 l 460 796 q 563 697 539 743 q 532 600 572 658 q 395 508 496 567 q 215 394 294 450 q 119 289 136 338 q 180 204 136 243 q 276 151 224 165 q 478 389 303 181 q 593 324 549 396 q 418 -203 540 200 q 333 -162 344 -203 q 390 -7 353 -108 q 497 293 481 236 l 490 297 z "},"ध":{"ha":786,"x_min":38,"x_max":999,"o":"m 982 860 l 999 844 q 964 796 989 811 l 815 796 l 731 613 l 632 0 q 519 32 553 -10 l 594 356 l 642 414 l 628 429 q 409 254 538 339 q 186 140 281 169 q 112 185 142 156 q 82 249 82 215 q 325 493 196 392 l 319 500 q 142 451 239 464 q 69 510 100 472 q 42 583 38 547 q 195 789 75 671 q 451 958 315 907 q 515 932 486 961 q 556 851 544 903 q 426 688 531 768 q 221 578 322 607 l 136 592 q 125 567 128 575 q 153 528 126 543 q 333 576 226 533 q 383 548 363 575 q 411 481 404 521 q 172 233 249 343 l 182 224 q 432 365 290 263 q 642 556 574 468 l 699 796 l 603 796 l 586 811 q 621 860 596 844 l 714 860 l 724 901 q 844 860 814 901 l 982 860 m 163 636 l 214 646 q 367 729 283 663 q 475 857 451 796 q 453 883 471 879 q 297 778 381 849 q 163 636 213 708 z "},"न":{"ha":686,"x_min":13,"x_max":899,"o":"m 882 860 l 899 844 q 864 796 889 811 l 29 796 l 13 811 q 47 860 22 844 l 882 860 m 569 667 l 557 672 q 264 471 422 575 q 292 278 296 389 q 207 228 258 244 q 19 336 76 240 q 54 413 26 386 q 117 451 67 421 q 186 493 168 482 q 250 533 204 504 q 319 576 296 561 q 382 618 342 592 q 450 664 422 644 q 574 754 513 708 q 690 704 649 750 l 622 556 l 532 0 q 419 32 453 -10 l 569 667 m 192 306 l 204 315 q 203 431 215 372 l 103 364 q 192 306 138 319 z "},"प":{"ha":626,"x_min":13,"x_max":839,"o":"m 822 860 l 839 844 q 804 796 829 811 l 656 796 l 571 613 l 472 0 q 360 32 393 -10 l 460 461 l 488 514 l 475 522 q 157 236 296 354 q 88 252 128 233 q 29 299 47 271 q 160 796 129 674 l 29 796 l 13 811 q 47 860 22 844 l 554 860 l 564 901 q 685 860 654 901 l 822 860 m 497 618 l 539 796 l 294 796 l 201 599 q 178 470 194 556 q 154 342 161 385 l 167 335 q 497 618 347 474 z "},"फ":{"ha":876,"x_min":13,"x_max":1057,"o":"m 706 721 q 842 676 796 722 q 889 563 889 629 q 870 446 889 497 q 811 346 851 394 q 731 260 771 297 q 628 172 692 224 l 585 214 q 736 374 686 297 q 786 538 786 450 q 717 647 786 626 q 607 542 681 613 q 497 438 533 472 l 426 0 q 314 32 347 -10 l 406 426 l 431 479 l 421 489 q 146 242 267 344 q 76 258 117 239 q 18 304 36 276 l 158 796 l 29 796 l 13 811 q 47 860 22 844 l 508 860 l 518 901 q 639 860 608 901 l 1040 860 l 1057 844 q 1022 796 1047 811 l 610 796 l 526 613 l 492 522 l 500 514 q 706 721 672 686 m 443 586 l 493 796 l 294 796 l 201 599 q 172 473 192 557 q 143 347 153 389 l 156 340 q 443 586 292 442 z "},"ब":{"ha":561,"x_min":13,"x_max":774,"o":"m 389 369 q 193 142 372 350 q 63 191 110 147 q 17 317 17 235 q 99 577 17 454 q 296 700 182 700 q 422 583 378 700 l 425 585 l 474 796 l 29 796 l 13 811 q 47 860 22 844 l 489 860 l 499 901 q 619 860 589 901 l 757 860 l 774 844 q 739 796 764 811 l 590 796 l 506 613 l 407 0 q 294 32 328 -10 l 351 272 l 401 360 l 389 369 m 169 518 q 119 329 119 425 q 168 210 119 233 q 307 353 306 351 q 169 518 233 431 m 301 629 q 207 574 251 629 q 350 397 274 481 l 390 439 l 406 506 q 301 629 356 629 z "},"भ":{"ha":697,"x_min":42,"x_max":854,"o":"m 838 860 l 854 844 q 819 796 844 811 l 546 796 l 529 811 q 564 860 539 844 l 838 860 m 207 621 q 126 649 167 621 q 85 705 85 678 q 111 758 85 732 q 237 849 161 789 q 356 956 313 910 q 414 946 381 958 q 458 917 447 933 q 393 608 422 754 q 593 754 519 694 q 710 704 668 750 l 642 556 l 551 0 q 439 32 472 -10 l 589 667 l 578 672 q 376 531 504 618 q 319 269 331 321 q 233 224 293 243 q 42 336 96 236 q 75 408 44 388 q 288 540 89 417 q 306 621 289 546 l 324 658 l 315 668 l 207 621 m 203 682 l 324 715 q 353 854 350 842 l 349 857 l 165 707 q 203 682 178 688 m 206 306 l 218 313 q 265 458 235 358 l 124 368 q 206 306 153 325 z "},"म":{"ha":661,"x_min":-1,"x_max":874,"o":"m 857 860 l 874 844 q 839 796 864 811 l 369 796 q 338 606 357 718 q 550 754 431 668 q 667 704 625 750 l 599 556 l 508 0 q 396 32 429 -10 l 546 667 l 532 674 q 322 529 410 588 q 265 269 289 361 q 190 224 233 238 q -1 336 53 236 q 32 408 1 388 q 243 544 188 507 q 260 657 253 599 l 249 796 l 29 796 l 13 811 q 47 860 22 844 l 857 860 m 225 464 l 81 369 q 163 306 111 322 l 175 315 q 225 464 206 389 z "},"य":{"ha":725,"x_min":13,"x_max":938,"o":"m 569 447 q 387 281 489 351 q 224 210 285 210 q 93 270 164 210 q 22 375 22 331 q 79 468 22 419 q 204 557 136 517 q 329 649 272 597 q 386 744 386 701 q 366 776 386 764 q 322 789 346 789 q 167 717 256 789 q 122 764 118 729 q 158 796 138 781 l 29 796 l 13 811 q 47 860 22 844 l 653 860 l 663 901 q 783 860 753 901 l 921 860 l 938 844 q 903 796 928 811 l 754 796 l 669 613 l 571 0 q 458 32 492 -10 l 531 335 l 585 435 l 569 447 m 483 749 q 426 639 483 699 q 301 536 369 579 q 119 375 119 418 q 158 313 119 347 q 233 279 196 279 q 410 377 289 279 q 586 574 531 475 l 638 796 l 464 796 q 483 749 483 774 z "},"र":{"ha":499,"x_min":8,"x_max":711,"o":"m 439 694 q 414 756 439 726 q 356 786 389 786 q 211 708 279 786 q 161 754 164 718 q 199 796 171 771 l 29 796 l 13 811 q 47 860 22 844 l 694 860 l 711 844 q 676 796 701 811 l 503 796 q 542 694 542 746 q 472 544 540 619 q 309 423 404 468 q 132 378 214 378 l 125 367 q 396 49 276 182 q 373 12 389 25 q 342 0 357 -1 q 182 176 304 39 q 8 364 60 314 q 106 465 38 460 q 154 458 128 457 q 342 533 246 463 q 439 694 439 603 z "},"ऱ":{"ha":499,"x_min":-17,"x_max":711,"o":"m 439 694 q 414 756 439 726 q 356 786 389 786 q 211 708 279 786 q 161 754 164 718 q 199 796 171 771 l 29 796 l 13 811 q 47 860 22 844 l 694 860 l 711 844 q 676 796 701 811 l 503 796 q 542 694 542 746 q 472 544 540 619 q 309 423 404 468 q 132 378 214 378 l 125 367 q 396 49 276 182 q 373 12 389 25 q 342 0 357 -1 q 182 176 304 39 q 8 364 60 314 q 106 465 38 460 q 154 458 128 457 q 342 533 246 463 q 439 694 439 603 m -17 41 q -17 55 -17 41 q 3 90 -17 69 q 52 110 24 110 q 101 90 81 110 q 121 41 121 69 q 101 -8 121 13 q 52 -28 81 -28 q 3 -8 24 -28 q -17 41 -17 13 z "},"ल":{"ha":826,"x_min":13,"x_max":1039,"o":"m 38 346 q 99 490 38 404 q 219 607 161 576 q 280 616 240 614 q 335 614 319 618 q 432 433 421 558 q 410 356 424 388 l 415 351 q 700 631 550 447 l 739 796 l 29 796 l 13 811 q 47 860 22 844 l 754 860 l 764 901 q 885 860 854 901 l 1022 860 l 1039 844 q 1004 796 1029 811 l 856 796 l 771 613 l 672 0 q 560 32 593 -10 l 650 418 l 685 479 l 672 492 q 422 271 490 324 q 350 288 382 269 q 318 333 318 307 q 356 432 351 392 q 279 547 340 524 q 180 471 225 531 q 126 351 135 411 q 306 74 150 164 q 297 27 317 47 q 240 0 278 7 q 88 167 139 72 q 38 346 38 261 z "},"ळ":{"ha":1033,"x_min":11,"x_max":1246,"o":"m 969 396 q 880 147 969 267 q 658 0 790 28 q 481 168 571 42 q 238 0 360 53 q 75 90 139 21 q 11 243 11 160 q 117 442 11 326 q 346 571 222 558 q 515 308 460 443 q 609 413 553 349 q 696 512 665 478 q 766 576 726 546 q 838 610 806 606 q 865 796 874 729 l 28 796 l 11 811 q 46 860 21 844 l 1229 860 l 1246 844 q 1211 796 1236 811 l 940 796 q 900 586 946 717 q 949 501 929 557 q 969 396 969 444 m 232 76 q 469 261 354 146 q 322 485 406 390 q 178 378 243 454 q 104 233 114 303 q 232 76 122 117 m 675 78 q 826 208 767 122 q 886 372 886 294 q 844 524 886 450 q 751 454 799 499 q 634 332 703 410 q 531 218 565 254 q 675 78 599 124 z "},"व":{"ha":578,"x_min":13,"x_max":790,"o":"m 403 364 l 224 142 q 79 201 131 147 q 28 344 28 254 q 110 590 28 479 q 308 700 193 700 q 440 583 388 700 l 449 588 l 493 796 l 29 796 l 13 811 q 47 860 22 844 l 507 860 l 515 901 q 636 860 606 901 l 774 860 l 790 844 q 756 796 781 811 l 607 796 l 522 613 l 424 0 q 311 32 344 -10 l 367 272 l 418 351 l 403 364 m 314 629 q 188 543 246 629 q 131 350 131 457 q 199 210 131 243 l 407 439 l 422 507 q 314 629 375 629 z "},"श":{"ha":806,"x_min":11,"x_max":1018,"o":"m 1001 860 l 1018 844 q 983 796 1008 811 l 835 796 l 750 613 l 651 0 q 539 32 572 -10 l 718 796 l 597 796 l 581 811 q 615 860 590 844 l 733 860 l 743 901 q 864 860 833 901 l 1001 860 m 158 767 q 233 886 158 815 q 378 957 307 957 q 497 888 450 957 q 544 729 544 818 q 421 490 544 596 q 135 378 297 385 l 128 367 q 399 49 279 182 q 376 12 392 25 q 344 0 360 -1 q 185 176 307 39 q 11 364 63 314 q 108 465 40 460 q 314 511 203 439 q 422 619 383 556 l 251 644 q 190 701 221 661 q 158 767 158 740 m 444 671 q 453 744 453 697 q 431 838 453 792 q 373 883 410 883 q 289 842 336 883 q 242 771 242 800 q 258 735 242 756 q 289 706 274 715 l 444 671 z "},"ष":{"ha":626,"x_min":13,"x_max":839,"o":"m 822 860 l 839 844 q 804 796 829 811 l 656 796 l 571 613 l 472 0 q 360 32 393 -10 l 460 461 l 488 514 l 475 522 q 157 236 296 354 q 88 252 128 233 q 29 299 47 271 q 160 796 129 674 l 29 796 l 13 811 q 47 860 22 844 l 554 860 l 564 901 q 685 860 654 901 l 822 860 m 154 342 l 167 335 q 388 518 268 413 q 244 690 285 618 l 201 599 q 178 470 194 556 q 154 342 161 385 m 497 618 l 539 796 l 294 796 l 272 747 q 436 561 342 653 q 497 618 474 596 z "},"स":{"ha":851,"x_min":7,"x_max":1064,"o":"m 364 363 q 275 408 349 363 q 131 378 197 376 l 124 367 q 394 49 275 182 q 372 12 388 25 q 340 0 356 -1 q 181 176 303 39 q 7 364 58 314 q 104 465 36 460 q 174 460 131 453 q 351 540 264 472 q 438 686 438 608 q 414 753 438 719 q 363 786 390 786 q 210 708 278 786 q 160 754 163 718 q 197 796 169 771 l 29 796 l 13 811 q 47 860 22 844 l 779 860 l 789 901 q 910 860 879 901 l 1047 860 l 1064 844 q 1029 796 1054 811 l 881 796 l 796 613 l 697 0 q 585 32 618 -10 l 681 438 l 722 493 l 710 511 q 525 408 635 453 q 364 363 415 363 m 500 796 q 540 690 540 747 q 484 563 540 632 q 344 444 428 494 q 372 433 364 433 q 542 488 422 433 q 721 611 661 543 l 764 796 l 500 796 z "},"ह":{"ha":635,"x_min":14,"x_max":779,"o":"m 335 276 q 381 347 381 318 q 338 375 381 375 q 200 329 275 375 q 104 211 125 283 q 168 106 113 153 q 307 46 224 58 q 493 128 418 57 q 546 64 539 125 q 444 6 514 31 q 307 -24 375 -19 q 105 53 196 -19 q 14 215 14 126 q 119 368 14 303 q 353 428 224 433 l 357 436 q 280 475 338 449 q 188 510 222 501 q 190 578 172 533 q 233 635 207 624 q 531 711 432 642 l 533 721 q 436 796 513 757 l 92 796 l 75 811 q 110 860 85 844 l 763 860 l 779 844 q 744 796 769 811 l 549 796 q 601 726 588 765 q 558 640 603 676 q 272 564 454 583 l 269 553 q 435 458 399 490 q 474 392 472 426 q 404 238 474 317 q 356 249 376 236 q 335 276 336 261 z "},"़":{"ha":0,"x_min":25,"x_max":163,"o":"m 163 41 q 163 27 163 41 q 142 -8 163 13 q 94 -28 122 -28 q 45 -8 65 -28 q 25 41 25 13 q 45 90 25 69 q 94 110 65 110 q 142 90 122 110 q 163 41 163 69 z "},"ऽ":{"ha":739,"x_min":31,"x_max":940,"o":"m 301 0 q 153 50 233 0 q 33 149 72 100 q 42 186 31 171 q 74 201 54 201 q 183 117 119 154 q 307 65 247 79 q 475 175 396 90 q 556 324 554 260 q 361 436 558 368 q 228 499 289 463 q 168 576 167 536 q 222 697 169 615 q 338 815 274 779 q 921 860 585 872 q 934 824 940 851 q 900 781 928 796 q 371 750 621 793 q 263 576 285 688 q 420 499 314 542 q 589 419 526 457 q 650 331 651 381 q 520 113 647 226 q 301 0 393 0 z "},"ा":{"ha":268,"x_min":1,"x_max":481,"o":"m 464 860 l 481 844 q 446 796 471 811 l 297 796 l 213 613 l 114 0 q 1 32 35 -10 l 181 796 l 29 796 l 13 811 q 47 860 22 844 l 196 860 l 206 901 q 326 860 296 901 l 464 860 z "},"ि":{"ha":286,"x_min":7,"x_max":701,"o":"m 261 1242 q 317 1290 282 1269 q 390 1313 353 1310 q 701 950 542 1199 q 644 906 699 907 q 513 1094 588 1003 q 367 1236 438 1185 l 356 1229 l 281 860 l 463 860 l 479 844 q 444 796 469 811 l 268 796 q 119 0 172 318 q 7 32 38 -7 l 193 796 l 29 796 l 13 811 q 47 860 22 844 l 206 860 l 261 1242 z "},"ी":{"ha":268,"x_min":-39,"x_max":481,"o":"m 275 1313 q 337 1291 303 1313 q 383 1238 371 1269 q 261 860 281 924 l 464 860 l 481 844 q 446 796 471 811 l 243 796 l 114 0 q 1 32 35 -10 q 172 796 24 122 l 29 796 l 13 811 q 47 860 22 844 l 186 860 q 267 1210 242 1110 l 257 1217 q 35 921 160 1146 q -13 935 8 922 q -39 971 -35 949 q 119 1195 17 1078 q 275 1313 221 1313 z "},"ु":{"ha":0,"x_min":-665,"x_max":-74,"o":"m -226 -28 q -130 -65 -186 -28 q -74 -132 -74 -103 q -176 -259 -74 -200 q -372 -324 -278 -318 q -542 -259 -460 -318 q -665 -124 -624 -200 q -567 -69 -625 -64 q -496 -190 -537 -146 q -375 -269 -454 -235 q -237 -218 -296 -256 q -179 -129 -179 -181 q -211 -110 -194 -111 q -315 -151 -256 -112 q -366 -119 -349 -140 q -375 -71 -383 -97 q -226 -28 -308 -28 z "},"ू":{"ha":0,"x_min":-422,"x_max":78,"o":"m -422 -165 q -378 -74 -422 -119 q -279 -28 -335 -28 q -110 -104 -224 -28 q 69 -247 4 -181 q -1 -324 78 -297 q -276 -94 -139 -142 q -340 -151 -324 -94 q -221 -233 -306 -201 q -267 -306 -203 -287 q -374 -239 -325 -283 q -422 -165 -422 -194 z "},"ृ":{"ha":0,"x_min":-393,"x_max":21,"o":"m -279 -324 q -356 -291 -319 -324 q -393 -228 -393 -258 q -328 -117 -393 -178 q -187 -28 -264 -57 q -136 -56 -150 -37 q -128 -93 -122 -75 q -249 -147 -208 -118 q -317 -231 -289 -176 l -299 -261 q -156 -239 -224 -271 q -47 -162 -89 -207 q 7 -224 21 -176 q -279 -324 -107 -324 z "},"ॄ":{"ha":0,"x_min":-407,"x_max":-87,"o":"m -379 -146 q -181 -28 -296 -71 q -128 -89 -110 -32 q -300 -165 -232 -115 l -293 -181 q -203 -162 -244 -172 q -160 -203 -172 -174 q -161 -254 -149 -232 q -328 -344 -275 -292 l -311 -364 q -133 -289 -221 -361 q -99 -311 -111 -289 q -92 -353 -87 -333 q -196 -405 -133 -386 q -319 -422 -258 -424 q -386 -384 -365 -412 q -401 -322 -407 -356 q -240 -232 -336 -267 l -244 -224 q -350 -217 -312 -247 q -379 -146 -387 -186 z "},"ॅ":{"ha":0,"x_min":-189,"x_max":282,"o":"m 13 950 q -101 1031 -40 950 q -189 1197 -162 1111 q -93 1238 -147 1257 q 21 1004 -67 1069 q 210 1154 142 1024 q 282 1107 265 1164 q 166 998 243 1046 q 13 950 89 950 z "},"े":{"ha":0,"x_min":-318,"x_max":29,"o":"m -203 1313 q -118 1249 -167 1313 q -35 1117 -69 1186 q 29 975 -1 1049 q -19 950 26 950 q -171 1203 -94 1111 l -217 1161 q -318 1253 -317 1186 q -203 1313 -275 1313 z "},"ै":{"ha":0,"x_min":-326,"x_max":29,"o":"m -206 1313 q -111 1250 -164 1313 q 29 985 -17 1135 q -24 950 24 950 q -79 1004 -57 986 q -139 1033 -101 1022 l -181 983 q -279 1065 -274 1001 q -184 1121 -243 1121 q -43 1029 -125 1121 l -39 1033 q -179 1203 -111 1168 l -225 1161 q -326 1253 -325 1186 q -206 1313 -283 1313 z "},"ॉ":{"ha":268,"x_min":1,"x_max":556,"o":"m 286 950 q 172 1031 233 950 q 85 1197 111 1111 q 181 1238 126 1257 q 294 1004 207 1069 q 483 1154 415 1024 q 556 1107 539 1164 q 440 998 517 1046 q 286 950 363 950 m 326 860 l 464 860 l 481 844 q 446 796 471 811 l 297 796 l 213 613 l 114 0 q 1 32 35 -10 l 181 796 l 29 796 l 13 811 q 47 860 22 844 l 196 860 l 206 901 q 326 860 296 901 z "},"ो":{"ha":268,"x_min":-60,"x_max":481,"o":"m 464 860 l 481 844 q 446 796 471 811 l 297 796 l 213 613 l 114 0 q 1 32 35 -10 l 181 796 l 29 796 l 13 811 q 47 860 22 844 l 196 860 l 206 901 q 326 860 296 901 l 464 860 m 56 1313 q 140 1249 92 1313 q 223 1117 189 1186 q 288 975 257 1049 q 239 950 285 950 q 88 1203 164 1111 l 42 1161 q -60 1253 -58 1186 q 56 1313 -17 1313 z "},"ौ":{"ha":268,"x_min":-69,"x_max":481,"o":"m 464 860 l 481 844 q 446 796 471 811 l 297 796 l 213 613 l 114 0 q 1 32 35 -10 l 181 796 l 29 796 l 13 811 q 47 860 22 844 l 196 860 l 206 901 q 326 860 296 901 l 464 860 m -22 1065 q 73 1121 14 1121 q 214 1029 132 1121 l 218 1033 q 78 1203 146 1168 l 32 1161 q -69 1253 -68 1186 q 51 1313 -26 1313 q 144 1250 93 1313 q 286 985 240 1135 q 233 950 281 950 q 178 1004 200 986 q 118 1033 156 1022 l 76 983 q -22 1065 -17 1001 z "},"्":{"ha":0,"x_min":-371,"x_max":61,"o":"m 31 -310 q -160 -187 -74 -232 q -369 -104 -246 -142 q -319 -26 -371 -36 q -117 -130 -221 -61 q 57 -278 -12 -199 q 31 -310 61 -300 z "},"ॐ":{"ha":1481,"x_min":110,"x_max":1321,"o":"m 844 292 q 723 107 844 204 q 451 0 601 10 q 244 124 331 40 q 110 314 157 207 q 207 379 136 397 q 463 71 292 144 q 648 154 565 92 q 756 289 731 217 q 705 374 744 326 q 625 451 665 421 q 499 408 567 424 q 475 478 443 432 q 675 561 613 514 q 786 707 738 608 q 660 828 747 799 q 592 805 618 818 q 556 787 567 792 q 522 766 546 782 q 492 747 497 750 q 459 723 488 743 q 429 701 431 703 q 369 726 388 703 q 364 774 350 749 q 519 863 450 832 q 678 901 588 893 q 803 832 747 885 q 879 719 858 779 q 807 583 863 646 q 671 475 751 519 q 731 439 701 460 l 824 460 q 927 560 868 493 q 1038 678 986 628 q 1140 742 1090 728 q 1273 609 1232 692 q 1321 393 1314 526 q 1191 170 1292 279 q 938 0 1090 61 q 897 79 872 29 q 1116 206 1021 115 q 1247 404 1211 297 q 1212 562 1238 503 q 1135 658 1186 621 q 994 531 1078 625 q 871 401 910 436 l 786 393 q 844 292 844 332 m 1269 967 q 1153 856 1232 903 q 1007 810 1074 810 q 872 890 940 810 q 783 1057 804 971 q 879 1097 825 1117 q 919 963 885 1026 q 1001 864 953 900 q 1197 1014 1131 881 q 1269 967 1253 1024 m 1111 1003 q 1111 989 1111 1003 q 1091 955 1111 975 q 1042 935 1071 935 q 994 955 1014 935 q 974 1003 974 975 q 994 1052 974 1032 q 1042 1072 1014 1072 q 1091 1052 1071 1072 q 1111 1003 1111 1032 z "},"क़":{"ha":836,"x_min":13,"x_max":1049,"o":"m 825 536 q 590 140 825 340 q 547 182 542 157 q 722 526 722 343 q 653 618 722 611 q 567 519 633 594 q 475 413 500 443 l 408 0 q 296 32 329 -10 l 340 222 l 392 326 l 376 336 q 217 142 274 214 q 87 191 133 147 q 40 319 40 235 q 76 492 40 403 q 174 640 113 581 q 303 700 236 700 q 353 680 329 700 q 388 643 378 660 q 424 586 399 626 l 426 588 l 475 796 l 29 796 l 13 811 q 47 860 22 844 l 490 860 l 500 901 q 621 860 590 901 l 1032 860 l 1049 844 q 1014 796 1039 811 l 594 796 l 479 517 l 489 510 q 570 608 518 544 q 635 685 622 671 q 773 657 721 697 q 825 536 825 617 m 308 629 q 199 529 254 629 q 143 317 143 429 q 192 210 143 233 q 389 432 315 339 l 407 507 q 308 629 360 629 m 50 41 q 50 55 50 41 q 70 90 50 69 q 119 110 90 110 q 167 90 147 110 q 188 41 188 69 q 167 -8 188 13 q 119 -28 147 -28 q 70 -8 90 -28 q 50 41 50 13 z "},"ख़":{"ha":1015,"x_min":13,"x_max":1228,"o":"m 464 686 q 440 753 464 719 q 384 786 417 786 q 309 765 351 786 q 236 708 267 744 q 186 754 189 718 q 224 796 196 771 l 29 796 l 13 811 q 47 860 22 844 l 932 860 l 942 901 q 1063 860 1032 901 l 1211 860 l 1228 844 q 1193 796 1218 811 l 1033 796 l 949 613 l 850 0 q 738 32 771 -10 l 788 243 l 825 297 l 811 310 q 618 159 760 240 q 385 67 476 78 q 222 153 296 83 q 102 281 154 218 q 33 364 50 344 q 131 465 63 460 l 146 451 q 369 533 275 465 q 464 686 464 601 m 776 628 q 683 538 725 628 q 640 383 640 449 q 696 318 640 318 q 774 361 731 318 q 839 457 817 404 l 850 507 q 822 590 842 553 q 776 628 801 628 m 526 796 q 567 686 567 747 q 499 550 567 625 q 335 428 431 475 q 157 381 239 381 l 150 369 q 309 194 258 236 q 396 153 360 153 q 656 263 457 153 l 651 269 q 574 304 606 269 q 543 391 543 339 q 569 513 543 443 q 649 641 594 583 q 771 699 704 699 q 869 606 838 699 l 874 607 l 917 796 l 526 796 m 49 41 q 49 55 49 41 q 69 90 49 69 q 117 110 89 110 q 166 90 146 110 q 186 41 186 69 q 166 -8 186 13 q 117 -28 146 -28 q 69 -8 89 -28 q 49 41 49 13 z "},"ग़":{"ha":647,"x_min":1,"x_max":858,"o":"m 842 860 l 858 844 q 824 796 849 811 l 678 796 l 593 613 l 494 0 q 382 32 415 -10 l 561 796 l 372 796 q 268 269 328 499 q 193 224 236 238 q 1 336 56 236 q 35 408 4 388 q 247 549 135 469 q 263 657 254 585 l 251 796 l 28 796 l 11 811 q 46 860 21 844 l 576 860 l 586 901 q 707 860 676 901 l 842 860 m 165 306 l 178 315 q 229 467 206 382 q 83 368 132 400 q 165 306 115 322 m 24 41 q 24 55 24 41 q 44 90 24 69 q 92 110 64 110 q 141 90 121 110 q 161 41 161 69 q 141 -8 161 13 q 92 -28 121 -28 q 44 -8 64 -28 q 24 41 24 13 z "},"ज़":{"ha":854,"x_min":7,"x_max":1067,"o":"m 238 164 q 110 253 161 164 q 69 442 60 343 q 108 547 75 492 q 194 633 140 601 q 257 588 239 642 q 168 444 176 519 q 250 240 151 289 q 367 313 314 257 q 425 415 421 369 q 410 450 428 436 q 367 472 392 464 q 402 542 375 513 q 457 571 429 572 q 532 519 482 544 q 729 636 635 528 l 767 796 l 24 796 l 7 811 q 42 860 17 844 l 782 860 l 792 901 q 913 860 882 901 l 1050 860 l 1067 844 q 1032 796 1057 811 l 883 796 l 799 613 l 700 0 q 588 32 621 -10 l 681 428 l 738 531 l 729 538 q 524 446 614 440 l 489 463 l 482 454 l 506 422 q 399 247 499 331 q 238 164 300 164 m 38 41 q 38 55 38 41 q 58 90 38 69 q 106 110 78 110 q 155 90 135 110 q 175 41 175 69 q 155 -8 175 13 q 106 -28 135 -28 q 58 -8 78 -28 q 38 41 38 13 z "},"ड़":{"ha":592,"x_min":-21,"x_max":804,"o":"m 788 860 l 804 844 q 769 796 794 811 l 432 796 q 531 704 496 756 q 524 658 533 685 q 496 614 515 632 q 323 536 443 578 q 172 479 203 494 l 171 471 q 343 395 214 440 q 521 313 472 350 q 524 238 533 285 q 497 175 514 190 q 299 81 436 124 q 38 24 161 39 q 13 111 -21 74 q 453 246 313 138 l 454 256 q 268 340 407 292 q 79 432 129 388 q 121 550 71 526 q 444 676 364 619 l 447 686 q 296 796 417 735 l 29 796 l 13 811 q 47 860 22 844 l 788 860 m 132 -95 q 132 -81 132 -95 q 152 -47 132 -67 q 201 -26 172 -26 q 249 -47 229 -26 q 269 -95 269 -67 q 249 -144 269 -124 q 201 -164 229 -164 q 152 -144 172 -164 q 132 -95 132 -124 z "},"ढ़":{"ha":678,"x_min":25,"x_max":865,"o":"m 131 300 q 196 182 131 240 q 317 282 231 210 q 465 400 404 354 q 572 351 522 394 q 622 268 622 307 q 505 135 622 210 q 304 60 388 60 q 136 132 221 60 q 25 285 51 204 q 60 378 28 340 q 274 516 104 417 q 479 660 443 615 l 485 675 q 437 732 467 708 q 343 796 407 756 l 56 796 l 39 811 q 74 860 49 844 l 849 860 l 865 844 q 831 796 856 811 l 457 796 q 560 699 544 739 q 545 619 575 660 q 443 531 515 579 q 303 447 371 483 q 131 300 131 351 m 468 324 q 240 149 421 293 q 306 119 271 131 q 529 264 472 153 q 468 324 522 303 m 203 -95 q 203 -81 203 -95 q 223 -47 203 -67 q 272 -26 243 -26 q 320 -47 300 -26 q 340 -95 340 -67 q 320 -144 340 -124 q 272 -164 300 -164 q 223 -144 243 -164 q 203 -95 203 -124 z "},"फ़":{"ha":876,"x_min":13,"x_max":1057,"o":"m 706 721 q 842 676 796 722 q 889 563 889 629 q 870 446 889 497 q 811 346 851 394 q 731 260 771 297 q 628 172 692 224 l 585 214 q 736 374 686 297 q 786 538 786 450 q 717 647 786 626 q 607 542 681 613 q 497 438 533 472 l 426 0 q 314 32 347 -10 l 406 426 l 431 479 l 421 489 q 146 242 267 344 q 76 258 117 239 q 18 304 36 276 l 158 796 l 29 796 l 13 811 q 47 860 22 844 l 508 860 l 518 901 q 639 860 608 901 l 1040 860 l 1057 844 q 1022 796 1047 811 l 610 796 l 526 613 l 492 522 l 500 514 q 706 721 672 686 m 443 586 l 493 796 l 294 796 l 201 599 q 172 473 192 557 q 143 347 153 389 l 156 340 q 443 586 292 442 m 76 97 q 76 111 76 97 q 97 145 76 125 q 145 165 117 165 q 194 145 174 165 q 214 97 214 125 q 194 48 214 68 q 145 28 174 28 q 97 48 117 28 q 76 97 76 68 z "},"ॠ":{"ha":1081,"x_min":-35,"x_max":1293,"o":"m 197 667 q 333 594 246 667 q 511 419 419 522 l 524 432 l 504 458 l 585 796 l 29 796 l 13 811 q 47 860 22 844 l 600 860 l 610 901 q 731 860 700 901 l 1276 860 l 1293 844 q 1258 796 1283 811 l 701 796 l 617 613 l 592 461 q 697 542 644 497 q 660 607 651 576 q 839 671 769 688 q 847 564 879 626 q 957 546 882 553 q 1006 492 994 536 q 993 413 1018 449 q 877 385 949 410 q 751 328 806 360 q 769 297 757 306 q 888 321 833 294 q 933 276 921 314 q 926 215 946 238 q 739 113 821 194 q 792 51 756 72 q 890 85 850 63 q 971 149 929 107 q 1005 126 993 149 q 1013 85 1017 104 q 912 25 963 44 q 786 0 861 6 q 699 47 731 10 q 668 135 668 85 q 833 239 740 206 l 825 250 q 714 258 758 226 q 678 354 669 289 q 926 474 758 424 l 925 488 l 782 507 l 579 382 l 518 0 q 406 32 439 -10 l 456 244 l 494 297 l 482 310 q 290 151 417 240 q 35 0 163 63 q -12 78 -35 35 q 467 376 254 181 q 233 567 379 475 l 197 501 q 75 572 90 511 q 130 639 90 611 q 197 667 169 667 z "},"ॡ":{"ha":946,"x_min":19,"x_max":1069,"o":"m 51 344 q 104 478 51 396 q 233 607 157 560 q 349 614 289 621 q 417 538 396 581 q 446 433 438 496 q 424 356 440 401 l 431 351 q 707 608 558 443 q 772 597 742 608 q 828 796 839 693 l 36 796 l 19 811 q 54 860 29 844 l 1053 860 l 1069 844 q 1035 796 1060 811 l 910 796 q 828 561 918 683 q 867 497 858 528 q 633 247 822 335 l 639 229 q 750 246 694 232 q 792 206 781 235 q 792 154 804 176 q 628 56 701 119 l 640 39 q 818 114 731 42 q 852 92 840 114 q 860 50 864 69 q 756 -2 818 17 q 632 -19 693 -21 q 565 19 586 -10 q 550 81 544 47 q 713 176 615 140 l 708 185 q 590 191 629 156 q 568 282 550 226 q 785 489 767 375 q 761 516 779 501 q 729 531 743 531 q 601 400 688 478 q 436 265 514 322 q 358 288 385 268 q 332 333 331 308 q 369 432 363 386 q 343 506 365 471 q 292 547 321 542 q 190 466 231 522 q 140 350 149 410 q 192 194 153 263 q 319 74 232 126 q 314 31 331 53 q 254 0 297 8 q 110 153 168 60 q 51 344 51 247 z "},"ॢ":{"ha":0,"x_min":-414,"x_max":-14,"o":"m -29 -268 q -71 -308 -35 -285 q -133 -332 -107 -332 q -191 -306 -158 -332 q -224 -257 -224 -281 q -151 -187 -224 -229 q -69 -122 -79 -144 q -97 -81 -65 -90 q -200 -175 -131 -124 q -250 -162 -226 -176 q -278 -129 -274 -147 q -261 -87 -261 -111 q -293 -69 -274 -72 q -354 -157 -340 -100 q -269 -282 -339 -242 q -276 -310 -264 -294 q -314 -326 -287 -325 q -385 -251 -357 -296 q -414 -169 -414 -206 q -388 -93 -414 -133 q -325 -29 -362 -53 q -262 -25 -299 -22 q -203 -86 -212 -51 q -214 -121 -203 -101 l -208 -125 q -112 -28 -171 -99 q -42 -58 -69 -28 q -14 -121 -14 -87 q -54 -177 -28 -154 q -115 -219 -81 -200 q -164 -253 -149 -239 q -129 -289 -157 -274 q -76 -232 -97 -271 q -41 -239 -53 -228 q -29 -268 -29 -250 z "},"ॣ":{"ha":0,"x_min":-414,"x_max":10,"o":"m -314 -326 q -385 -251 -356 -296 q -414 -170 -414 -207 q -387 -94 -414 -133 q -325 -29 -361 -54 q -261 -25 -296 -21 q -236 -39 -244 -35 q -203 -87 -214 -54 q -214 -121 -203 -106 l -208 -125 q -111 -26 -160 -87 q -46 -53 -72 -29 q -12 -108 -19 -76 q -56 -158 -26 -132 q -124 -200 -86 -185 l -121 -206 q -53 -192 -90 -206 q -30 -215 -36 -199 q -29 -250 -24 -232 q -121 -300 -76 -265 l -118 -308 q -18 -265 -67 -303 q 3 -277 -4 -265 q 4 -301 10 -289 q -118 -342 -44 -336 q -164 -285 -171 -325 q -69 -232 -146 -268 l -71 -228 q -149 -230 -119 -246 q -174 -182 -178 -214 q -68 -114 -92 -144 q -97 -82 -78 -82 q -200 -175 -142 -135 q -251 -160 -228 -176 q -278 -128 -275 -144 q -261 -87 -258 -112 q -293 -69 -271 -74 q -354 -157 -333 -93 q -269 -282 -339 -239 q -276 -310 -262 -296 q -314 -326 -289 -325 z "},"।":{"ha":490,"x_min":203,"x_max":493,"o":"m 332 596 l 369 978 q 442 1003 418 1000 q 493 983 465 1006 l 400 579 q 325 1 342 150 q 203 40 233 -11 q 332 596 281 328 z "},"॥":{"ha":758,"x_min":203,"x_max":761,"o":"m 332 596 l 369 978 q 442 1003 418 1000 q 493 983 465 1006 l 400 579 q 325 1 342 150 q 203 40 233 -11 q 332 596 281 328 m 600 596 l 638 978 q 710 1003 686 1000 q 761 983 733 1006 l 668 579 q 593 1 610 150 q 471 40 501 -11 q 600 596 549 328 z "},"०":{"ha":638,"x_min":53,"x_max":604,"o":"m 403 724 q 347 707 372 722 q 226 581 282 661 q 144 407 169 501 q 258 197 160 282 q 431 284 367 224 q 515 425 496 344 q 490 581 524 492 q 403 724 457 671 m 246 128 q 122 224 190 128 q 53 396 53 321 q 130 588 53 471 q 286 758 207 704 q 449 801 372 803 q 569 621 536 714 q 604 399 601 528 q 466 208 568 288 q 246 128 364 128 z "},"१":{"ha":626,"x_min":85,"x_max":564,"o":"m 417 922 q 517 849 481 922 q 556 694 554 776 q 417 409 556 663 q 281 114 279 156 q 313 85 283 85 q 401 117 343 85 q 517 200 460 150 q 558 179 553 200 q 564 151 561 172 q 313 0 475 56 q 213 45 246 14 q 178 114 179 76 q 215 201 178 136 q 305 358 251 265 q 386 518 358 451 l 431 556 l 419 571 q 258 500 332 522 q 137 571 183 526 q 85 671 90 615 q 223 844 124 765 q 417 922 322 922 m 408 844 q 279 785 350 844 q 183 669 208 726 q 212 613 194 633 q 265 574 229 593 q 449 646 374 608 q 451 803 488 711 q 408 844 435 844 z "},"२":{"ha":574,"x_min":31,"x_max":594,"o":"m 393 921 q 535 828 476 921 q 590 647 594 735 q 476 458 586 560 q 231 310 367 356 q 396 -17 279 89 q 385 -62 403 -42 q 326 -89 367 -82 q 164 292 193 94 q 103 285 142 288 q 47 417 31 344 q 120 458 68 449 q 211 440 172 468 q 217 388 214 404 q 513 644 443 468 q 481 767 508 719 q 388 851 454 815 q 186 742 265 828 q 137 771 151 750 q 135 817 122 792 q 261 890 186 860 q 393 921 336 921 z "},"३":{"ha":667,"x_min":18,"x_max":671,"o":"m 360 429 l 261 390 q 210 467 221 421 q 222 543 199 513 q 272 536 232 543 q 342 529 313 529 q 513 638 463 590 q 579 763 563 686 l 561 789 q 497 839 543 815 q 253 749 368 813 q 203 825 189 772 q 514 913 351 899 q 618 843 579 893 q 671 739 657 793 q 415 496 608 567 l 424 483 q 562 414 524 453 q 597 325 600 375 q 533 192 594 256 q 247 39 419 75 l 143 197 l 128 182 q 177 6 140 115 q 226 -181 214 -103 q 143 -203 218 -211 q 18 256 99 72 q 142 315 92 326 q 208 222 161 292 q 282 121 256 151 q 448 205 376 149 q 522 308 519 261 q 480 387 524 354 q 360 429 436 419 z "},"४":{"ha":735,"x_min":107,"x_max":811,"o":"m 317 65 q 400 106 369 83 q 456 171 431 129 q 399 501 461 358 q 204 218 275 360 q 263 108 217 150 q 317 65 281 93 m 761 911 q 806 864 811 917 q 461 568 590 700 q 543 158 544 388 q 318 0 475 31 q 175 86 231 28 q 111 221 119 144 q 363 572 206 404 q 107 836 281 714 q 175 908 131 900 q 426 636 335 797 q 761 911 563 769 z "},"५":{"ha":600,"x_min":36,"x_max":599,"o":"m 283 138 q 98 226 160 161 q 36 381 36 290 q 119 583 36 472 q 312 774 203 693 q 518 896 421 856 q 554 881 540 893 q 567 853 568 869 q 369 718 461 790 q 209 553 278 646 q 140 381 140 460 q 165 294 140 328 q 246 228 189 261 q 385 441 325 342 q 460 563 446 540 q 559 554 522 574 q 599 496 596 535 q 397 -160 503 83 q 328 -117 329 -157 q 499 446 435 138 l 483 453 q 283 138 435 386 z "},"६":{"ha":667,"x_min":44,"x_max":588,"o":"m 386 418 l 299 457 q 174 392 217 436 q 132 293 132 347 q 174 192 132 239 q 294 121 217 144 q 451 315 401 238 q 575 256 501 326 q 450 -203 494 72 q 367 -181 375 -211 q 416 6 379 -103 q 465 182 453 115 l 450 197 l 318 39 q 117 134 189 64 q 44 281 44 204 q 253 517 44 438 l 264 529 q 144 619 182 571 q 97 739 106 668 q 178 844 126 794 q 300 913 231 893 q 588 825 461 899 q 518 749 588 772 q 297 839 421 811 q 196 763 236 810 q 228 645 204 679 q 343 557 251 611 q 415 564 372 557 q 467 571 457 571 q 458 494 481 539 q 386 418 435 449 z "},"७":{"ha":768,"x_min":54,"x_max":767,"o":"m 664 426 l 513 358 q 404 430 443 386 q 358 518 365 474 q 389 672 344 607 q 569 756 450 736 q 715 663 675 725 q 767 493 756 600 q 576 182 726 347 q 415 54 507 106 q 233 0 324 3 q 99 190 143 78 q 56 417 54 301 q 156 838 57 650 q 228 847 201 858 q 251 800 254 836 q 150 475 174 679 q 166 263 138 372 q 265 72 194 154 q 624 374 482 124 l 675 407 l 664 426 m 531 429 q 689 485 583 446 l 690 482 q 656 606 685 565 q 554 685 628 647 l 504 671 q 442 548 436 628 q 531 429 447 468 z "},"८":{"ha":706,"x_min":29,"x_max":663,"o":"m 324 18 q 137 112 232 18 q 29 313 42 206 q 249 606 96 444 q 558 875 401 767 q 597 833 586 871 q 325 570 446 708 q 129 307 204 432 q 324 92 156 156 q 478 193 415 135 q 608 340 542 251 q 649 326 636 336 q 661 296 663 315 q 499 115 606 213 q 324 18 393 18 z "},"९":{"ha":471,"x_min":-37,"x_max":521,"o":"m 81 638 q 184 799 82 721 q 375 878 286 878 q 492 785 464 878 q 471 560 521 692 l 265 443 q 381 263 358 304 q 386 208 396 244 q 347 146 376 172 q 183 16 281 82 q 8 -79 86 -50 q -21 -19 -37 -60 q 307 203 183 79 l 313 225 q 183 442 286 292 q 81 638 79 592 m 233 489 l 396 588 q 426 714 429 646 q 368 811 422 782 q 247 757 304 803 q 156 632 189 711 q 233 489 175 585 z "},"॰":{"ha":394,"x_min":72,"x_max":346,"o":"m 226 531 q 138 404 154 489 q 183 300 142 340 q 281 425 264 339 q 226 531 271 486 m 236 565 q 306 515 268 565 q 344 422 343 465 q 286 325 346 379 q 175 271 226 271 q 108 308 143 271 q 72 396 72 344 q 129 506 72 447 q 236 565 186 565 z "},"ॲ":{"ha":889,"x_min":-1,"x_max":1171,"o":"m 901 950 q 788 1031 849 950 q 700 1197 726 1111 q 796 1238 742 1257 q 910 1004 822 1069 q 1099 1154 1031 1024 q 1171 1107 1154 1164 q 1055 998 1132 1046 q 901 950 978 950 m 364 410 q 242 439 310 439 q 207 478 218 450 q 206 535 196 506 q 267 558 233 543 q 400 649 353 596 q 454 785 447 703 l 450 790 q 333 776 396 801 q 218 694 269 750 q 171 721 190 701 q 153 761 151 740 q 429 881 274 881 q 550 761 536 861 q 332 507 519 585 l 335 501 q 449 451 399 488 q 760 619 633 544 l 801 796 l 650 796 l 633 811 q 668 860 643 844 l 817 860 l 826 901 q 947 860 917 901 l 1085 860 l 1101 844 q 1067 796 1092 811 l 918 796 l 833 613 l 735 0 q 622 32 656 -10 l 728 483 l 775 542 l 761 557 q 496 404 632 479 q 522 339 522 369 q 453 199 522 269 q 298 87 385 128 q 150 46 211 46 q 47 88 96 50 q -1 163 -1 126 q 107 272 -1 208 q 364 410 192 324 m 161 119 q 323 186 221 119 q 425 319 425 253 q 414 358 425 336 q 111 178 144 210 q 100 156 100 167 q 120 132 100 144 q 161 119 140 119 z "},"​":{"ha":0,"x_min":0,"x_max":0,"o":""},"‌":{"ha":0,"x_min":-32,"x_max":33,"o":"m 33 -319 l -32 -319 l -32 1126 l 33 1126 l 33 -319 z "},"‍":{"ha":0,"x_min":-176,"x_max":179,"o":"m 33 -319 l -32 -319 l -32 882 l -128 781 l -174 826 l -44 956 l -176 1088 l -131 1133 l 1 1001 l 135 1133 l 179 1089 l 46 956 l 179 824 l 133 778 l 33 882 l 33 -319 z "},"–":{"ha":869,"x_min":65,"x_max":818,"o":"m 801 510 q 813 472 818 500 q 781 414 807 443 l 97 404 q 113 494 65 436 l 458 489 l 801 510 z "},"—":{"ha":1319,"x_min":65,"x_max":1268,"o":"m 1251 510 q 1263 472 1268 500 q 1231 414 1257 443 l 97 404 q 113 494 65 436 l 669 489 l 1251 510 z "},"‘":{"ha":394,"x_min":210,"x_max":411,"o":"m 357 1251 q 411 1231 390 1254 l 340 1100 l 381 971 q 306 919 353 928 q 233 942 260 911 q 357 1251 210 1089 z "},"’":{"ha":413,"x_min":219,"x_max":432,"o":"m 269 894 q 219 915 235 892 l 304 1046 l 268 1221 q 365 1240 318 1258 q 432 1168 413 1222 q 375 1022 424 1097 q 269 894 326 946 z "},"‚":{"ha":361,"x_min":-67,"x_max":193,"o":"m 193 58 q 108 -74 171 -10 q -19 -179 46 -139 q -67 -147 -54 -171 l 43 -36 l 43 143 q 141 144 99 171 q 193 58 183 117 z "},"“":{"ha":642,"x_min":210,"x_max":658,"o":"m 357 1251 q 411 1231 390 1254 l 340 1100 l 381 971 q 306 919 353 928 q 233 942 260 911 q 357 1251 210 1089 m 604 1251 q 658 1231 638 1254 l 588 1100 l 628 971 q 553 919 600 928 q 481 942 507 911 q 604 1251 457 1089 z "},"”":{"ha":667,"x_min":219,"x_max":686,"o":"m 524 894 q 474 915 489 892 l 558 1046 l 522 1221 q 619 1240 572 1258 q 686 1168 667 1222 q 629 1022 678 1097 q 524 894 581 946 m 269 894 q 219 915 235 892 l 304 1046 l 268 1221 q 365 1240 318 1258 q 432 1168 413 1222 q 375 1022 424 1097 q 269 894 326 946 z "},"„":{"ha":593,"x_min":-74,"x_max":494,"o":"m 344 -36 l 344 143 q 442 144 400 171 q 494 58 485 117 q 410 -74 472 -10 q 282 -179 347 -139 q 235 -147 247 -171 l 344 -36 m 36 -36 l 36 143 q 134 144 92 171 q 186 58 176 117 q 101 -74 164 -10 q -26 -179 39 -139 q -74 -147 -61 -171 l 36 -36 z "},"†":{"ha":600,"x_min":110,"x_max":635,"o":"m 422 797 l 618 829 q 629 788 635 821 q 597 726 624 756 l 406 732 l 397 700 l 208 -362 q 143 -360 182 -385 l 301 644 l 313 729 l 125 715 q 114 758 110 729 q 139 814 118 788 l 319 789 l 358 1099 q 436 1122 396 1121 q 503 1101 476 1124 l 422 797 z "},"‡":{"ha":600,"x_min":-42,"x_max":635,"o":"m 407 732 l 324 375 l 278 15 l 468 29 q 479 -15 483 14 q 453 -71 475 -44 l 269 -44 l 233 -354 q 158 -378 197 -376 q 90 -357 118 -381 l 175 -53 l -25 -86 q -36 -44 -42 -76 q -4 18 -31 -11 l 192 13 l 268 354 l 315 729 l 125 715 q 114 758 110 729 q 139 814 118 788 l 322 788 l 358 1099 q 436 1122 396 1121 q 503 1101 476 1124 l 422 797 l 618 829 q 629 788 635 821 q 597 726 624 756 l 407 732 z "},"•":{"ha":467,"x_min":81,"x_max":432,"o":"m 432 518 q 326 418 394 460 q 208 376 258 376 q 123 406 157 376 q 81 485 89 436 q 147 622 88 554 q 269 696 207 689 q 367 639 315 696 q 432 518 419 582 z "},"…":{"ha":892,"x_min":-3,"x_max":786,"o":"m 786 76 q 728 23 765 46 q 665 0 692 0 q 619 17 638 0 q 597 58 601 33 q 632 132 600 96 q 699 172 664 168 q 751 141 724 172 q 786 76 779 110 m 486 76 q 428 23 465 46 q 365 0 392 0 q 319 17 338 0 q 297 58 301 33 q 332 132 300 96 q 399 172 364 168 q 451 141 424 172 q 486 76 479 110 m 186 76 q 128 23 165 46 q 65 0 92 0 q 19 17 38 0 q -3 58 1 33 q 32 132 0 96 q 99 172 64 168 q 151 141 124 172 q 186 76 179 110 z "},"‰":{"ha":1317,"x_min":81,"x_max":1279,"o":"m 451 524 l 767 1154 q 872 1124 847 1164 l 175 -111 q 81 -86 108 -124 l 451 524 m 1119 508 q 1010 279 1040 451 q 997 99 990 175 q 1053 42 1011 60 q 1163 274 1131 101 q 1175 453 1181 383 q 1119 508 1161 496 m 1256 280 q 1244 213 1256 280 q 1175 69 1232 146 q 1051 -7 1118 -7 q 938 63 983 -7 q 915 265 893 133 q 997 481 938 397 q 1124 563 1056 564 q 1235 488 1192 561 q 1256 280 1279 414 m 714 508 q 604 279 635 451 q 593 99 585 172 q 649 42 604 60 q 757 274 725 101 q 769 453 775 383 q 714 508 757 494 m 851 280 q 839 213 851 280 q 770 69 828 146 q 645 -7 713 -7 q 533 63 578 -7 q 510 271 488 133 q 592 481 533 399 q 718 563 650 564 q 830 488 786 561 q 851 280 874 414 m 364 901 q 308 957 351 944 q 200 728 231 900 q 188 547 181 624 q 243 490 199 510 q 353 721 321 550 q 364 901 372 835 m 446 728 q 434 661 446 728 q 365 518 422 594 q 240 442 308 442 q 128 511 172 442 q 106 713 83 581 q 187 929 128 846 q 314 1011 246 1013 q 426 936 382 1010 q 446 728 469 863 z "},"‹":{"ha":472,"x_min":82,"x_max":438,"o":"m 354 306 q 345 237 364 269 q 300 204 326 204 l 82 492 q 94 540 82 517 l 261 663 l 397 775 q 433 735 428 764 q 411 663 438 706 l 161 499 l 242 407 l 354 306 z "},"›":{"ha":472,"x_min":49,"x_max":431,"o":"m 158 674 q 168 743 150 711 q 213 775 186 775 l 431 488 q 418 439 431 458 l 251 317 l 115 204 q 101 317 49 229 l 353 482 l 271 574 l 158 674 z "},"⁄":{"ha":635,"x_min":-36,"x_max":756,"o":"m 335 524 l 650 1154 q 756 1124 731 1164 l 58 -111 q -36 -86 -8 -124 l 335 524 z "},"₨":{"ha":1322,"x_min":76,"x_max":1261,"o":"m 1049 426 q 1173 347 1113 397 q 1247 239 1233 296 q 1137 68 1224 131 q 913 0 1050 6 q 776 85 836 22 q 706 208 715 147 q 753 258 731 246 q 811 263 776 269 q 924 61 836 132 q 1083 133 1026 82 q 1140 238 1140 185 q 972 353 1140 281 q 847 426 907 381 q 772 521 786 471 q 883 690 789 621 q 1094 768 978 760 q 1203 695 1161 739 q 1261 575 1246 651 q 1228 542 1257 553 q 1150 542 1200 532 q 1085 704 1146 625 q 947 631 1011 683 q 882 540 882 578 q 1049 426 882 503 m 389 1024 q 649 952 561 1024 q 738 778 738 881 q 685 606 738 676 q 517 472 633 536 q 335 456 407 458 q 456 241 382 319 q 669 101 529 163 q 662 42 683 71 q 593 0 640 14 q 388 201 464 82 q 289 454 313 321 l 268 453 q 208 4 251 265 q 140 3 182 -6 q 76 35 99 13 q 138 280 119 190 q 164 406 156 369 q 204 632 181 489 l 244 925 l 174 921 q 161 971 158 947 q 182 1001 164 994 q 389 1024 278 1024 m 278 574 q 274 513 278 546 q 492 544 388 517 q 594 642 565 593 q 624 772 624 692 q 558 901 624 851 q 361 940 493 950 l 278 574 z "},"€":{"ha":914,"x_min":25,"x_max":857,"o":"m 183 403 q 182 451 182 415 q 190 532 182 486 l 74 522 q 83 603 46 547 l 207 600 q 263 750 228 669 q 432 919 329 839 q 646 1033 535 999 q 780 942 725 1001 q 851 811 835 883 q 733 782 799 765 q 699 866 717 835 q 640 943 681 897 l 619 942 q 439 800 519 889 q 317 608 358 711 l 624 651 q 608 564 660 631 l 294 539 q 283 454 283 488 q 285 410 283 421 l 606 454 q 589 368 640 435 l 292 344 q 369 186 310 247 q 533 86 428 125 q 664 156 593 107 q 788 263 735 206 q 838 250 818 271 q 854 204 857 229 q 727 96 815 154 q 549 0 639 38 q 192 336 240 81 l 56 325 q 67 407 25 351 l 183 403 z "},"₹":{"ha":733,"x_min":81,"x_max":819,"o":"m 363 942 q 433 972 389 972 q 514 943 476 972 l 793 960 q 776 881 819 939 l 568 878 q 607 735 607 803 l 754 743 q 738 664 781 722 l 599 661 q 463 472 569 546 q 218 408 357 399 l 294 231 l 508 88 q 488 26 515 53 q 421 0 460 -1 q 231 203 313 93 q 117 413 150 313 q 183 493 126 475 q 431 529 304 463 q 496 660 482 589 l 103 654 q 114 729 81 681 l 417 724 l 503 729 q 457 875 503 828 l 142 871 q 153 946 119 897 l 363 942 z "},"₺":{"ha":619,"x_min":79,"x_max":694,"o":"m 647 839 q 664 805 664 832 q 644 742 664 778 l 424 690 l 393 575 l 640 647 q 657 613 657 640 q 638 550 657 586 l 369 488 l 261 90 l 383 106 q 613 258 492 144 q 676 222 658 264 q 665 142 694 181 q 281 0 532 57 q 183 40 214 15 q 143 114 153 65 q 272 464 211 261 l 117 428 q 114 519 79 450 l 297 554 q 326 667 314 613 l 124 619 q 121 711 86 642 l 340 753 l 360 986 q 507 1008 464 1056 l 447 781 l 647 839 z "},"₽":{"ha":739,"x_min":-44,"x_max":738,"o":"m 168 433 q 54 429 97 429 q 47 489 26 458 q 179 494 79 489 l 204 632 l 244 925 l 174 921 q 161 971 158 947 q 182 1001 164 994 q 389 1024 278 1024 q 649 952 561 1024 q 738 778 738 881 q 685 606 738 676 q 517 472 633 536 q 267 439 425 451 q 251 300 264 410 l 525 331 q 522 250 568 304 l 243 233 q 208 4 226 111 q 140 3 182 -6 q 76 35 99 13 q 126 228 106 138 l -10 219 q -14 294 -44 250 l 142 297 q 168 433 149 332 m 492 544 q 594 642 565 593 q 624 772 624 692 q 558 901 624 851 q 361 940 493 950 l 278 574 q 272 503 275 526 q 492 544 424 521 z "},"ℓ":{"ha":515,"x_min":64,"x_max":579,"o":"m 79 564 l 251 613 q 318 956 285 774 q 385 1060 347 1021 q 485 1124 422 1100 q 579 906 569 1090 q 339 613 514 725 q 314 476 328 551 q 251 128 293 364 l 267 118 q 414 222 304 139 q 440 215 432 224 q 447 186 447 206 q 336 81 401 135 q 240 0 271 28 q 132 79 143 21 q 240 558 194 338 q 100 499 178 528 q 70 524 76 506 q 79 564 64 542 m 451 1049 q 353 688 399 903 q 507 910 476 799 q 451 1049 507 1004 z "},"™":{"ha":994,"x_min":114,"x_max":1044,"o":"m 939 1014 q 1001 1021 969 1021 q 1044 1014 1032 1021 l 988 761 q 970 625 985 733 q 949 449 956 517 q 861 474 881 443 q 938 836 913 685 l 938 857 l 793 608 q 721 624 756 600 q 642 854 669 719 l 624 761 q 605 609 619 718 q 585 449 590 500 q 530 452 558 446 q 492 474 501 458 q 569 836 544 688 l 581 1010 q 636 1019 601 1019 q 679 1010 671 1019 q 736 714 697 819 l 763 678 l 861 836 l 939 1014 m 128 936 q 114 972 114 950 q 124 1006 114 994 q 511 1013 290 1017 q 517 979 521 1007 q 499 939 513 951 l 365 951 l 319 751 q 302 604 315 706 q 283 449 289 503 q 194 472 214 443 q 276 843 246 665 l 281 951 l 128 936 z "},"Ω":{"ha":1156,"x_min":-4,"x_max":1071,"o":"m 271 411 q 274 366 271 386 q 285 322 276 346 q 299 282 293 299 q 319 243 306 265 q 373 167 353 190 q 410 126 393 144 q 429 104 428 107 q 397 14 439 42 q 19 14 211 -31 q 46 113 -4 79 q 321 90 188 75 q 208 277 249 175 q 183 454 168 379 q 387 798 226 646 q 706 950 547 950 q 856 880 778 950 q 978 708 933 810 q 1006 512 1024 606 q 921 301 989 418 q 757 86 853 183 q 1024 128 907 85 q 1031 35 1071 113 q 683 8 871 -15 q 653 83 647 54 q 929 524 889 318 q 869 750 919 671 q 692 888 819 829 q 422 725 547 853 q 271 411 271 568 z "},"℮":{"ha":839,"x_min":50,"x_max":804,"o":"m 188 431 l 656 431 l 656 635 q 423 744 579 744 q 188 619 267 744 l 188 431 m 772 164 q 444 0 622 0 q 158 102 265 0 q 50 385 50 204 q 150 683 50 565 q 425 801 250 801 q 702 693 600 801 q 804 435 804 585 l 804 365 l 188 365 l 188 178 q 436 57 275 57 q 587 94 519 57 q 732 207 654 131 l 772 164 z "},"∂":{"ha":633,"x_min":44,"x_max":575,"o":"m 575 567 q 506 224 575 378 q 288 0 436 71 q 107 106 169 24 q 44 314 44 188 q 127 565 44 440 q 360 744 210 689 q 497 592 453 683 q 408 921 490 797 l 179 1053 q 188 1096 178 1083 q 225 1115 199 1108 q 575 567 575 960 m 143 301 q 281 76 143 136 q 494 486 469 200 q 428 591 460 553 q 343 658 397 629 q 192 506 242 600 q 143 301 143 413 z "},"∆":{"ha":935,"x_min":6,"x_max":833,"o":"m 600 969 l 833 85 q 778 3 821 28 l 63 0 q 20 39 35 15 q 10 85 6 63 l 501 981 q 600 969 567 996 m 101 82 l 282 65 l 719 93 l 526 892 l 101 82 z "},"∏":{"ha":764,"x_min":-18,"x_max":858,"o":"m 682 732 q 679 -18 635 379 q 563 -42 650 -51 q 578 490 551 214 q 651 932 604 767 l 344 951 q 240 449 314 746 q 93 -42 165 151 q -18 1 13 -47 q 128 352 79 208 q 226 701 178 496 l 250 943 l 157 931 q 164 1029 133 999 l 693 997 l 833 1018 q 822 918 858 976 l 739 921 l 682 732 z "},"∑":{"ha":1064,"x_min":51,"x_max":1029,"o":"m 297 122 l 231 51 q 783 40 465 18 q 853 200 846 131 q 988 161 935 219 q 947 47 986 96 q 838 -56 908 -3 q 183 -53 482 -79 q 108 108 51 15 l 407 314 l 567 489 l 161 829 q 192 923 163 885 q 256 972 221 961 q 924 979 592 1001 q 1026 872 999 949 q 972 699 1029 771 q 896 702 932 689 q 839 740 860 715 q 890 837 878 807 q 903 893 901 867 q 279 888 551 922 l 638 551 q 611 396 665 479 l 297 122 z "},"−":{"ha":869,"x_min":65,"x_max":818,"o":"m 801 510 q 813 472 818 500 q 781 414 807 443 l 97 404 q 113 494 65 436 l 458 489 l 801 510 z "},"∕":{"ha":474,"x_min":-17,"x_max":622,"o":"m 326 656 l 515 1222 q 585 1223 556 1235 q 622 1186 615 1211 l 81 -106 q -17 -64 6 -119 l 326 656 z "}}}
